<svg width="33" height="36" viewBox="0 0 33 36" fill="none" xmlns="http://www.w3.org/2000/svg">
<g clip-path="url(#clip0)">
<path d="M20.1021 10.0685C20.4557 10.0685 20.7427 9.75453 20.7427 9.36602C20.7427 8.9776 20.4557 8.66357 20.1021 8.66357H11.3066C10.953 8.66357 10.666 8.97751 10.666 9.36602C10.666 9.75444 10.953 10.0685 11.3066 10.0685H20.1021Z" fill="#010002"/>
<path d="M28.9255 8.66366H24.562C24.2084 8.66366 23.9214 8.9776 23.9214 9.36611C23.9214 9.75453 24.2084 10.0686 24.562 10.0686H28.2849V33.8044H3.82311V10.0685H7.33271C7.6863 10.0685 7.97331 9.75453 7.97331 9.36602C7.97331 8.9776 7.6863 8.66357 7.33271 8.66357H3.18259C2.829 8.66357 2.54199 8.97751 2.54199 9.36602V34.5067C2.54199 34.8951 2.829 35.2091 3.18259 35.2091H28.9255C29.2791 35.2091 29.5661 34.8952 29.5661 34.5067V9.36602C29.5661 8.9776 29.2797 8.66366 28.9255 8.66366Z" fill="#010002"/>
<path d="M22.2686 11.6481C22.6222 11.6481 22.9092 11.3341 22.9092 10.9456V5.82368C22.9091 2.61294 19.748 0 15.8469 0C11.9613 0 8.80078 2.61294 8.80078 5.82368V10.9457C8.80078 11.3341 9.08778 11.6481 9.44138 11.6481C9.79497 11.6481 10.082 11.3342 10.082 10.9457V5.82368C10.082 3.38702 12.6685 1.40481 15.863 1.40481C19.0415 1.40481 21.6281 3.38702 21.6281 5.82368V10.9457C21.628 11.3341 21.9144 11.6481 22.2686 11.6481Z" fill="#010002"/>
<path d="M7.79297 12.7518C7.79297 13.7478 8.53286 14.5584 9.44178 14.5584C10.3507 14.5584 11.0906 13.7478 11.0906 12.7518C11.0906 12.3633 10.8036 12.0493 10.45 12.0493C10.0964 12.0493 9.8094 12.3633 9.8094 12.7518C9.8094 12.9731 9.64478 13.1536 9.4417 13.1536C9.23926 13.1536 9.074 12.9731 9.074 12.7518C9.074 12.3633 8.787 12.0493 8.43341 12.0493C8.07981 12.0493 7.79297 12.3633 7.79297 12.7518Z" fill="#010002"/>
<path d="M22.2691 14.5584C23.178 14.5584 23.9179 13.7478 23.9179 12.7518C23.9179 12.3633 23.6309 12.0493 23.2773 12.0493C22.9237 12.0493 22.6367 12.3633 22.6367 12.7518C22.6367 12.9731 22.4721 13.1536 22.269 13.1536C22.0659 13.1536 21.9013 12.9731 21.9013 12.7518C21.9013 12.3633 21.6143 12.0493 21.2607 12.0493C20.9071 12.0493 20.6201 12.3633 20.6201 12.7518C20.6203 13.7478 21.3601 14.5584 22.2691 14.5584Z" fill="#010002"/>
</g>
<defs>
<clipPath id="clip0">
<rect width="32.1088" height="35.209" fill="white"/>
</clipPath>
</defs>
</svg>
