<svg width="28" height="40" viewBox="0 0 28 40" fill="none" xmlns="http://www.w3.org/2000/svg">
<path d="M27.7533 26.8272C27.7533 24.8279 26.3789 23.1481 24.538 22.7086C24.7193 22.2291 24.813 21.7178 24.813 21.1949C24.813 18.8622 22.9414 16.9643 20.641 16.9643H16.1376V11.2793C16.1376 10.4748 15.4921 9.82031 14.6988 9.82031H14.4933V7.9445C14.4933 7.59918 14.2173 7.31923 13.8767 7.31923C13.536 7.31923 13.26 7.59918 13.26 7.9445V9.82031H13.0545C12.2612 9.82031 11.6157 10.4748 11.6157 11.2793V16.9642H7.11316C4.81265 16.9642 2.941 18.8621 2.941 21.1949C2.941 21.7177 3.03479 22.2291 3.21616 22.7085C1.37483 23.148 0 24.8279 0 26.8272C0 28.0511 0.860989 29.0747 2.00101 29.3083L4.36417 39.0398C4.432 39.3191 4.67915 39.5156 4.96288 39.5156H22.7904C23.0742 39.5156 23.3213 39.3192 23.3891 39.0398L25.7523 29.3083C26.8923 29.0746 27.7533 28.051 27.7533 26.8272ZM12.8489 11.2792C12.8489 11.1662 12.9431 11.0708 13.0545 11.0708H14.6988C14.8102 11.0708 14.9044 11.1662 14.9044 11.2792V16.9642H12.8489V11.2792ZM22.3072 38.265H5.44605L3.28325 29.3585H6.51627L7.55402 36.4807C7.59932 36.7913 7.86256 37.0147 8.16323 37.0147C8.19324 37.0147 8.2236 37.0124 8.25419 37.0078C8.59111 36.9574 8.82378 36.6395 8.77404 36.2979L7.76294 29.3585H11.0135L11.3565 36.4201C11.3727 36.7545 11.6452 37.0146 11.9719 37.0146C11.9821 37.0146 11.9923 37.0143 12.0027 37.0138C12.3428 36.9968 12.6049 36.7034 12.5882 36.3585L12.2483 29.3586H15.5049L15.1649 36.3585C15.1482 36.7034 15.4103 36.9968 15.7505 37.0138C15.7608 37.0143 15.7711 37.0146 15.7813 37.0146C16.108 37.0146 16.3804 36.7545 16.3967 36.4201L16.7396 29.3585H19.9902L18.9792 36.2979C18.9295 36.6395 19.1623 36.9573 19.4992 37.0078C19.5297 37.0124 19.56 37.0147 19.59 37.0147C19.8906 37.0147 20.1539 36.7913 20.1992 36.4807L21.2369 29.3585H24.4699L22.3072 38.265ZM25.257 28.108H2.49637C1.79983 28.108 1.23328 27.5334 1.23328 26.8272C1.23328 25.1839 2.55187 23.8469 4.17261 23.8469C4.40109 23.8469 4.6109 23.7188 4.7177 23.5139C4.82458 23.3091 4.81092 23.0612 4.68225 22.8697C4.34993 22.3749 4.17423 21.7957 4.17423 21.1949C4.17423 19.5517 5.49267 18.2147 7.11316 18.2147H20.6409C22.2614 18.2147 23.5797 19.5517 23.5797 21.1949C23.5797 21.6885 23.4593 22.1667 23.2327 22.5964H6.6391C6.29848 22.5964 6.02248 22.8763 6.02248 23.2216C6.02248 23.567 6.29848 23.8469 6.6391 23.8469H23.5816C25.2019 23.8469 26.5201 25.1839 26.5201 26.8272C26.5201 27.5334 25.9535 28.108 25.257 28.108Z" fill="#4F4F4F"/>
<path d="M11.4104 8.29774C11.5565 8.29774 11.7032 8.24538 11.8208 8.13892C12.0749 7.9089 12.0969 7.51365 11.8701 7.25604C11.43 6.75624 11.1878 6.11305 11.1878 5.44476C11.1878 3.98046 12.2812 2.45181 13.8767 1.64713C15.4722 2.45172 16.5656 3.98038 16.5656 5.44476C16.5656 6.11305 16.3233 6.75624 15.8832 7.25604C15.6563 7.51357 15.6784 7.9089 15.9325 8.13883C16.1866 8.36893 16.5764 8.34642 16.8032 8.0889C17.4453 7.35967 17.7989 6.4206 17.7989 5.44476C17.7989 3.42431 16.2875 1.34341 14.1236 0.384335C13.9661 0.314555 13.7872 0.314638 13.6297 0.384335C11.4658 1.34333 9.95452 3.42422 9.95452 5.44468C9.95452 6.4206 10.3081 7.35958 10.9502 8.08881C11.072 8.22729 11.2408 8.29782 11.4104 8.29774Z" fill="#4F4F4F"/>
</svg>
