<svg width="38" height="36" viewBox="0 0 39 36" fill="none" xmlns="http://www.w3.org/2000/svg">
<path d="M37.9978 8.1277H29.411L26.3556 0.692799C26.2556 0.449497 26.0213 0.291016 25.7612 0.291016H14.8127C14.457 0.291016 14.1687 0.583425 14.1687 0.944073V3.5563C14.1687 3.91695 14.457 4.20936 14.8127 4.20936H23.3829L24.832 8.1277H19.965C19.6093 8.1277 19.3209 8.42011 19.3209 8.78076V12.6991C19.3209 13.0598 19.6093 13.3522 19.965 13.3522H20.6458L21.8971 34.9416C21.9172 35.287 22.1996 35.5567 22.5411 35.5561H35.4217C35.7632 35.5567 36.0456 35.287 36.0657 34.9416L37.317 13.3522H37.9978C38.3535 13.3522 38.6418 13.0598 38.6418 12.6991V8.78076C38.6418 8.42011 38.3535 8.1277 37.9978 8.1277ZM24.4326 3.32703C24.3383 3.07193 24.0977 2.90293 23.8292 2.90324H15.4567V1.59713H25.3317L28.0153 8.1277H26.2075L24.4326 3.32703ZM35.1931 27.7194H32.378C33.4937 26.7315 34.1336 25.303 34.1336 23.8011C34.1336 22.2992 33.4937 20.8706 32.378 19.8827H35.6478L35.1931 27.7194ZM32.8456 23.8011C32.8456 25.965 31.1154 27.7194 28.9814 27.7194C26.8474 27.7194 25.1172 25.965 25.1172 23.8011C25.1172 21.6372 26.8474 19.8827 28.9814 19.8827C31.1148 19.885 32.8434 21.6378 32.8456 23.8011ZM23.8292 23.8011C23.8301 25.3027 24.47 26.7309 25.5848 27.7194H22.7697L22.315 19.8827H25.5848C24.47 20.8713 23.8301 22.2995 23.8292 23.8011ZM23.1483 34.25L22.8458 29.0255H35.117L34.8145 34.25H23.1483ZM35.7239 18.5766H22.2389L21.9364 13.3522H36.0264L35.7239 18.5766ZM37.3538 12.046H20.609V9.43382H37.3538V12.046Z" fill="#4F4F4F"/>
<path d="M32.8456 31.6378H30.9135C30.5579 31.6378 30.2695 31.9302 30.2695 32.2908C30.2695 32.6515 30.5579 32.9439 30.9135 32.9439H32.8456C33.2012 32.9439 33.4896 32.6515 33.4896 32.2908C33.4896 31.9302 33.2012 31.6378 32.8456 31.6378Z" fill="#4F4F4F"/>
<path d="M28.3373 31.6378H27.6933C27.3376 31.6378 27.0492 31.9302 27.0492 32.2908C27.0492 32.6515 27.3376 32.9439 27.6933 32.9439H28.3373C28.693 32.9439 28.9813 32.6515 28.9813 32.2908C28.9813 31.9302 28.693 31.6378 28.3373 31.6378Z" fill="#4F4F4F"/>
<path d="M1.9321 35.5561H18.6769C19.7439 35.5561 20.609 34.6789 20.609 33.597V30.9847C20.6077 30.3138 20.2675 29.6904 19.7074 29.3333C20.0514 28.7402 20.0514 28.0048 19.7074 27.4117C20.2675 27.0546 20.6077 26.4312 20.609 25.7603C20.609 22.229 18.2002 18.5766 14.1687 18.5766H7.08434C2.43304 18.5766 0 22.1908 0 25.7603C0.00125787 26.4312 0.341512 27.0546 0.901579 27.4117C0.557551 28.0048 0.557551 28.7402 0.901579 29.3333C0.341512 29.6904 0.00125787 30.3138 0 30.9847V33.597C0 34.6789 0.865105 35.5561 1.9321 35.5561ZM19.3209 33.597C19.3209 33.9576 19.0325 34.25 18.6769 34.25H1.9321C1.57643 34.25 1.28807 33.9576 1.28807 33.597V30.9847C1.28807 30.6241 1.57643 30.3317 1.9321 30.3317H7.00007L16.5788 32.9216C16.8741 33.0019 17.1844 32.8603 17.3212 32.5826L18.431 30.3317H18.6769C19.0325 30.3317 19.3209 30.6241 19.3209 30.9847V33.597ZM1.9321 28.3725C1.9321 28.0118 2.22046 27.7194 2.57612 27.7194H18.0329C18.3885 27.7194 18.6769 28.0118 18.6769 28.3725C18.6769 28.7331 18.3885 29.0255 18.0329 29.0255H2.57612C2.22046 29.0255 1.9321 28.7331 1.9321 28.3725ZM16.9907 30.3317L16.4036 31.523L11.9989 30.3317H16.9907ZM7.08434 19.8827H14.1687C17.7225 19.8827 19.3209 23.3199 19.3209 25.7603C19.3209 26.1209 19.0325 26.4133 18.6769 26.4133H1.9321C1.57643 26.4133 1.28807 26.1209 1.28807 25.7603C1.28807 23.3974 2.83367 19.8827 7.08434 19.8827Z" fill="#4F4F4F"/>
<path d="M7.08439 22.495H7.72841C8.08408 22.495 8.37244 22.2026 8.37244 21.8419C8.37244 21.4813 8.08408 21.1889 7.72841 21.1889H7.08439C6.72872 21.1889 6.44034 21.4813 6.44034 21.8419C6.44034 22.2026 6.72872 22.495 7.08439 22.495Z" fill="#4F4F4F"/>
<path d="M4.50822 25.1072H5.15224C5.50791 25.1072 5.79629 24.8148 5.79629 24.4542C5.79629 24.0935 5.50791 23.8011 5.15224 23.8011H4.50822C4.15255 23.8011 3.86419 24.0935 3.86419 24.4542C3.86419 24.8148 4.15255 25.1072 4.50822 25.1072Z" fill="#4F4F4F"/>
<path d="M7.72834 24.4542C7.72834 24.8148 8.0167 25.1072 8.37236 25.1072H9.01639C9.37205 25.1072 9.66043 24.8148 9.66043 24.4542C9.66043 24.0935 9.37205 23.8011 9.01639 23.8011H8.37236C8.0167 23.8011 7.72834 24.0935 7.72834 24.4542Z" fill="#4F4F4F"/>
<path d="M12.2366 25.1072H12.8807C13.2363 25.1072 13.5247 24.8148 13.5247 24.4542C13.5247 24.0935 13.2363 23.8011 12.8807 23.8011H12.2366C11.881 23.8011 11.5926 24.0935 11.5926 24.4542C11.5926 24.8148 11.881 25.1072 12.2366 25.1072Z" fill="#4F4F4F"/>
<path d="M16.1008 25.1072H16.7448C17.1005 25.1072 17.3888 24.8148 17.3888 24.4542C17.3888 24.0935 17.1005 23.8011 16.7448 23.8011H16.1008C15.7451 23.8011 15.4567 24.0935 15.4567 24.4542C15.4567 24.8148 15.7451 25.1072 16.1008 25.1072Z" fill="#4F4F4F"/>
<path d="M10.3045 22.495H10.9485C11.3042 22.495 11.5926 22.2026 11.5926 21.8419C11.5926 21.4813 11.3042 21.1889 10.9485 21.1889H10.3045C9.94882 21.1889 9.66046 21.4813 9.66046 21.8419C9.66046 22.2026 9.94882 22.495 10.3045 22.495Z" fill="#4F4F4F"/>
<path d="M13.5247 22.495H14.1687C14.5243 22.495 14.8127 22.2026 14.8127 21.8419C14.8127 21.4813 14.5243 21.1889 14.1687 21.1889H13.5247C13.169 21.1889 12.8806 21.4813 12.8806 21.8419C12.8806 22.2026 13.169 22.495 13.5247 22.495Z" fill="#4F4F4F"/>
</svg>
