<svg width="39" height="33" viewBox="0 0 39 33" fill="none" xmlns="http://www.w3.org/2000/svg">
<path d="M19.321 3.5263C12.2071 3.5263 6.44032 9.37394 6.44032 16.5875C6.44032 23.801 12.2071 29.6486 19.321 29.6486C26.4348 29.6486 32.2016 23.801 32.2016 16.5875C32.1935 9.37737 26.4314 3.53454 19.321 3.5263ZM19.321 28.3425C12.9186 28.3425 7.72838 23.0796 7.72838 16.5875C7.72838 10.0953 12.9186 4.83241 19.321 4.83241C25.7234 4.83241 30.9135 10.0953 30.9135 16.5875C30.9061 23.0765 25.7203 28.3349 19.321 28.3425Z" fill="#4F4F4F"/>
<path d="M37.6649 1.03814C37.0742 0.788512 36.3932 0.925817 35.9415 1.38557C34.3664 2.97454 33.4836 5.13625 33.4896 7.38913V15.9344C33.493 16.7617 34.0085 17.4977 34.7777 17.7734V30.3017C34.7777 31.3837 35.6427 32.2609 36.7098 32.2609C37.7769 32.2609 38.6419 31.3837 38.6419 30.3017V2.51993C38.6432 1.87063 38.2571 1.28508 37.6649 1.03814ZM37.3538 30.3017C37.3538 30.6623 37.0655 30.9547 36.7098 30.9547C36.3541 30.9547 36.0658 30.6623 36.0658 30.3017V17.8936H37.3538V30.3017ZM37.3538 16.5875H35.4217C35.0661 16.5875 34.7777 16.2951 34.7777 15.9344V7.38913C34.7729 5.48294 35.52 3.65397 36.8528 2.30965C36.9047 2.25332 36.9771 2.221 37.0531 2.22018C37.0943 2.22067 37.1349 2.22932 37.1729 2.24565C37.285 2.28859 37.3577 2.39912 37.3538 2.52059V16.5875Z" fill="#4F4F4F"/>
<path d="M14.1687 12.0161C12.746 12.0161 11.5926 13.1856 11.5926 14.6283C11.5926 16.071 12.746 17.2405 14.1687 17.2405C15.5915 17.2405 16.7448 16.071 16.7448 14.6283C16.7448 13.1856 15.5915 12.0161 14.1687 12.0161ZM14.1687 15.9344C13.4573 15.9344 12.8806 15.3497 12.8806 14.6283C12.8806 13.9069 13.4573 13.3222 14.1687 13.3222C14.8801 13.3222 15.4568 13.9069 15.4568 14.6283C15.4568 15.3497 14.8801 15.9344 14.1687 15.9344Z" fill="#4F4F4F"/>
<path d="M19.3764 12.4549L18.2442 11.3068C18.1083 11.1698 18.0322 10.9832 18.0329 10.789C18.0315 9.6639 17.1324 8.75223 16.0229 8.75076H13.4468C12.9139 8.75215 12.4032 8.9666 12.0254 9.34766L9.60511 11.8019C9.2269 12.1832 9.01493 12.7023 9.01646 13.2432V16.0134C9.01493 16.5543 9.2269 17.0733 9.60511 17.4547L10.7373 18.6028C10.8732 18.7399 10.9493 18.9264 10.9486 19.1207C10.95 20.2457 11.8491 21.1574 12.9586 21.1589H14.2466C14.7795 21.1575 15.2902 20.943 15.668 20.562L17.4443 18.7608C17.5802 18.6242 17.7636 18.5472 17.955 18.5466C19.0645 18.5452 19.9636 17.6335 19.965 16.5084V13.8962C19.9665 13.3553 19.7546 12.8363 19.3764 12.4549ZM18.6769 16.5084C18.6766 16.9126 18.3536 17.2402 17.955 17.2405C17.4221 17.2419 16.9114 17.4564 16.5336 17.8374L14.7574 19.6386C14.6215 19.7752 14.438 19.8522 14.2466 19.8528H12.9586C12.56 19.8524 12.2369 19.5248 12.2366 19.1207C12.2381 18.5798 12.0262 18.0608 11.648 17.6794L10.5158 16.5313C10.3799 16.3942 10.3038 16.2077 10.3045 16.0134V13.2432C10.3039 13.0489 10.3799 12.8623 10.5158 12.7253L12.936 10.2711C13.0719 10.1344 13.2554 10.0575 13.4468 10.0569H16.0229C16.4215 10.0572 16.7445 10.3848 16.7448 10.789C16.7433 11.3299 16.9553 11.8489 17.3335 12.2303L18.4657 13.3783C18.6016 13.5154 18.6777 13.7019 18.6769 13.8962V16.5084Z" fill="#4F4F4F"/>
<path d="M25.5726 18.0849L22.9965 15.4727C22.7449 15.2177 22.3371 15.2178 22.0856 15.4729C21.9649 15.5953 21.8971 15.7613 21.8971 15.9344V17.2405C21.8971 17.6012 21.6087 17.8936 21.2531 17.8936C20.186 17.8936 19.321 18.7707 19.321 19.8528C19.321 20.2134 19.0326 20.5058 18.6769 20.5058C17.6098 20.5058 16.7448 21.383 16.7448 22.465C16.7448 22.8256 16.4565 23.118 16.1008 23.118H14.8127C14.4571 23.1181 14.1688 23.4105 14.1689 23.7713C14.1689 23.9444 14.2367 24.1104 14.3574 24.2328L16.9335 26.8451C17.0543 26.9675 17.218 27.0364 17.3889 27.0364H18.6769C19.744 27.0364 20.609 26.1593 20.609 25.0772C20.609 24.7166 20.8974 24.4242 21.2531 24.4242C22.3201 24.4242 23.1852 23.547 23.1852 22.465C23.1852 22.1043 23.4735 21.8119 23.8292 21.8119C24.8963 21.8119 25.7613 20.9348 25.7613 19.8528V18.5466C25.7613 18.3734 25.6933 18.2074 25.5726 18.0849ZM24.4732 19.8528C24.4732 20.2134 24.1849 20.5058 23.8292 20.5058C22.7621 20.5058 21.8971 21.383 21.8971 22.465C21.8971 22.8256 21.6087 23.118 21.2531 23.118C20.186 23.118 19.321 23.9952 19.321 25.0772C19.321 25.4379 19.0326 25.7303 18.6769 25.7303H17.6555L16.3513 24.4078C17.3134 24.2802 18.033 23.4489 18.0329 22.465C18.0329 22.1043 18.3213 21.8119 18.6769 21.8119C19.744 21.8119 20.609 20.9348 20.609 19.8528C20.609 19.4921 20.8974 19.1997 21.2531 19.1997C22.2234 19.1998 23.0432 18.4701 23.169 17.4946L24.4732 18.817V19.8528Z" fill="#4F4F4F"/>
<path d="M28.9035 12.9721L28.7927 12.8605L22.8857 6.87126C21.9226 5.8951 20.3615 5.89535 19.3989 6.87191C18.4362 7.8484 18.4365 9.43141 19.3995 10.4076L19.5103 10.5192L25.4174 16.5084C26.3804 17.4846 27.9415 17.4843 28.9041 16.5078C29.8668 15.5312 29.8666 13.9483 28.9035 12.9721ZM20.3888 7.72154C20.5996 7.54334 20.8653 7.44538 21.1397 7.44465H21.1423C21.4543 7.44563 21.7535 7.57118 21.975 7.79403L23.5625 9.40382H20.2381C19.8215 8.89705 19.889 8.14391 20.3888 7.72154ZM21.5197 10.7099H24.8506L26.7827 12.6691H23.4518L21.5197 10.7099ZM27.9136 15.6575C27.7028 15.8357 27.4371 15.9337 27.1627 15.9344H27.1601C26.8479 15.9333 26.5488 15.8076 26.3274 15.5844L24.7398 13.9752H28.0643C28.4809 14.482 28.4134 15.2351 27.9136 15.6575Z" fill="#4F4F4F"/>
<path d="M5.15226 0.914062V6.13853H3.86419V0.914062H2.57613V6.13853H1.28806V0.914062H0V9.40382C0.00313966 10.4261 0.480206 11.3874 1.28806 11.9991V30.3017C1.28806 31.3837 2.15308 32.2609 3.22016 32.2609C4.28724 32.2609 5.15226 31.3837 5.15226 30.3017V11.9991C5.96011 11.3874 6.43718 10.4261 6.44032 9.40382V0.914062H5.15226ZM3.86419 30.3017C3.86419 30.6623 3.57583 30.9547 3.22016 30.9547C2.86449 30.9547 2.57613 30.6623 2.57613 30.3017V12.6691H3.86419V30.3017ZM5.15226 9.40382C5.15226 10.4859 4.28724 11.363 3.22016 11.363C2.15308 11.363 1.28806 10.4859 1.28806 9.40382V7.44465H5.15226V9.40382Z" fill="#4F4F4F"/>
</svg>
