<svg width="18" height="19" viewBox="0 0 18 19" fill="none" xmlns="http://www.w3.org/2000/svg">
<path fill-rule="evenodd" clip-rule="evenodd" d="M17.4738 5.67192C17.1559 4.87017 16.9265 4.36689 16.7895 4.16211H15.8379C16.2794 4.97429 16.5566 5.86632 16.6764 6.84166C16.7348 7.31715 16.7551 8.00441 16.7312 8.8999C16.714 10.0315 16.4747 11.1733 16.0125 12.3222C15.9298 12.5299 15.8395 12.7382 15.742 12.9465C15.6261 13.1946 15.4999 13.4427 15.3621 13.6897H16.4199C16.704 13.2524 16.9573 12.7978 17.1727 12.3222C17.2757 12.0966 17.3711 11.8675 17.4571 11.635C17.7991 10.6735 17.9809 9.778 17.9976 8.94852C18.0216 7.73713 17.847 6.64726 17.4738 5.67192ZM4.80562 7.51848L4.9838 6.44942H5.60302V6.29325C5.6306 5.55743 5.77442 5.06103 6.03808 4.80769C6.31175 4.54386 6.70525 4.40158 7.21542 4.36689C7.48229 4.33909 7.90696 4.33909 8.48864 4.36689L8.29366 5.36303C7.59175 5.35261 7.17427 5.39423 7.04443 5.49495C6.93817 5.56776 6.88344 5.83159 6.88344 6.27588V6.43898H8.07795L7.86581 7.52537H6.9074L6.86985 11.746L5.41167 11.7391L5.5415 7.51149L4.80562 7.51848ZM0.25688 4.62023H1.72505C1.51292 8.45214 1.41024 10.8263 1.41024 11.746L0 11.7391C0.178178 8.01134 0.263672 5.63724 0.25688 4.62023ZM2.81689 4.62028H4.29905C4.29905 4.92917 4.28866 5.28323 4.27508 5.68236H2.78613L2.81689 4.62028ZM4.20357 6.48066H2.76936C2.7282 8.82349 2.66308 10.5764 2.57759 11.7391L4.09051 11.746C4.08012 11.2775 4.11807 9.52463 4.20357 6.48066ZM12.5687 7.26514C12.1169 6.68893 11.4701 6.40086 10.6279 6.40086C9.94001 6.38698 9.34797 6.57788 8.84144 6.97007C8.18062 7.48379 7.81787 8.19531 7.75275 9.11163C7.69443 9.93074 7.89977 10.5937 8.37597 11.0935C8.81386 11.5517 9.43707 11.7947 10.2413 11.8224C10.5928 11.8326 10.9284 11.8228 11.2492 11.7936C11.5816 11.7634 11.898 11.7126 12.1993 11.6419L12.4081 10.5556C11.9324 10.7673 11.3263 10.8749 10.5972 10.8749C9.92283 10.8749 9.50539 10.677 9.33398 10.2848C9.2313 10.0627 9.18016 9.83011 9.18016 9.5837L9.21093 9.28171H13.0378L13.0514 9.16025C13.0993 8.37581 12.9387 7.74412 12.5687 7.26514ZM9.69357 7.5914C9.91604 7.35189 10.2137 7.2304 10.5972 7.23389C10.9771 7.2304 11.268 7.37963 11.4665 7.67464C11.6171 7.91766 11.6755 8.18837 11.6447 8.49039L11.6275 8.62222L9.28284 8.61177C9.30682 8.20574 9.44386 7.86561 9.69357 7.5914ZM15.5506 6.50496L15.5163 7.90374H13.8836L13.9142 6.50496H15.5506ZM13.6882 11.7738L13.7225 10.3855H15.3721L15.3381 11.7738H13.6882Z" fill="#ED1C24"/>
</svg>
