<svg width="11" height="17" viewBox="0 0 11 17" fill="none" xmlns="http://www.w3.org/2000/svg">
<path d="M5.50023 9.19972C8.04065 9.19972 10.1001 7.14029 10.1001 4.59984C10.1001 2.05939 8.04068 0 5.50023 0C2.95978 0 0.900391 2.05942 0.900391 4.59987C0.903509 7.139 2.96111 9.1966 5.50023 9.19972ZM5.50023 2.12301C6.86815 2.12301 7.97709 3.23192 7.97709 4.59987C7.97709 5.96782 6.86818 7.07673 5.50023 7.07673C4.13228 7.07673 3.02337 5.96782 3.02337 4.59987C3.02337 3.23192 4.13232 2.12301 5.50023 2.12301Z" fill="#FF9800"/>
<path d="M10.0057 11.3791C10.5057 11.0499 10.8069 10.4916 10.8075 9.89301C10.8145 9.39622 10.5342 8.94004 10.0878 8.7218C9.62928 8.49275 9.08035 8.54433 8.6725 8.85486C6.78225 10.2329 4.21848 10.2329 2.32823 8.85486C1.91975 8.54596 1.37178 8.49444 0.912882 8.7218C0.466751 8.94001 0.18628 9.39569 0.192484 9.89228C0.193545 10.4908 0.494648 11.0489 0.994286 11.3784C1.6353 11.8047 2.33338 12.1382 3.06777 12.3691C3.19233 12.4078 3.32088 12.4437 3.45346 12.4767L1.31489 14.5679C0.753888 15.1122 0.740321 16.0082 1.28464 16.5693C1.82896 17.1303 2.72497 17.1438 3.28601 16.5995C3.29769 16.5882 3.30917 16.5767 3.32045 16.5649L5.50008 14.3088L7.68397 16.5692C8.22782 17.1306 9.12387 17.1449 9.6853 16.601C10.2467 16.0571 10.261 15.1611 9.71715 14.5997C9.70577 14.5879 9.69419 14.5764 9.68242 14.565L7.54737 12.476C7.67992 12.442 7.80896 12.4059 7.93445 12.3677C8.66805 12.1377 9.36546 11.8049 10.0057 11.3791Z" fill="#FF9800"/>
</svg>
