<svg width="37" height="40" viewBox="0 0 37 40" fill="none" xmlns="http://www.w3.org/2000/svg">
<path d="M35.038 4.15423C29.7119 1.4482 23.9825 0.0761719 18.0091 0.0761719C12.0357 0.0761719 6.30625 1.4482 0.980156 4.15423C0.10475 4.59887 -0.25065 5.68308 0.187921 6.57113C0.400376 7.00116 0.765361 7.32159 1.21571 7.47342C1.39986 7.53549 1.58929 7.56633 1.77782 7.56633C1.85979 7.56633 1.94152 7.55975 2.02266 7.54819L6.13221 15.8824C6.01319 16.306 5.94813 16.7523 5.94813 17.2141C5.94813 19.2841 7.22943 21.0554 9.02952 21.7582L17.5029 38.9425C17.5987 39.1369 17.7948 39.2598 18.0092 39.2598C18.2236 39.2598 18.4196 39.1369 18.5154 38.9425L22.8378 30.1762C23.9055 29.5445 24.6251 28.371 24.6251 27.0296C24.6251 26.885 24.6169 26.7419 24.6008 26.6008L33.996 7.54728C34.0774 7.55898 34.1595 7.56564 34.2415 7.56564C34.9184 7.56564 35.5272 7.1846 35.8303 6.57113C36.2688 5.68308 35.9134 4.59887 35.038 4.15423ZM34.8181 6.05693C34.7081 6.2794 34.4872 6.41761 34.2415 6.41761C34.142 6.41761 34.0458 6.39442 33.9555 6.34881L33.9544 6.34812L33.9511 6.34667C33.4723 6.10353 32.9831 5.86851 32.4969 5.64826C32.2114 5.51884 31.8767 5.64879 31.7492 5.93823C31.6217 6.22767 31.7497 6.56708 32.0351 6.69641C32.3367 6.83302 32.6392 6.97598 32.9397 7.12261L32.367 8.28418C31.0668 7.68028 29.5373 7.89824 28.057 8.1097C26.9001 8.27492 25.8074 8.43112 24.8689 8.21477C23.9801 8.0099 23.0882 7.40363 22.1441 6.76177C20.8582 5.88772 19.5287 4.98397 18.0091 4.98397C16.4895 4.98397 15.16 5.88772 13.8743 6.76177C12.93 7.40363 12.0382 8.0099 11.1494 8.21477C10.4375 8.37885 9.62508 8.31839 8.99684 8.24753C8.6862 8.21232 8.4062 8.43939 8.37163 8.75446C8.33706 9.06954 8.56084 9.35331 8.87156 9.38844C9.58825 9.46941 10.5233 9.53637 11.4003 9.33425C12.4941 9.08216 13.5162 8.38735 14.5047 7.71541C15.7026 6.90113 16.834 6.13208 18.0092 6.13208C19.1843 6.13208 20.3158 6.90121 21.5137 7.71541C22.5021 8.38735 23.5242 9.08216 24.618 9.33425C25.7593 9.59729 27.0077 9.41897 28.2149 9.24655C29.5774 9.05186 30.8653 8.86964 31.8597 9.31328L24.078 25.0943C23.8479 24.7236 23.5504 24.3923 23.1916 24.1185C22.9417 23.9279 22.5869 23.9788 22.3989 24.232C22.2109 24.4853 22.2611 24.8452 22.5109 25.0357C23.135 25.512 23.493 26.2387 23.493 27.0296C23.493 28.4044 22.3899 29.523 21.034 29.523C19.6782 29.523 18.5751 28.4045 18.5751 27.0296C18.5751 25.8483 19.4022 24.8207 20.5416 24.5861C20.848 24.523 21.046 24.2201 20.9838 23.9094C20.9216 23.5988 20.623 23.398 20.3164 23.4611C18.6515 23.8038 17.443 25.3046 17.443 27.0296C17.443 27.3334 17.4805 27.6283 17.5499 27.9105L16.3989 29.0777C16.1778 29.3018 16.1778 29.6652 16.3989 29.8893C16.5094 30.0015 16.6543 30.0575 16.7991 30.0575C16.9439 30.0575 17.0889 30.0015 17.1993 29.8893L18.04 29.0369C18.6836 30.0207 19.7851 30.6709 21.034 30.6709C21.1355 30.6709 21.2356 30.6656 21.3349 30.6572L18.0091 37.4021L12.2387 25.6997L13.9531 25.1202C14.2497 25.02 14.41 24.6949 14.3112 24.3942C14.2122 24.0934 13.8917 23.9309 13.5952 24.0312L11.7261 24.6601L10.4498 22.0719C10.5489 22.0781 10.6485 22.0823 10.7491 22.0823C13.3964 22.0823 15.5501 19.8984 15.5501 17.214C15.5501 16.3276 15.3127 15.4597 14.8635 14.704C14.7022 14.4325 14.3543 14.345 14.0866 14.5087C13.8188 14.6723 13.7326 15.0251 13.894 15.2966C14.2367 15.8734 14.418 16.5364 14.418 17.214C14.418 19.2654 12.7721 20.9344 10.7491 20.9344C8.72597 20.9344 7.08014 19.2654 7.08014 17.214C7.08014 15.1626 8.72605 13.4937 10.7491 13.4937C11.2993 13.4937 11.828 13.614 12.3206 13.8511C12.6031 13.9871 12.9406 13.8652 13.0747 13.5788C13.2088 13.2925 13.0886 12.9502 12.8062 12.8142C12.1607 12.5033 11.4686 12.3457 10.7491 12.3457C9.07375 12.3457 7.5969 13.221 6.73773 14.5436L5.49726 12.028L6.69305 11.6238C6.98965 11.5236 7.14988 11.1985 7.05109 10.8978C6.95222 10.5971 6.63161 10.4345 6.33508 10.5348L4.98578 10.9908L4.15785 9.31183C4.72721 9.0576 5.4439 8.9852 6.46338 9.0778C6.77531 9.10604 7.0498 8.87308 7.07773 8.55732C7.10565 8.24163 6.87584 7.96268 6.56444 7.93444C5.71922 7.8576 4.63023 7.83082 3.65158 8.28495L3.07837 7.12246C7.76227 4.83673 12.7823 3.67799 18.0091 3.67799C22.1161 3.67799 26.1219 4.39867 29.9153 5.81999C30.2086 5.92981 30.5341 5.77782 30.6424 5.4805C30.7508 5.18318 30.6009 4.85303 30.3076 4.74313C26.3882 3.27467 22.2503 2.53003 18.0091 2.53003C12.4156 2.53003 7.05101 3.81459 2.06394 6.34828C1.91051 6.42634 1.73616 6.43904 1.57277 6.38402C1.40944 6.32899 1.27706 6.21282 1.20008 6.057C1.04106 5.73496 1.16982 5.34183 1.48726 5.18058C6.65456 2.55529 12.2133 1.22412 18.0091 1.22412C23.8049 1.22412 29.3636 2.55529 34.5309 5.18058C34.8483 5.34175 34.9771 5.73496 34.8181 6.05693Z" fill="#F50421"/>
<path d="M22.2441 17.1745C23.8906 17.1745 25.2301 15.8161 25.2301 14.1465C25.2301 12.477 23.8905 11.1187 22.2441 11.1187C20.5976 11.1187 19.2581 12.477 19.2581 14.1465C19.258 15.8162 20.5976 17.1745 22.2441 17.1745ZM22.2441 12.2667C23.2664 12.2667 24.098 13.11 24.098 14.1465C24.098 15.1831 23.2663 16.0265 22.2441 16.0265C21.2219 16.0265 20.3902 15.1831 20.3902 14.1465C20.3902 13.1099 21.2218 12.2667 22.2441 12.2667Z" fill="#F50421"/>
<path d="M16.1941 12.2667C16.339 12.2667 16.4839 12.2106 16.5944 12.0985L18.4093 10.2581C18.6304 10.034 18.6304 9.6706 18.4093 9.44645C18.1883 9.22229 17.8298 9.22229 17.6089 9.44645L15.7939 11.2868C15.5728 11.511 15.5728 11.8744 15.7939 12.0985C15.9044 12.2106 16.0492 12.2667 16.1941 12.2667Z" fill="#F50421"/>
<path d="M23.6588 18.6486L21.8438 20.489C21.6228 20.7131 21.6228 21.0765 21.8438 21.3007C21.9543 21.4128 22.0992 21.4688 22.2441 21.4688C22.3889 21.4688 22.5338 21.4128 22.6443 21.3007L24.4593 19.4603C24.6803 19.2361 24.6803 18.8727 24.4593 18.6486C24.2383 18.4244 23.8799 18.4244 23.6588 18.6486Z" fill="#F50421"/>
<path d="M27.689 14.1071C28.0016 14.1071 28.2551 13.8501 28.2551 13.5332V11.6927C28.2551 11.3757 28.0016 11.1187 27.689 11.1187C27.3764 11.1187 27.123 11.3757 27.123 11.6927V13.5331C27.123 13.8501 27.3764 14.1071 27.689 14.1071Z" fill="#F50421"/>
<path d="M17.0901 18.5768C16.83 18.7527 16.7597 19.109 16.9332 19.3728L18.1431 21.2132C18.2522 21.3791 18.4317 21.4689 18.6146 21.4689C18.7225 21.4689 18.8316 21.4376 18.928 21.3724C19.1882 21.1966 19.2585 20.8403 19.085 20.5765L17.8751 18.7361C17.7016 18.4723 17.3501 18.4011 17.0901 18.5768Z" fill="#F50421"/>
<path d="M11.3152 15.987V15.3736C11.3152 15.0566 11.0618 14.7996 10.7492 14.7996C10.4366 14.7996 10.1831 15.0566 10.1831 15.3736V15.987C10.1831 16.304 10.4366 16.561 10.7492 16.561C11.0618 16.561 11.3152 16.304 11.3152 15.987Z" fill="#F50421"/>
<path d="M20.3852 27.2992C20.0726 27.2992 19.8191 27.5562 19.8191 27.8731C19.8191 28.1901 20.0726 28.4471 20.3852 28.4471H20.3912C20.7038 28.4471 20.9543 28.1901 20.9543 27.8731C20.9543 27.5562 20.6978 27.2992 20.3852 27.2992Z" fill="#F50421"/>
<path d="M11.5589 18.0351L10.9539 18.6486C10.7329 18.8727 10.7329 19.2361 10.9539 19.4603C11.0644 19.5724 11.2093 19.6284 11.3542 19.6284C11.499 19.6284 11.6439 19.5724 11.7544 19.4603L12.3594 18.8468C12.5804 18.6226 12.5804 18.2593 12.3594 18.0351C12.1383 17.8109 11.7799 17.8109 11.5589 18.0351Z" fill="#F50421"/>
<path d="M8.93414 17.2535H8.92802C8.61542 17.2535 8.365 17.5105 8.365 17.8275C8.365 18.1445 8.62145 18.4015 8.93414 18.4015C9.24682 18.4015 9.50018 18.1445 9.50018 17.8275C9.50018 17.5105 9.24674 17.2535 8.93414 17.2535Z" fill="#F50421"/>
<path d="M21.8977 25.5737C21.5851 25.5737 21.3346 25.8307 21.3346 26.1477C21.3346 26.4647 21.5911 26.7217 21.9038 26.7217C22.2165 26.7217 22.4698 26.4647 22.4698 26.1477C22.4698 25.8307 22.2164 25.5737 21.9038 25.5737H21.8977Z" fill="#F50421"/>
</svg>
