<svg width="19" height="39" viewBox="0 0 19 39" fill="none" xmlns="http://www.w3.org/2000/svg">
<path d="M17.7923 10.3736C18.244 9.31437 18.5204 7.51035 17.1562 6.14611C16.7533 5.74323 16.2255 5.49537 15.6542 5.26626L16.0743 4.42599C16.3656 3.8431 16.1288 3.13167 15.5459 2.84037L14.1724 2.15364C13.605 1.86978 12.9188 2.08223 12.6109 2.63685L12.4675 2.89453C12.4371 2.82222 12.408 2.74813 12.3809 2.67137C11.604 0.463577 10.1924 0 9.14507 0C7.91948 0 7.24703 0.468635 6.65402 0.882223C6.11724 1.25654 5.69324 1.552 4.84553 1.552C1.62817 1.552 1.25892 3.57977 1.22232 4.20135C1.19762 4.62148 1.27409 4.99996 1.34163 5.3341C1.47583 5.99971 1.56479 6.43949 0.961073 7.10896C-0.0770643 8.26047 0.0981901 9.50272 0.500175 10.3338C0.185966 10.5548 0 10.9104 0 11.299V37.2075C0 38.1959 0.804266 38.9999 1.79242 38.9999H16.4468C17.4353 38.9999 18.2396 38.1959 18.2396 37.2075V11.2987C18.2396 10.933 18.0744 10.5962 17.7923 10.3736ZM11.3151 18.7823C13.5529 21.0808 15.4974 23.6329 17.097 26.3706V31.7963C13.2092 28.9926 9.15132 27.1844 6.34249 26.1391C3.87434 25.2209 1.9757 24.7317 1.14258 24.5368V11.2987C1.14258 11.2901 1.14258 11.2773 1.16043 11.2663C1.18036 11.2541 1.19435 11.2609 1.20209 11.2648C2.81776 12.0673 6.05416 13.8924 9.57621 17.1003C9.80949 17.3127 10.1707 17.296 10.3832 17.0628C10.5956 16.8295 10.5789 16.4683 10.3457 16.2558C10.2284 16.149 10.1115 16.044 9.99516 15.9401C13.0147 13.4211 15.6798 11.939 17.0378 11.2648C17.0455 11.2612 17.0595 11.2541 17.0791 11.2663C17.097 11.2773 17.097 11.2901 17.097 11.2987V24.1955C15.6581 21.9794 13.9948 19.8966 12.1339 17.9852C11.9137 17.7593 11.5519 17.7546 11.3261 17.9744C11.0996 18.1946 11.0949 18.5561 11.3151 18.7823ZM7.24881 8.65739C7.24881 8.32057 7.37973 8.00398 7.61777 7.76594L7.94834 7.43537C8.08075 7.30296 8.2563 7.23542 8.44376 7.24613C8.63091 7.25655 8.79843 7.34283 8.91537 7.48893L10.1689 9.05581C9.54438 9.70743 9.15906 10.5902 9.15906 11.562C9.15906 12.5886 9.58098 13.5371 10.3129 14.215C9.92256 14.5199 9.52385 14.8425 9.11978 15.1826C8.57973 14.7279 8.0504 14.3051 7.53594 13.9132C8.11913 13.4077 8.46994 12.668 8.46994 11.8673C8.46994 10.9229 7.98345 10.0904 7.24881 9.60537V8.65739ZM15.1891 10.9521C14.1257 11.5492 12.7632 12.3907 11.2443 13.5092C10.6492 13.0408 10.3016 12.3333 10.3016 11.562C10.3016 10.1936 11.415 9.0805 12.7835 9.0805C13.9299 9.0805 14.9142 9.85739 15.1891 10.9521ZM4.4498 9.4935L3.30782 7.20924C3.18255 6.95841 3.23135 6.65699 3.42951 6.45883L3.96837 5.91997C3.97372 5.91461 3.98354 5.9048 4.00467 5.90926C4.0255 5.91402 4.03026 5.92711 4.03294 5.93396L5.25972 9.20517C4.9708 9.25843 4.69825 9.35692 4.4498 9.4935ZM5.76138 10.3016C6.62486 10.3016 7.32736 11.0041 7.32736 11.8676C7.32736 12.4199 7.03934 12.923 6.57725 13.2045C5.72686 12.5948 4.93033 12.0729 4.21384 11.6343C4.32542 10.8738 4.97229 10.3016 5.76138 10.3016ZM16.3484 6.95394C17.6272 8.23279 16.7262 9.98385 16.6025 10.2082C16.5778 10.2183 16.5534 10.2296 16.5293 10.2415C16.4317 10.29 16.3269 10.3427 16.2168 10.3992C15.8803 9.39947 15.129 8.61068 14.1792 8.21554L15.1412 6.2919C15.647 6.49156 16.0773 6.68288 16.3484 6.95394ZM13.6615 3.17541L15.0347 3.86214C15.054 3.87196 15.0621 3.89547 15.0522 3.91511L13.0361 7.94745C12.9525 7.94179 12.8683 7.93793 12.7835 7.93793C12.1675 7.93793 11.5876 8.09265 11.0791 8.36461L10.8765 8.1111L13.6094 3.19148C13.6196 3.17303 13.6425 3.16618 13.6615 3.17541ZM2.36281 4.26829C2.42351 3.23879 3.28193 2.69457 4.84553 2.69457C6.05238 2.69457 6.71918 2.22951 7.30743 1.81949C7.82843 1.45619 8.27832 1.14258 9.14507 1.14258C10.6316 1.14258 11.1371 2.57853 11.3032 3.05074C11.4344 3.42416 11.6049 3.76842 11.8096 4.07846L10.105 7.14675L9.80741 6.77512C9.76664 6.72424 9.7232 6.67574 9.67738 6.62991L10.3989 3.74372C10.4754 3.43755 10.2894 3.1275 9.98326 3.05103C9.67768 2.97457 9.36704 3.16053 9.29057 3.46671L8.62794 6.11665C8.58777 6.11159 8.5476 6.10742 8.50683 6.10504C8.36491 6.09731 8.22357 6.10713 8.08611 6.13212L7.36962 4.06656C7.26637 3.76871 6.94085 3.61072 6.64271 3.71426C6.34457 3.81751 6.18687 4.14303 6.29012 4.44117L7.07207 6.69567L6.80993 6.95781C6.44514 7.3229 6.21216 7.78439 6.1348 8.28486L5.10291 5.53286C4.96128 5.15468 4.64112 4.87797 4.24657 4.79257C3.85203 4.70717 3.44588 4.82649 3.16053 5.11184L2.62168 5.65099C2.60144 5.67122 2.5827 5.69265 2.56365 5.71377C2.54074 5.50013 2.49998 5.2981 2.4616 5.10797C2.40238 4.81608 2.34674 4.54055 2.36281 4.26829ZM1.80967 7.87395C1.9522 7.71625 2.06943 7.56183 2.16673 7.41127C2.19678 7.5163 2.23576 7.61985 2.28575 7.72012L3.564 10.2763C3.40095 10.5025 3.27211 10.7551 3.18434 11.0273C2.6672 10.734 2.21225 10.4938 1.83407 10.3037C1.82158 10.2847 1.80819 10.2659 1.79301 10.2481C1.68768 10.124 0.792067 9.00284 1.80967 7.87395ZM16.4468 37.8573H1.79271C1.43417 37.8573 1.14258 37.5658 1.14258 37.2075V25.7139C3.3703 26.265 10.6495 28.3377 17.097 33.2168V37.2075C17.097 37.5658 16.8054 37.8573 16.4468 37.8573Z" fill="#4F4F4F"/>
</svg>
