<svg width="39" height="40" viewBox="0 0 39 40" fill="none" xmlns="http://www.w3.org/2000/svg">
<path d="M37.9953 25.4655H0.644006C0.288531 25.4655 0 25.7574 0 26.1185C0 33.6798 6.06639 39.8318 13.5237 39.8318H25.1155C32.5723 39.8318 38.6393 33.6798 38.6393 26.1185C38.6393 25.7574 38.3514 25.4655 37.9953 25.4655ZM25.1155 38.5257H13.5237C6.99304 38.5257 1.64084 33.3107 1.30469 26.7715H37.3345C36.9984 33.3107 31.6462 38.5257 25.1155 38.5257Z" fill="#4F4F4F"/>
<path d="M32.846 9.79713C32.846 9.74945 32.8453 9.70177 32.8409 9.6293C32.7417 8.54663 32.0076 7.6572 31.0384 7.32353L31.7674 6.58432C33.0315 5.32862 33.1584 3.31994 32.052 1.9016C30.8671 0.441487 28.7316 0.233785 27.2922 1.43469C27.2104 1.50327 27.1313 1.57574 27.052 1.6561L26.2599 2.47106C25.9276 1.49347 25.0486 0.754266 23.9654 0.652404C22.539 0.573425 21.3315 1.68349 21.2549 3.12142C21.2523 3.16909 21.2517 3.21677 21.2517 3.26376V4.26485C20.873 4.04215 20.4344 3.91419 19.9663 3.9135C19.9199 3.9135 19.8723 3.9148 19.8008 3.91871C18.4239 4.04865 17.3646 5.24826 17.3878 6.63912V7.52725C17.0014 7.30064 16.5609 7.17919 16.1024 7.1785C16.0561 7.1785 16.009 7.1798 15.9376 7.18371C14.5601 7.31365 13.5007 8.51326 13.5239 9.9042V19.5884C13.5239 19.9495 13.8124 20.2414 14.1679 20.2414H25.1157C26.5363 20.2414 27.6916 19.0699 27.691 17.6307C27.691 17.1553 27.5654 16.7092 27.3451 16.3247H28.2152C29.5984 16.3632 30.7815 15.2733 30.9109 13.8517C30.9386 13.3201 30.8072 12.8173 30.5587 12.3903C31.137 12.325 31.6721 12.0657 32.0894 11.6439C32.5761 11.1515 32.8453 10.4958 32.846 9.79713ZM31.18 10.7192C30.9366 10.9647 30.6139 11.0999 30.2694 11.0999C30.2687 11.0999 30.2681 11.0999 30.2674 11.0999H28.3355C27.9793 11.0999 27.6915 11.3925 27.6915 11.7529C27.6915 12.1134 27.9793 12.406 28.3355 12.406L28.4064 12.408C29.116 12.4464 29.6621 13.0629 29.6261 13.7564C29.5604 14.476 28.9583 15.0331 28.2261 15.018H25.1156C24.7595 15.018 24.4716 15.3106 24.4716 15.671C24.4716 16.0315 24.7595 16.3241 25.1156 16.3241C25.826 16.3241 26.4036 16.9098 26.4036 17.6301C26.4036 18.3504 25.826 18.9362 25.1156 18.9362H14.8118V9.8931C14.7995 9.1702 15.3469 8.55183 16.0315 8.48648L16.1017 8.48449C16.8107 8.4851 17.387 9.07025 17.3877 9.78856V9.79315C17.3877 10.1536 17.6756 10.4462 18.031 10.4462C18.0317 10.4462 18.0317 10.4462 18.0317 10.4462C18.3872 10.4462 18.675 10.1543 18.6757 9.79384V6.62802C18.6635 5.90512 19.2109 5.28676 19.8954 5.2214L19.965 5.21941C20.6747 5.22071 21.2511 5.80578 21.2517 6.52478V6.52869C21.2517 6.88914 21.5396 7.18172 21.8951 7.18172C21.8957 7.18172 21.8957 7.18172 21.8957 7.18172C22.2512 7.18172 22.5391 6.88983 22.5397 6.52938V3.26368L22.5417 3.19121C22.5791 2.47221 23.1728 1.91852 23.8709 1.95441C24.5819 2.02168 25.1286 2.64004 25.1151 3.37534V3.91733C25.1151 4.18182 25.2729 4.42082 25.515 4.52138C25.7552 4.62194 26.0347 4.56447 26.2176 4.37513L27.9647 2.57736C28.0123 2.52969 28.0613 2.48461 28.1122 2.44221C29.0034 1.69911 30.3243 1.82836 31.0507 2.7217C31.7385 3.60455 31.6592 4.86355 30.862 5.65571L29.1683 7.37312C28.9842 7.55985 28.9288 7.84064 29.0286 8.08492C29.1277 8.32852 29.3634 8.48785 29.6236 8.48785H30.1581C30.1716 8.48785 30.1812 8.48785 30.1922 8.48785C30.8954 8.48785 31.493 9.03772 31.5561 9.72466L31.5581 9.79652C31.5573 10.1452 31.4234 10.473 31.18 10.7192Z" fill="#4F4F4F"/>
<path d="M27.8807 4.75903L9.84939 23.043L10.7601 23.9665L28.7914 5.68249L27.8807 4.75903Z" fill="#4F4F4F"/>
<path d="M25.1143 5.87902H23.8263V9.1441H25.1143V5.87902Z" fill="#4F4F4F"/>
<path d="M21.2504 9.1441H19.9624V13.0622H21.2504V9.1441Z" fill="#4F4F4F"/>
<path d="M17.3864 12.4026H16.0984V16.9737H17.3864V12.4026Z" fill="#4F4F4F"/>
<path d="M27.6902 8.49107H24.4703V9.79705H27.6902V8.49107Z" fill="#4F4F4F"/>
<path d="M24.4703 12.4026H20.6064V13.7086H24.4703V12.4026Z" fill="#4F4F4F"/>
<path d="M21.2503 16.3207H16.7424V17.6268H21.2503V16.3207Z" fill="#4F4F4F"/>
<path d="M12.02 3.66922C12.0194 3.66792 12.0181 3.66662 12.0175 3.66531C11.1088 2.28548 9.26182 1.91063 7.90173 2.83206C7.85924 2.86014 7.81735 2.89014 7.76973 2.92611L7.53788 3.10504L7.31508 2.94241C6.13658 1.82775 4.28381 1.87283 3.16199 3.05346C2.6127 3.63072 2.31776 4.39082 2.33255 5.19339C2.34734 5.99596 2.6687 6.74427 3.23739 7.30064C3.4029 7.46258 3.58705 7.60493 3.78539 7.72378L4.32766 8.15349V8.48785C4.32766 10.2882 5.77213 11.7529 7.54761 11.7529C9.3231 11.7529 10.7676 10.2875 10.7669 8.48724V8.15288L11.3369 7.70166C12.57 6.75277 12.8695 4.98117 12.02 3.66922ZM10.5511 6.6672L9.7268 7.32024C9.57095 7.44368 9.47948 7.6337 9.47948 7.83482V8.48785C9.47948 9.56792 8.61268 10.4469 7.54754 10.4469C6.4824 10.4469 5.61559 9.56792 5.61559 8.48785V7.83482C5.61559 7.6337 5.5248 7.44368 5.36827 7.32024L4.54396 6.6672C4.51951 6.64761 4.4931 6.63001 4.46608 6.61432C4.34502 6.54445 4.23294 6.45958 4.13249 6.36093C3.81052 6.04616 3.62886 5.62303 3.62048 5.16982C3.61211 4.71661 3.7789 4.28697 4.08932 3.96041C4.41709 3.61565 4.85566 3.44192 5.29484 3.44192C5.71341 3.44192 6.13266 3.59927 6.45726 3.91733C6.47915 3.93822 6.50232 3.9585 6.52745 3.97671L7.17146 4.44692C7.40074 4.61475 7.71176 4.61084 7.9372 4.43712L8.616 3.91932C8.98951 3.66593 9.43706 3.57715 9.87759 3.66531C10.3168 3.75409 10.6961 4.01077 10.9453 4.38822C11.4231 5.12872 11.2531 6.12652 10.5511 6.6672Z" fill="#4F4F4F"/>
<path d="M15.4545 1.30138H14.1665V2.60736H15.4545V1.30138Z" fill="#4F4F4F"/>
<path d="M19.3184 22.1978H18.0304V23.5038H19.3184V22.1978Z" fill="#4F4F4F"/>
<path d="M34.7754 4.56975V5.87581C35.4857 5.87581 36.0634 6.46157 36.0634 7.18179C36.0634 7.90201 35.4857 8.48785 34.7754 8.48785V9.79383C36.196 9.79383 37.3513 8.62231 37.3513 7.18179C37.3513 5.74127 36.196 4.56975 34.7754 4.56975Z" fill="#4F4F4F"/>
<path d="M2.57466 10.4501H1.28673V11.7561H2.57466V10.4501Z" fill="#4F4F4F"/>
<path d="M1.28794 7.83804H0V9.1441H1.28794V7.83804Z" fill="#4F4F4F"/>
<path d="M25.1155 21.5474C23.6949 21.5474 22.5396 22.7189 22.5396 24.1594H23.8276C23.8276 23.4391 24.4053 22.8534 25.1155 22.8534C25.8259 22.8534 26.4036 23.4391 26.4036 24.1594H27.6915C27.6915 22.7189 26.5362 21.5474 25.1155 21.5474Z" fill="#4F4F4F"/>
<path d="M7.72791 15.6703H7.64678C7.35953 14.5451 6.35039 13.7113 5.15197 13.7113C3.95354 13.7113 2.94372 14.5451 2.65715 15.6703H2.57602C1.1554 15.6703 7.36147e-05 16.8418 7.36147e-05 18.2823C7.36147e-05 19.7228 1.1554 20.8944 2.57602 20.8944H7.72791C9.14853 20.8944 10.3039 19.7228 10.3039 18.2823C10.3039 16.8418 9.14853 15.6703 7.72791 15.6703ZM7.72791 19.589H2.57594C1.8656 19.589 1.28793 19.0032 1.28793 18.283C1.28793 17.5627 1.8656 16.9769 2.57594 16.9769H3.21995C3.57542 16.9769 3.86396 16.6844 3.86396 16.3239C3.86396 15.6036 4.44162 15.0179 5.15197 15.0179C5.86231 15.0179 6.43998 15.6037 6.43998 16.3239C6.43998 16.6844 6.72851 16.9769 7.08398 16.9769H7.72799C8.43834 16.9769 9.016 17.5627 9.016 18.283C9.01585 19.0033 8.43818 19.589 7.72791 19.589Z" fill="#4F4F4F"/>
<path d="M6.43991 19.5884H3.86396C3.50848 19.5884 3.21995 19.881 3.21995 20.2414V22.8535C3.21995 23.2146 3.50848 23.5065 3.86396 23.5065H6.43991C6.79538 23.5065 7.08391 23.2146 7.08391 22.8535V20.2414C7.08391 19.881 6.79538 19.5884 6.43991 19.5884ZM5.7959 22.2004H4.50796V20.8944H5.79598L5.7959 22.2004Z" fill="#4F4F4F"/>
<path d="M34.1314 17.6294C33.0662 17.6294 32.1995 18.5083 32.1995 19.5884C32.1995 20.6684 33.0662 21.5474 34.1314 21.5474C35.1965 21.5474 36.0633 20.6684 36.0633 19.5884C36.0633 18.5083 35.1965 17.6294 34.1314 17.6294ZM34.1314 20.242C33.7759 20.242 33.4874 19.9488 33.4874 19.589C33.4874 19.2291 33.7759 18.936 34.1314 18.936C34.4869 18.936 34.7754 19.2285 34.7754 19.589C34.7754 19.9495 34.4869 20.242 34.1314 20.242Z" fill="#4F4F4F"/>
<path d="M34.1314 15.0173C31.6462 15.0173 29.6235 17.0678 29.6235 19.5884C29.6235 22.109 31.6462 24.1594 34.1314 24.1594C36.6165 24.1594 38.6393 22.109 38.6393 19.5884C38.6393 17.0678 36.6165 15.0173 34.1314 15.0173ZM34.1314 22.8541C32.3559 22.8541 30.9114 21.3887 30.9114 19.589C30.9114 17.7886 32.3559 16.3239 34.1314 16.3239C35.9069 16.3239 37.3513 17.7886 37.3513 19.589C37.3513 21.3894 35.9069 22.8541 34.1314 22.8541Z" fill="#4F4F4F"/>
</svg>
