<svg width="17" height="22" viewBox="0 0 17 22" fill="none" xmlns="http://www.w3.org/2000/svg">
<path d="M12.2186 5.25C12.4337 5.25 12.6249 5.23264 12.6249 5.00092V3.47347C12.6248 1.55846 10.7011 0 8.32709 0C5.96243 0 4.03906 1.55846 4.03906 3.47347V5.00092C4.03906 5.23259 4.18728 5.25 4.40246 5.25C4.61764 5.25 4.81875 5.23264 4.81875 5.00092V3.47347C4.81875 2.02015 6.39284 0.837881 8.33687 0.837881C10.2712 0.837881 11.8453 2.02015 11.8453 3.47347V5.00092C11.8452 5.23259 12.003 5.25 12.2186 5.25Z" fill="#F50421"/>
<path fill-rule="evenodd" clip-rule="evenodd" d="M12.6246 7.52838C12.6246 7.7601 12.45 7.94734 12.2348 7.94734C12.0192 7.94734 11.8449 7.7601 11.845 7.52843V6.25H4.81847V7.52843C4.81847 7.76015 4.64381 7.9474 4.42863 7.9474C4.21345 7.9474 4.03879 7.7601 4.03879 7.52843V6.25H0.894141C0.673227 6.25 0.494141 6.42909 0.494141 6.65V21.684C0.494141 21.9049 0.673226 22.084 0.89414 22.084H16.5372C16.7582 22.084 16.9372 21.9049 16.9372 21.684V6.65C16.9372 6.42909 16.7582 6.25 16.5372 6.25H12.6246V7.52838ZM3.42518 8.60548C3.42518 9.19953 3.87544 9.68302 4.42858 9.68302C4.98172 9.68302 5.43198 9.19958 5.43198 8.60548C5.43198 8.37381 5.25732 8.18651 5.04214 8.18651C4.82696 8.18651 4.6523 8.37376 4.6523 8.60548C4.6523 8.73747 4.55212 8.84514 4.42853 8.84514C4.30533 8.84514 4.20476 8.73747 4.20476 8.60548C4.20476 8.37381 4.0301 8.18651 3.81492 8.18651C3.59974 8.18651 3.42518 8.37381 3.42518 8.60548ZM13.2382 8.60548C13.2382 9.19958 12.7879 9.68302 12.2348 9.68302C11.6816 9.68302 11.2314 9.19953 11.2313 8.60548C11.2313 8.37376 11.4059 8.18651 11.6211 8.18651C11.8363 8.18651 12.011 8.37381 12.011 8.60548C12.011 8.73747 12.1111 8.84514 12.2347 8.84514C12.3583 8.84514 12.4585 8.73747 12.4585 8.60548C12.4585 8.37376 12.6332 8.18651 12.8483 8.18651C13.0635 8.18651 13.2382 8.37381 13.2382 8.60548Z" fill="#F50421"/>
</svg>
