<svg width="33" height="34" viewBox="0 0 33 34" fill="none" xmlns="http://www.w3.org/2000/svg">
<path d="M29.8049 3.0388C25.996 -0.823485 19.5922 -0.614332 15.5298 3.505C13.3449 5.72051 12.6168 8.24811 11.9126 10.6924C11.156 13.319 10.3735 16.0351 7.77261 18.6724C7.47786 18.9713 7.47786 19.4558 7.77261 19.7547L8.54015 20.533L5.02613 24.0962C3.76544 23.2642 2.05658 23.4085 0.9514 24.5292C-0.317133 25.8155 -0.317133 27.9085 0.9514 29.1948C1.52082 29.7722 2.27896 30.1056 3.06644 30.1518C3.11207 30.9503 3.44081 31.7191 4.01024 32.2965C5.27877 33.5828 7.34274 33.5827 8.61128 32.2964C9.7164 31.1758 9.85884 29.443 9.03833 28.1646L12.5523 24.6014L13.3199 25.3797C13.6146 25.6785 14.0925 25.6786 14.3872 25.3797C14.8616 24.8987 15.3617 24.4564 15.8735 24.0649C16.2063 23.8105 16.2726 23.3306 16.0217 22.9931C15.7704 22.6554 15.2976 22.5884 14.9647 22.8428C14.5908 23.1288 14.2231 23.4386 13.8659 23.7687L9.36119 19.2008C11.8242 16.4577 12.6381 13.6327 13.3615 11.1214C14.0424 8.75792 14.6854 6.52552 16.5971 4.58708C20.071 1.06474 25.5172 0.855645 28.7376 4.12109C31.9579 7.3866 31.7516 12.909 28.2777 16.4316C26.366 18.3701 24.1644 19.0222 21.8337 19.7125C21.1808 19.9059 20.5058 20.1059 19.8257 20.337C19.4305 20.4712 19.2174 20.905 19.3498 21.3057C19.4822 21.7063 19.91 21.9224 20.3053 21.7882C20.9575 21.5666 21.6181 21.3708 22.257 21.1817C24.6676 20.4676 27.1603 19.7293 29.3452 17.5138C33.4075 13.3945 33.6137 6.90097 29.8049 3.0388ZM4.52385 25.6522C4.66335 25.8033 4.85793 25.891 5.06243 25.8945C5.26688 25.8979 5.46396 25.817 5.60853 25.6704L9.60753 21.6153L11.485 23.5191L7.48603 27.5742C7.3414 27.7208 7.26173 27.9207 7.26509 28.128C7.26851 28.3353 7.3523 28.5294 7.50397 28.6741C7.51742 28.6869 7.53075 28.6999 7.54393 28.7132C8.22388 29.4027 8.22388 30.5246 7.54393 31.2141C6.86393 31.9036 5.75754 31.9036 5.07759 31.2142C4.64057 30.771 4.46872 30.1156 4.62898 29.5034L4.62967 29.4999C4.70934 29.2089 4.86055 28.9411 5.07423 28.7244L5.09978 28.699C5.40029 28.4061 5.40968 27.9217 5.12081 27.6169C4.83177 27.3102 4.35413 27.3026 4.05368 27.5956C4.03799 27.6109 4.0223 27.6265 4.00688 27.6421C3.72467 27.9283 3.49963 28.2617 3.33932 28.6244C2.85123 28.6485 2.36809 28.4667 2.01881 28.1125C1.3388 27.423 1.3388 26.3011 2.01881 25.6116C2.69881 24.922 3.80515 24.9221 4.48515 25.6116C4.49833 25.625 4.51125 25.6386 4.52385 25.6522Z" fill="#4F4F4F"/>
<path d="M18.7877 21.5207C18.6142 21.1366 18.1661 20.9677 17.7872 21.1439L17.7669 21.1533C17.3875 21.3282 17.2197 21.7819 17.3921 22.1667C17.4307 22.2528 17.483 22.3282 17.5453 22.3913C17.7613 22.6104 18.0969 22.6826 18.3915 22.5467L18.4161 22.5353C18.795 22.3592 18.9614 21.9049 18.7877 21.5207Z" fill="#4F4F4F"/>
<path d="M24.8367 4.9479C24.9438 4.53944 24.7043 4.12021 24.3015 4.01144C22.1003 3.41726 19.7324 4.06274 18.1217 5.69598C17.7039 6.11965 17.3461 6.59959 17.0581 7.12256C16.8898 7.42831 16.9503 7.80067 17.183 8.03667C17.2312 8.08548 17.2868 8.12855 17.3492 8.16389C17.7131 8.36991 18.1728 8.23781 18.3761 7.8688C18.5962 7.46906 18.8697 7.10221 19.1891 6.77833C20.4204 5.5298 22.2306 5.03632 23.9132 5.49062C24.316 5.59933 24.7294 5.35636 24.8367 4.9479Z" fill="#4F4F4F"/>
<path d="M17.7762 9.82176L17.783 9.75439C17.8274 9.33419 17.5275 8.957 17.1129 8.91198C16.6985 8.86696 16.3265 9.17119 16.2821 9.59145C16.2792 9.61888 16.2765 9.64632 16.2738 9.67392C16.2512 9.91094 16.3376 10.1331 16.4917 10.2893C16.611 10.4103 16.771 10.4917 16.9521 10.5096C17.367 10.5504 17.736 10.2424 17.7762 9.82176Z" fill="#4F4F4F"/>
</svg>
