<svg width="39" height="31" viewBox="0 0 39 31" fill="none" xmlns="http://www.w3.org/2000/svg">
<path d="M38.642 11.5068C38.642 11.0556 38.2819 10.6905 37.8369 10.6905H0.805066C0.36008 10.6905 0 11.0556 0 11.5068C0 19.349 4.76972 26.0747 11.5187 28.88C11.3668 29.0284 11.2705 29.2348 11.2705 29.4659C11.2705 29.9171 11.6306 30.2822 12.0756 30.2822H26.5664C27.0113 30.2822 27.3714 29.9171 27.3714 29.4659C27.3714 29.2348 27.2752 29.0284 27.1233 28.88C33.8722 26.0747 38.642 19.349 38.642 11.5068ZM20.126 28.6496H18.516C9.46396 28.6496 2.05036 21.3984 1.629 12.3232H37.013C36.5916 21.3984 29.178 28.6496 20.126 28.6496Z" fill="#4F4F4F"/>
<path d="M10.9129 23.0405C8.92939 21.6909 7.32009 19.8358 6.25797 17.6755C6.0606 17.2729 5.5803 17.1062 5.17856 17.3096C4.78074 17.5105 4.61878 18.0007 4.81772 18.4041C6.00324 20.8164 7.80047 22.8891 10.0151 24.3958C10.1535 24.4899 10.3092 24.5346 10.4633 24.5346C10.7228 24.5346 10.9775 24.4078 11.1324 24.1734C11.3798 23.7987 11.2816 23.2916 10.9129 23.0405Z" fill="#4F4F4F"/>
<path d="M9.66049 8.24151C9.66049 8.69273 10.0206 9.05786 10.4656 9.05786C10.9105 9.05786 11.2706 8.69273 11.2706 8.24151C11.2706 7.22909 10.9616 6.61601 10.714 6.12415C10.5017 5.70162 10.3335 5.36918 10.3335 4.74898C10.3335 4.18296 10.4577 3.99645 10.6637 3.68712C10.92 3.30286 11.2706 2.77756 11.2706 1.71088C11.2706 1.25966 10.9105 0.894531 10.4656 0.894531C10.0206 0.894608 9.66049 1.25973 9.66049 1.71096C9.66049 2.27697 9.53626 2.46348 9.33029 2.77281C9.07399 3.15707 8.72334 3.68237 8.72334 4.74905C8.72334 5.76147 9.03233 6.37456 9.27995 6.86642C9.49226 7.28886 9.66049 7.62131 9.66049 8.24151Z" fill="#4F4F4F"/>
<path d="M19.321 8.24151C19.321 8.69273 19.681 9.05786 20.126 9.05786C20.571 9.05786 20.9311 8.69273 20.9311 8.24151C20.9311 7.22909 20.6221 6.61601 20.3745 6.12415C20.1622 5.70162 19.994 5.36918 19.994 4.74898C19.994 4.18296 20.1182 3.99645 20.3242 3.68712C20.5805 3.30286 20.9311 2.77756 20.9311 1.71088C20.9311 1.25966 20.571 0.894531 20.126 0.894531C19.681 0.894608 19.321 1.25973 19.321 1.71096C19.321 2.27697 19.1967 2.46348 18.9908 2.77281C18.7345 3.15707 18.3838 3.68237 18.3838 4.74905C18.3838 5.76147 18.6928 6.37456 18.9404 6.86642C19.1527 7.28886 19.321 7.62131 19.321 8.24151Z" fill="#4F4F4F"/>
<path d="M28.9815 8.24151C28.9815 8.69273 29.3416 9.05786 29.7865 9.05786C30.2315 9.05786 30.5916 8.69273 30.5916 8.24151C30.5916 7.22909 30.2826 6.61601 30.035 6.12415C29.8227 5.70162 29.6545 5.36918 29.6545 4.74898C29.6545 4.18296 29.7787 3.99645 29.9847 3.68712C30.241 3.30286 30.5916 2.77756 30.5916 1.71088C30.5916 1.25966 30.2315 0.894531 29.7865 0.894531C29.3416 0.894531 28.9815 1.25973 28.9815 1.71096C28.9815 2.27697 28.8572 2.46348 28.6513 2.77281C28.395 3.15707 28.0443 3.68237 28.0443 4.74905C28.0443 5.76147 28.3533 6.37456 28.6009 6.86642C28.8132 7.28886 28.9815 7.62131 28.9815 8.24151Z" fill="#4F4F4F"/>
</svg>
