<svg width="35" height="21" viewBox="0 0 35 21" fill="none" xmlns="http://www.w3.org/2000/svg">
<path d="M34.3135 6.27534C34.6926 6.27534 35 5.96799 35 5.58881V0.932625C35 0.553444 34.6926 0.246094 34.3135 0.246094H0.686531C0.30735 0.246094 0 0.553444 0 0.932625V5.58881C0 5.96799 0.30735 6.27534 0.686531 6.27534C3.02998 6.27534 4.93656 8.18192 4.93656 10.5254C4.93656 12.8688 3.02998 14.7754 0.686531 14.7754C0.30735 14.7754 0 15.0827 0 15.4619V20.1181C0 20.4973 0.30735 20.8046 0.686531 20.8046H6.79054C7.16972 20.8046 7.47707 20.4973 7.47707 20.1181C7.47707 19.7389 7.16972 19.4316 6.79054 19.4316H1.37306V16.1068C4.15096 15.7671 6.30962 13.3935 6.30962 10.5254C6.30962 7.65721 4.15096 5.28359 1.37306 4.94393V1.61916H24.9525V2.99195C24.9525 3.37113 25.2599 3.67848 25.639 3.67848C26.0182 3.67848 26.3256 3.37113 26.3256 2.99195V1.61916H33.6269V4.94393C30.849 5.28359 28.6904 7.65721 28.6904 10.5254C28.6904 13.3935 30.849 15.7671 33.6269 16.1068V19.4316H26.3256V18.0585C26.3256 17.6793 26.0182 17.3723 25.639 17.3723C25.2599 17.3723 24.9525 17.6793 24.9525 18.0585V19.4316H12.4278C12.0486 19.4316 11.7413 19.7389 11.7413 20.1181C11.7413 20.4973 12.0486 20.8046 12.4278 20.8046H34.3135C34.6926 20.8046 35 20.4973 35 20.1181V15.4619C35 15.0827 34.6926 14.7754 34.3135 14.7754C31.97 14.7754 30.0634 12.8688 30.0634 10.5254C30.0634 8.18192 31.97 6.27534 34.3135 6.27534Z" fill="#4F4F4F"/>
<path d="M25.639 13.723C26.0182 13.723 26.3256 13.4157 26.3256 13.0365V8.01423C26.3256 7.63505 26.0182 7.3277 25.639 7.3277C25.2599 7.3277 24.9525 7.63505 24.9525 8.01423V13.0365C24.9525 13.4157 25.2599 13.723 25.639 13.723Z" fill="#4F4F4F"/>
<path d="M14.6193 9.55205C15.1283 9.0431 15.4086 8.36618 15.4086 7.64654C15.4086 6.92663 15.1283 6.24971 14.6193 5.74075C13.5685 4.68999 11.8587 4.68999 10.808 5.74075C10.299 6.24971 10.0187 6.92663 10.0187 7.64654C10.0187 8.36618 10.299 9.0431 10.808 9.55205C11.3335 10.0776 12.0235 10.3401 12.7138 10.3401C13.4038 10.3401 14.094 10.0776 14.6193 9.55205ZM11.3917 7.64654C11.3917 7.29326 11.5292 6.96134 11.7789 6.71167C12.0366 6.45399 12.3752 6.32501 12.7138 6.32501C13.0524 6.32501 13.3907 6.45399 13.6484 6.71167C13.8983 6.96134 14.0358 7.29326 14.0358 7.64654C14.0358 7.99955 13.8983 8.33146 13.6484 8.58114C13.133 9.09677 12.2943 9.09677 11.7789 8.58114C11.5292 8.33146 11.3917 7.99955 11.3917 7.64654Z" fill="#4F4F4F"/>
<path d="M16.9689 11.8282C15.9179 12.879 15.9179 14.5888 16.9689 15.6395C17.4941 16.165 18.1844 16.4278 18.8744 16.4278C19.5647 16.4278 20.2547 16.165 20.7802 15.6395C21.8309 14.5888 21.8309 12.879 20.7802 11.8282C19.7292 10.7775 18.0194 10.7777 16.9689 11.8282ZM19.8093 12.7991C20.3246 13.3145 20.3246 14.1532 19.8093 14.6686C19.2939 15.184 18.4552 15.1842 17.9398 14.6686C17.4242 14.1532 17.4242 13.3145 17.9398 12.7991C18.1975 12.5415 18.5358 12.4125 18.8744 12.4125C19.213 12.4125 19.5516 12.5415 19.8093 12.7991Z" fill="#4F4F4F"/>
<path d="M12.6953 14.7786L19.8458 7.62811C20.1137 7.36001 20.1137 6.92529 19.8458 6.65719C19.5775 6.38909 19.143 6.38909 18.8749 6.65719L11.7244 13.8077C11.4764 14.0558 11.4577 14.4651 11.6836 14.734C11.9391 15.0382 12.4142 15.0595 12.6953 14.7786Z" fill="#4F4F4F"/>
<path d="M9.59682 19.4246C9.31056 19.4246 9.04861 19.6094 8.95141 19.8786C8.85421 20.1472 8.93859 20.458 9.15943 20.6401C9.38079 20.8225 9.69909 20.8471 9.94583 20.7018C10.1923 20.5568 10.3253 20.2628 10.2708 19.9822C10.2091 19.6631 9.92233 19.4246 9.59682 19.4246Z" fill="#4F4F4F"/>
</svg>
