<?xml version="1.0" encoding="UTF-8" standalone="no"?>
<svg
   xmlns:dc="http://purl.org/dc/elements/1.1/"
   xmlns:cc="http://creativecommons.org/ns#"
   xmlns:rdf="http://www.w3.org/1999/02/22-rdf-syntax-ns#"
   xmlns:svg="http://www.w3.org/2000/svg"
   xmlns="http://www.w3.org/2000/svg"
   xmlns:sodipodi="http://sodipodi.sourceforge.net/DTD/sodipodi-0.dtd"
   xmlns:inkscape="http://www.inkscape.org/namespaces/inkscape"
   width="24"
   height="24"
   viewBox="0 0 24 24"
   fill="none"
   version="1.1"
   id="svg3735"
   sodipodi:docname="star.svg"
   inkscape:version="0.92.4 (5da689c313, 2019-01-14)">
  <metadata
     id="metadata3741">
    <rdf:RDF>
      <cc:Work
         rdf:about="">
        <dc:format>image/svg+xml</dc:format>
        <dc:type
           rdf:resource="http://purl.org/dc/dcmitype/StillImage" />
        <dc:title></dc:title>
      </cc:Work>
    </rdf:RDF>
  </metadata>
  <defs
     id="defs3739" />
  <sodipodi:namedview
     pagecolor="#ffffff"
     bordercolor="#666666"
     borderopacity="1"
     objecttolerance="10"
     gridtolerance="10"
     guidetolerance="10"
     inkscape:pageopacity="0"
     inkscape:pageshadow="2"
     inkscape:window-width="1920"
     inkscape:window-height="1001"
     id="namedview3737"
     showgrid="false"
     inkscape:zoom="47.611857"
     inkscape:cx="12.121797"
     inkscape:cy="13.646647"
     inkscape:window-x="-9"
     inkscape:window-y="-9"
     inkscape:window-maximized="1"
     inkscape:current-layer="svg3735" />
  <path
     d="M23.9671 9.2017C23.8883 8.96033 23.6814 8.78792 23.4302 8.74852L15.9428 7.68453L12.5735 0.911434C12.4602 0.684843 12.2287 0.541992 11.9775 0.541992C11.7263 0.541992 11.4948 0.684843 11.3815 0.91636L8.05648 7.70916L0.569134 8.82241C0.317914 8.86181 0.111026 9.03422 0.0322121 9.27559C-0.0466021 9.51696 0.0223603 9.78295 0.204618 9.95536L5.63787 15.2211L4.38177 22.6789C4.33744 22.9301 4.44088 23.1814 4.64777 23.3291C4.76106 23.4129 4.89899 23.4572 5.03691 23.4572C5.14528 23.4572 5.24873 23.4326 5.34724 23.3784L12.0317 19.8367L18.7358 23.339C18.8343 23.3883 18.9378 23.4129 19.0412 23.4129C19.4057 23.4129 19.7062 23.1124 19.7062 22.7479C19.7062 22.6937 19.7013 22.6444 19.6865 22.5952L18.391 15.1817L23.7898 9.8864C23.9819 9.70907 24.0459 9.44307 23.9671 9.2017ZM17.2186 14.4773C17.061 14.63 16.992 14.8517 17.0314 15.0684L18.1595 21.5361L12.3371 18.4968C12.145 18.3934 11.9135 18.3983 11.7164 18.4968L5.91372 21.5706L7.00234 15.0931C7.03682 14.8763 6.96786 14.6596 6.81023 14.5069L2.10108 9.93566L8.59833 8.97018C8.81507 8.9357 9.00225 8.8027 9.09584 8.60567L11.9824 2.70938L14.9084 8.59089C15.0069 8.78792 15.1941 8.92092 15.4108 8.95541L21.913 9.88147L17.2186 14.4773Z"
     fill="#DCE3EF"
     id="path3733" />
  <path
     style="fill:#000000;fill-opacity:1;stroke-width:0.02100317"
     d="m 5.9258615,21.538173 c 0,-0.01372 0.2464279,-1.491067 0.5476178,-3.282985 0.419484,-2.495706 0.5444457,-3.280149 0.5340609,-3.352548 -0.00746,-0.05198 -0.035019,-0.142038 -0.06125,-0.200123 -0.056406,-0.1249 -0.010399,-0.07914 -2.8056982,-2.790893 C 3.0374003,10.841404 2.1323936,9.9588358 2.129466,9.9503623 2.1265383,9.9418889 3.6002342,9.7156167 5.4043458,9.4475352 9.0349247,8.90805 8.8207673,8.9491266 8.9869085,8.7603801 9.0449457,8.6944465 9.4654677,7.8547435 10.514109,5.7108487 11.31002,4.0836497 11.966884,2.7454375 11.973807,2.737044 c 0.0069,-0.00839 0.678661,1.3242265 1.492752,2.9613778 1.210252,2.4338393 1.495585,2.9921721 1.564725,3.0618214 0.174305,0.1755873 -0.0265,0.1389049 3.563371,0.6509559 1.801296,0.256933 3.279822,0.4718896 3.285613,0.477681 0.0058,0.00579 -1.057804,1.0568399 -2.363547,2.3356629 -2.549074,2.496521 -2.461331,2.40332 -2.491591,2.646592 -0.01041,0.08368 0.102642,0.767972 0.556507,3.36851 0.313263,1.794921 0.565774,3.267288 0.561136,3.271926 -0.0046,0.0046 -1.269104,-0.650065 -2.809924,-1.454896 -1.540819,-0.804832 -2.880207,-1.501354 -2.976416,-1.547826 -0.156611,-0.07565 -0.191046,-0.08439 -0.328881,-0.08351 -0.117537,7.59e-4 -0.180492,0.0132 -0.266141,0.05258 -0.08216,0.03778 -5.7193009,3.01723 -5.8197971,3.075989 -0.00866,0.0051 -0.015752,-0.002 -0.015752,-0.01574 z"
     id="path4552"
     inkscape:connector-curvature="0" />
</svg>
