<svg width="11" height="12" viewBox="0 0 11 12" fill="none" xmlns="http://www.w3.org/2000/svg">
<path d="M9.79795 9.606L8.25011 7.85621C7.94181 7.50912 7.43126 7.51966 7.11222 7.88042L6.33241 8.76168C6.28314 8.73099 6.23215 8.69893 6.17853 8.66492C5.68609 8.35649 5.0121 7.93377 4.30287 7.1315C3.59153 6.32755 3.2172 5.56453 2.94351 5.00755C2.91463 4.94854 2.88696 4.89165 2.85964 4.83762L3.383 4.24691L3.64031 3.95571C3.95984 3.59443 3.96865 3.01749 3.66107 2.6694L2.11323 0.919412C1.80565 0.571804 1.29486 0.582349 0.975333 0.943627L0.539098 1.43955L0.551019 1.45293C0.404744 1.6639 0.282512 1.90723 0.19155 2.16963C0.107701 2.4194 0.0554967 2.65774 0.0316262 2.89658C-0.172756 4.81181 0.601524 6.56218 2.70282 8.9374C5.60745 12.2204 7.9482 11.9724 8.04919 11.9603C8.26912 11.9306 8.47989 11.8712 8.69409 11.7771C8.92422 11.6755 9.13934 11.5376 9.32587 11.3726L9.3354 11.3821L9.77734 10.893C10.0962 10.5318 10.1054 9.95464 9.79795 9.606Z" fill="black"/>
</svg>
