<svg width="22" height="13" viewBox="0 0 22 13" fill="none" xmlns="http://www.w3.org/2000/svg">
<path d="M10.7646 12.4998H12.0792C12.0792 12.4998 12.4766 12.4558 12.6787 12.2372C12.8658 12.0364 12.8589 11.6596 12.8589 11.6596C12.8589 11.6596 12.8328 9.89536 13.6523 9.63546C14.4595 9.37969 15.4963 11.3406 16.595 12.0955C17.4256 12.6662 18.0568 12.5411 18.0568 12.5411L20.9954 12.4998C20.9954 12.4998 22.5327 12.4049 21.8039 11.1962C21.7448 11.0972 21.379 10.3024 19.6189 8.66876C17.7762 6.95814 18.0238 7.23591 20.2432 4.27806C21.5949 2.47668 22.1353 1.37659 21.9662 0.906309C21.8053 0.458026 20.8111 0.576285 20.8111 0.576285L17.5054 0.595536C17.5054 0.595536 17.2606 0.562534 17.0777 0.671167C16.9003 0.778425 16.7862 1.02594 16.7862 1.02594C16.7862 1.02594 16.2623 2.4203 15.5637 3.60564C14.091 6.10695 13.5011 6.23896 13.2604 6.08357C12.7007 5.72192 12.841 4.62871 12.841 3.85315C12.841 1.42885 13.2082 0.418148 12.1246 0.156878C11.7643 0.0702467 11.5003 0.0124924 10.5803 0.00286669C9.4005 -0.00950923 8.4008 0.006992 7.83564 0.283388C7.45886 0.467651 7.16871 0.878807 7.3461 0.902184C7.56474 0.931061 8.05978 1.03557 8.32242 1.3931C8.66207 1.85376 8.6497 2.89058 8.6497 2.89058C8.6497 2.89058 8.84496 5.74392 8.19454 6.0987C7.74763 6.34209 7.13571 5.84568 5.82249 3.57538C5.15006 2.41342 4.64128 1.1277 4.64128 1.1277C4.64128 1.1277 4.54364 0.888433 4.36901 0.760548C4.15724 0.605162 3.86022 0.555658 3.86022 0.555658L0.716735 0.57491C0.716735 0.57491 0.245075 0.588661 0.0718123 0.793551C-0.0821991 0.97644 0.0594364 1.35322 0.0594364 1.35322C0.0594364 1.35322 2.52087 7.11077 5.30683 10.0136C7.86314 12.6744 10.7646 12.4998 10.7646 12.4998Z" fill="#1E88E5"/>
</svg>
