<svg width="36" height="36" viewBox="0 0 36 36" fill="none" xmlns="http://www.w3.org/2000/svg">
<g clip-path="url(#clip0)">
<path d="M23.5411 16.3823L15.5879 12.0306C15.1306 11.7804 14.5901 11.7898 14.1418 12.0554C13.6933 12.3212 13.4258 12.7909 13.4258 13.3122V21.9408C13.4258 22.4597 13.6916 22.9285 14.1371 23.1946C14.3698 23.3336 14.6277 23.4034 14.8861 23.4034C15.1229 23.4034 15.3602 23.3449 15.5785 23.2273L23.5321 18.9506C24.0042 18.6966 24.2989 18.2058 24.3011 17.6694C24.303 17.1329 24.0119 16.6399 23.5411 16.3823ZM15.5354 20.8554V14.4064L21.4795 17.6589L15.5354 20.8554Z" fill="white"/>
<path d="M35.7351 10.7949L35.7334 10.7784C35.703 10.4886 35.3995 7.91124 34.1465 6.6003C32.6982 5.05838 31.0563 4.87106 30.2667 4.78125C30.2013 4.77383 30.1414 4.76697 30.0879 4.75983L30.025 4.75323C25.2657 4.40717 18.0782 4.35992 18.0062 4.35965L17.9999 4.35938L17.9936 4.35965C17.9217 4.35992 10.7341 4.40717 5.93204 4.75323L5.8686 4.75983C5.81751 4.76669 5.76121 4.77301 5.69996 4.78015C4.91938 4.87024 3.29506 5.05783 1.84267 6.65551C0.649289 7.95244 0.30432 10.4746 0.268889 10.7581L0.264769 10.7949C0.254058 10.9154 0 13.7859 0 16.6676V19.3614C0 22.2431 0.254058 25.1136 0.264769 25.2344L0.266692 25.2525C0.297179 25.5376 0.600401 28.0678 1.84762 29.3793C3.20937 30.8696 4.93119 31.0668 5.85734 31.1728C6.00373 31.1895 6.1298 31.2038 6.21577 31.2189L6.29899 31.2305C9.04693 31.4919 17.6627 31.6207 18.0279 31.626L18.0389 31.6262L18.0499 31.626C18.1219 31.6257 25.3091 31.5784 30.0684 31.2324L30.1313 31.2258C30.1914 31.2178 30.259 31.2107 30.3331 31.203C31.1093 31.1206 32.7248 30.9495 34.1572 29.3735C35.3506 28.0763 35.6958 25.5541 35.731 25.2709L35.7351 25.2341C35.7458 25.1133 36.0001 22.2431 36.0001 19.3614V16.6676C35.9999 13.7859 35.7458 10.9157 35.7351 10.7949ZM33.8902 19.3614C33.8902 22.0286 33.6573 24.7755 33.6353 25.0276C33.5458 25.7222 33.1819 27.318 32.6004 27.95C31.7039 28.9362 30.783 29.034 30.1107 29.1052C30.0294 29.1137 29.9541 29.1219 29.886 29.1304C25.2827 29.4633 18.3666 29.5144 18.048 29.5163C17.6907 29.5111 9.20101 29.3812 6.53684 29.1337C6.40033 29.1115 6.25284 29.0944 6.09739 29.0769C5.30885 28.9865 4.22944 28.8629 3.39943 27.95L3.37993 27.9291C2.80864 27.3339 2.45516 25.8417 2.36535 25.0358C2.34859 24.8452 2.10964 22.066 2.10964 19.3614V16.6676C2.10964 14.0034 2.342 11.2596 2.36452 11.0022C2.47136 10.184 2.84215 8.68495 3.39943 8.07906C4.32338 7.06283 5.29759 6.95022 5.94193 6.87578C6.00346 6.86864 6.06086 6.86205 6.11387 6.85518C10.7841 6.52065 17.75 6.47094 17.9999 6.46902C18.2499 6.47066 25.2132 6.52065 29.842 6.85518C29.8989 6.86233 29.961 6.86947 30.0277 6.87716C30.6905 6.95269 31.6921 7.06694 32.6114 8.04747L32.6199 8.05653C33.1912 8.65172 33.5447 10.17 33.6345 10.9921C33.6504 11.172 33.8902 13.9573 33.8902 16.6676V19.3614Z" fill="white"/>
</g>
<defs>
<clipPath id="clip0">
<rect width="36" height="35.9999" fill="white"/>
</clipPath>
</defs>
</svg>
