<svg width="43" height="52" viewBox="0 0 43 52" fill="none" xmlns="http://www.w3.org/2000/svg">
<path d="M37.4375 51.0032H5.5625C2.63425 51.0032 0.25 48.6189 0.25 45.6907V5.31567C0.25 2.38742 2.63425 0.00317383 5.5625 0.00317383H37.4375C40.3658 0.00317383 42.75 2.38742 42.75 5.31567V45.6907C42.75 48.6189 40.3658 51.0032 37.4375 51.0032ZM5.5625 2.12817C3.80513 2.12817 2.375 3.5583 2.375 5.31567V45.6907C2.375 47.448 3.80513 48.8782 5.5625 48.8782H37.4375C39.1949 48.8782 40.625 47.448 40.625 45.6907V5.31567C40.625 3.5583 39.1949 2.12817 37.4375 2.12817H5.5625Z" fill="#3434F4"/>
<path d="M35.3124 42.5032H31.0624C29.3051 42.5032 27.8749 41.0731 27.8749 39.3157V32.9407C27.8749 31.1834 29.3051 29.7532 31.0624 29.7532H35.3124C35.8989 29.7532 36.3749 30.2292 36.3749 30.8157C36.3749 31.4022 35.8989 31.8782 35.3124 31.8782H31.0624C30.4759 31.8782 29.9999 32.3542 29.9999 32.9407V39.3157C29.9999 39.9022 30.4759 40.3782 31.0624 40.3782H35.3124C35.8989 40.3782 36.3749 40.8542 36.3749 41.4407C36.3749 42.0272 35.8989 42.5032 35.3124 42.5032Z" fill="#3434F4"/>
<path d="M11.9375 42.5032H7.6875C7.101 42.5032 6.625 42.0272 6.625 41.4407V30.8157C6.625 30.2292 7.101 29.7532 7.6875 29.7532H11.9375C13.6949 29.7532 15.125 31.1834 15.125 32.9407V39.3157C15.125 41.0731 13.6949 42.5032 11.9375 42.5032ZM8.75 40.3782H11.9375C12.524 40.3782 13 39.9022 13 39.3157V32.9407C13 32.3542 12.524 31.8782 11.9375 31.8782H8.75V40.3782Z" fill="#3434F4"/>
<path d="M22.5624 42.5032H20.4374C18.68 42.5032 17.2499 41.0731 17.2499 39.3157V32.9407C17.2499 31.1834 18.68 29.7532 20.4374 29.7532H22.5624C24.3197 29.7532 25.7499 31.1834 25.7499 32.9407V39.3157C25.7499 41.0731 24.3197 42.5032 22.5624 42.5032ZM20.4374 31.8782C19.8509 31.8782 19.3749 32.3542 19.3749 32.9407V39.3157C19.3749 39.9022 19.8509 40.3782 20.4374 40.3782H22.5624C23.1489 40.3782 23.6249 39.9022 23.6249 39.3157V32.9407C23.6249 32.3542 23.1489 31.8782 22.5624 31.8782H20.4374Z" fill="#3434F4"/>
</svg>
