<svg width="41" height="52" viewBox="0 0 41 52" fill="none" xmlns="http://www.w3.org/2000/svg">
<path d="M28.956 0.881854C28.3934 0.319244 27.6303 0.00317383 26.8347 0.00317383H3.52539C1.86854 0.00317383 0.525391 1.34632 0.525391 3.00317V48.0032C0.525391 49.66 1.86854 51.0032 3.52539 51.0032H37.4754C39.1322 51.0032 40.4754 49.66 40.4754 48.0032V13.6439C40.4754 12.8483 40.1593 12.0852 39.5967 11.5226L28.956 0.881854ZM28.5754 9.26769C28.5754 6.91973 31.4142 5.74386 33.0744 7.40413C34.7347 9.06439 33.5588 11.9032 31.2109 11.9032C29.7553 11.9032 28.5754 10.7232 28.5754 9.26769ZM5.22539 49.3032C3.56853 49.3032 2.22539 47.96 2.22539 46.3032V4.70318C2.22539 3.04632 3.56854 1.70317 5.22539 1.70317H23.8754C25.5322 1.70317 26.8754 3.04632 26.8754 4.70317V10.6032C26.8754 12.26 28.2185 13.6032 29.8754 13.6032H35.7754C37.4322 13.6032 38.7754 14.9463 38.7754 16.6032V46.3032C38.7754 47.96 37.4322 49.3032 35.7754 49.3032H5.22539Z" fill="#3434F4"/>
<path d="M31.1254 17.8532H17.5254C17.0562 17.8532 16.6754 18.2331 16.6754 18.7032C16.6754 19.1732 17.0562 19.5532 17.5254 19.5532H31.1254C31.5946 19.5532 31.9754 19.1732 31.9754 18.7032C31.9754 18.2331 31.5946 17.8532 31.1254 17.8532Z" fill="#3434F4"/>
<path d="M14.4441 15.4893L12.0714 17.3876C11.3409 17.972 10.2878 17.9137 9.62634 17.2522C9.29399 16.9199 8.75679 16.9199 8.42444 17.2522C8.09209 17.5846 8.09209 18.1218 8.42444 18.4541L10.1244 20.1541C10.2893 20.319 10.5069 20.4032 10.7254 20.4032C10.9124 20.4032 11.1002 20.342 11.2558 20.217L15.5058 16.817C15.873 16.5229 15.9316 15.9883 15.6384 15.6219C15.346 15.2547 14.8105 15.1961 14.4441 15.4893Z" fill="#3434F4"/>
<path d="M31.1254 27.2032H17.5254C17.0562 27.2032 16.6754 27.5831 16.6754 28.0532C16.6754 28.5232 17.0562 28.9032 17.5254 28.9032H31.1254C31.5946 28.9032 31.9754 28.5232 31.9754 28.0532C31.9754 27.5831 31.5946 27.2032 31.1254 27.2032Z" fill="#3434F4"/>
<path d="M14.4441 24.8393L12.0714 26.7376C11.3409 27.322 10.2878 27.2637 9.62634 26.6022C9.29399 26.2699 8.75679 26.2699 8.42444 26.6022C8.09209 26.9346 8.09209 27.4718 8.42444 27.8041L10.1244 29.5041C10.2893 29.669 10.5069 29.7532 10.7254 29.7532C10.9124 29.7532 11.1002 29.692 11.2558 29.567L15.5058 26.167C15.873 25.8729 15.9316 25.3383 15.6384 24.9719C15.346 24.6047 14.8105 24.5461 14.4441 24.8393Z" fill="#3434F4"/>
<path d="M31.1254 36.5532H17.5254C17.0562 36.5532 16.6754 36.9331 16.6754 37.4032C16.6754 37.8732 17.0562 38.2532 17.5254 38.2532H31.1254C31.5946 38.2532 31.9754 37.8732 31.9754 37.4032C31.9754 36.9331 31.5946 36.5532 31.1254 36.5532Z" fill="#3434F4"/>
<path d="M14.4441 34.1893L12.0714 36.0876C11.3409 36.672 10.2878 36.6137 9.62634 35.9522C9.29399 35.6199 8.75679 35.6199 8.42444 35.9522C8.09209 36.2846 8.09209 36.8218 8.42444 37.1541L10.1244 38.8541C10.2893 39.019 10.5069 39.1032 10.7254 39.1032C10.9124 39.1032 11.1002 39.042 11.2558 38.917L15.5058 35.517C15.873 35.2229 15.9316 34.6883 15.6384 34.3219C15.346 33.9547 14.8105 33.8961 14.4441 34.1893Z" fill="#3434F4"/>
<path d="M28.5754 9.26769C28.5754 6.91973 31.4142 5.74386 33.0744 7.40413C34.7347 9.06439 33.5588 11.9032 31.2109 11.9032C29.7553 11.9032 28.5754 10.7232 28.5754 9.26769Z" fill="#3434F4"/>
</svg>
