<svg width="45" height="56" viewBox="0 0 45 56" fill="none" xmlns="http://www.w3.org/2000/svg">
<path d="M10.1021 36.6698H21.1225C21.3661 36.6698 21.5997 36.5732 21.7719 36.4013C21.9441 36.2294 22.0409 35.9963 22.0409 35.7532V32.5448C22.0388 31.6913 21.8388 30.8499 21.4564 30.0865C21.074 29.3231 20.5196 28.6585 19.8368 28.1448L18.8478 27.4044C19.1359 26.8715 19.2864 26.2754 19.2858 25.6698V21.364C19.2858 20.816 19.1368 20.2783 18.8547 19.8082C18.5725 19.3382 18.1679 18.9533 17.6839 18.6947C17.1998 18.4362 16.6546 18.3136 16.1062 18.34C15.5578 18.3665 15.027 18.541 14.5702 18.845L12.3478 20.3238C12.222 20.4075 12.1188 20.5209 12.0475 20.654C11.9762 20.787 11.9388 20.9356 11.9388 21.0865V25.6698C11.9382 26.2754 12.0887 26.8715 12.3768 27.4044L11.3878 28.1448C10.705 28.6585 10.1506 29.3231 9.76823 30.0865C9.38583 30.8499 9.18577 31.6913 9.18374 32.5448V35.7532C9.18375 35.9963 9.28051 36.2294 9.45274 36.4013C9.62496 36.5732 9.85854 36.6698 10.1021 36.6698ZM15.6123 27.5032C15.1253 27.5026 14.6585 27.3093 14.3142 26.9656C13.9698 26.6219 13.7761 26.1559 13.7756 25.6698V23.8365H17.449V25.6698C17.4485 26.1559 17.2548 26.6219 16.9105 26.9656C16.5661 27.3093 16.0993 27.5026 15.6123 27.5032ZM13.7756 21.5771L15.5891 20.3702C15.7693 20.2504 15.9787 20.1816 16.195 20.1712C16.4113 20.1608 16.6263 20.2092 16.8172 20.3112C17.0081 20.4132 17.1677 20.565 17.279 20.7504C17.3902 20.9358 17.449 21.1479 17.449 21.364V22.0032H13.7756V21.5771ZM11.0205 32.5448C11.0218 31.9759 11.1552 31.4149 11.4101 30.906C11.665 30.3971 12.0346 29.954 12.4898 29.6116L13.6326 28.756C13.9594 28.9662 14.3177 29.123 14.6939 29.2205V31.1698H16.5307V29.2205C16.9069 29.123 17.2652 28.9662 17.592 28.756L18.7348 29.6116C19.19 29.954 19.5596 30.3971 19.8145 30.906C20.0694 31.4149 20.2028 31.9759 20.2041 32.5448V34.8365H16.5307V33.0032H14.6939V34.8365H11.0205V32.5448Z" fill="#3434F4"/>
<path d="M42.2449 0.00317383H25.7143C24.9839 0.00400781 24.2836 0.294007 23.7671 0.809551C23.2506 1.3251 22.96 2.02408 22.9592 2.75317V3.66984H20.2041C19.4736 3.67067 18.7734 3.96067 18.2569 4.47622C17.7404 4.99176 17.4498 5.69075 17.449 6.41984V8.25317H15.6123C14.8818 8.25401 14.1815 8.54401 13.665 9.05955C13.1485 9.5751 12.858 10.2741 12.8572 11.0032V12.8365H10.3249C9.84231 12.8352 9.36423 12.9294 8.91835 13.1137C8.47248 13.2981 8.06766 13.5688 7.72732 13.9104L1.07589 20.5495C0.733711 20.8892 0.462434 21.2933 0.277759 21.7383C0.0930851 22.1834 -0.0013183 22.6606 1.39056e-05 23.1423V52.2532C0.000849435 52.9823 0.291386 53.6813 0.807887 54.1968C1.32439 54.7123 2.02467 55.0023 2.75512 55.0032H28.4694C29.1998 55.0023 29.9001 54.7123 30.4166 54.1968C30.9331 53.6813 31.2237 52.9823 31.2245 52.2532V49.5032H33.0612C33.7917 49.5023 34.492 49.2123 35.0085 48.6968C35.525 48.1813 35.8155 47.4823 35.8163 46.7532V44.9198H37.6531C38.3835 44.919 39.0838 44.629 39.6003 44.1135C40.1168 43.5979 40.4073 42.8989 40.4082 42.1698V22.0032H42.2449C42.9753 22.0023 43.6756 21.7123 44.1921 21.1968C44.7086 20.6813 44.9992 19.9823 45 19.2532V2.75317C44.9992 2.02408 44.7086 1.3251 44.1921 0.809551C43.6756 0.294007 42.9753 0.00400781 42.2449 0.00317383ZM19.2857 6.41984C19.286 6.17681 19.3828 5.94381 19.555 5.77197C19.7272 5.60012 19.9606 5.50345 20.2041 5.50317H22.9592V8.25317H19.2857V6.41984ZM14.6939 11.0032C14.6942 10.7601 14.791 10.5271 14.9632 10.3553C15.1353 10.1835 15.3688 10.0868 15.6123 10.0865H22.9592V12.8365H14.6939V11.0032ZM28.4694 53.1698H2.75512C2.51163 53.1696 2.27821 53.0729 2.10604 52.9011C1.93387 52.7292 1.83703 52.4962 1.83675 52.2532V23.1423C1.83608 22.9014 1.88329 22.6628 1.97563 22.4403C2.06798 22.2178 2.20364 22.0158 2.37474 21.846L9.02618 15.2068C9.19632 15.036 9.39872 14.9006 9.62165 14.8085C9.84458 14.7163 10.0836 14.6692 10.3249 14.6698H22.9592V19.2532C22.96 19.9823 23.2506 20.6813 23.7671 21.1968C24.2836 21.7123 24.9839 22.0023 25.7143 22.0032H29.3878V52.2532C29.3875 52.4962 29.2906 52.7292 29.1185 52.9011C28.9463 53.0729 28.7129 53.1696 28.4694 53.1698ZM33.0612 47.6698H31.2245V22.0032H33.9796V46.7532C33.9793 46.9962 33.8825 47.2292 33.7103 47.4011C33.5381 47.5729 33.3047 47.6696 33.0612 47.6698ZM38.5714 42.1698C38.5712 42.4129 38.4743 42.6459 38.3021 42.8177C38.13 42.9896 37.8965 43.0862 37.6531 43.0865H35.8163V22.0032H38.5714V42.1698ZM43.1633 19.2532C43.163 19.4962 43.0661 19.7292 42.894 19.9011C42.7218 20.0729 42.4884 20.1696 42.2449 20.1698H25.7143C25.4708 20.1696 25.2374 20.0729 25.0652 19.9011C24.893 19.7292 24.7962 19.4962 24.7959 19.2532V2.75317C24.7962 2.51014 24.893 2.27715 25.0652 2.1053C25.2374 1.93345 25.4708 1.83679 25.7143 1.83651H42.2449C42.4884 1.83679 42.7218 1.93345 42.894 2.1053C43.0661 2.27715 43.163 2.51014 43.1633 2.75317V19.2532Z" fill="#3434F4"/>
<path d="M40.4083 7.33651H36.4382L34.8324 3.32946C34.7642 3.15934 34.6466 3.01352 34.4946 2.9108C34.3426 2.80808 34.1632 2.75318 33.9797 2.75318C33.7962 2.75318 33.6168 2.80808 33.4648 2.9108C33.3128 3.01352 33.1952 3.15934 33.127 3.32946L31.5212 7.33651H27.5511C27.3695 7.33653 27.1919 7.39031 27.0409 7.49104C26.8899 7.59177 26.7722 7.73493 26.7027 7.90242C26.6332 8.06992 26.615 8.25422 26.6504 8.43204C26.6858 8.60985 26.7733 8.77319 26.9017 8.90141L30.1738 12.1675L28.5166 17.1299C28.4539 17.3176 28.4537 17.5205 28.5161 17.7083C28.5784 17.896 28.7 18.0587 28.8625 18.1718C29.0251 18.285 29.22 18.3426 29.4181 18.3361C29.6162 18.3296 29.8069 18.2593 29.9616 18.1357L33.9797 14.9271L37.9978 18.1357C38.1525 18.2593 38.3432 18.3296 38.5413 18.3361C38.7394 18.3426 38.9343 18.285 39.0969 18.1718C39.2594 18.0587 39.381 17.8961 39.4433 17.7083C39.5057 17.5205 39.5055 17.3176 39.4428 17.1299L37.7856 12.1675L41.0577 8.90141C41.1861 8.7732 41.2736 8.60986 41.309 8.43204C41.3444 8.25423 41.3262 8.06992 41.2567 7.90242C41.1872 7.73493 41.0695 7.59176 40.9185 7.49103C40.7675 7.3903 40.5899 7.33653 40.4083 7.33651ZM36.0854 11.2716C35.9648 11.392 35.8801 11.5436 35.841 11.7093C35.8018 11.8749 35.8096 12.0483 35.8635 12.2098L36.7169 14.765L34.5535 13.0374C34.3906 12.9073 34.1882 12.8365 33.9797 12.8365C33.7711 12.8365 33.5688 12.9073 33.4059 13.0374L31.2425 14.765L32.0959 12.2098C32.1498 12.0483 32.1576 11.8749 32.1184 11.7093C32.0792 11.5436 31.9946 11.392 31.874 11.2716L29.7682 9.16985H32.143C32.3265 9.16986 32.5059 9.11497 32.6578 9.01225C32.8098 8.90952 32.9275 8.76369 32.9956 8.59357L33.9797 6.13809L34.9638 8.59357C35.0319 8.76369 35.1496 8.90952 35.3015 9.01225C35.4535 9.11497 35.6329 9.16986 35.8164 9.16985H38.1912L36.0854 11.2716Z" fill="#3434F4"/>
<path d="M26.6327 42.1698H20.2041V44.0032H26.6327V42.1698Z" fill="#3434F4"/>
<path d="M18.3674 42.1698H15.6123V44.0032H18.3674V42.1698Z" fill="#3434F4"/>
<path d="M26.6327 45.8365H22.9592V47.6698H26.6327V45.8365Z" fill="#3434F4"/>
<path d="M21.1225 45.8365H13.7756V47.6698H21.1225V45.8365Z" fill="#3434F4"/>
<path d="M12.2078 38.7716L10.64 40.3365H5.51027C5.26671 40.3365 5.03313 40.4331 4.8609 40.605C4.68868 40.7769 4.59192 41.0101 4.5919 41.2532V46.7532C4.59192 46.9963 4.68868 47.2294 4.8609 47.4013C5.03313 47.5732 5.26671 47.6698 5.51027 47.6698H11.0205C11.264 47.6698 11.4976 47.5732 11.6698 47.4013C11.8421 47.2294 11.9388 46.9963 11.9388 46.7532V41.633L13.5066 40.0681L12.2078 38.7716ZM10.1021 45.8365H6.42864V42.1698H8.80325L7.61595 43.355L8.9148 44.6514L10.1021 43.4663V45.8365Z" fill="#3434F4"/>
<path d="M36.0854 11.2716C35.9648 11.392 35.8801 11.5436 35.841 11.7093C35.8018 11.8749 35.8096 12.0483 35.8635 12.2098L36.7169 14.765L34.5535 13.0374C34.3906 12.9073 34.1882 12.8365 33.9797 12.8365C33.7711 12.8365 33.5688 12.9073 33.4059 13.0374L31.2425 14.765L32.0959 12.2098C32.1498 12.0483 32.1576 11.8749 32.1184 11.7093C32.0792 11.5436 31.9946 11.392 31.874 11.2716L29.7682 9.16985H32.143C32.3265 9.16986 32.5059 9.11497 32.6578 9.01225C32.8098 8.90952 32.9275 8.76369 32.9956 8.59357L33.9797 6.13809L34.9638 8.59357C35.0319 8.76369 35.1496 8.90952 35.3015 9.01225C35.4535 9.11497 35.6329 9.16986 35.8164 9.16985H38.1912L36.0854 11.2716Z" fill="#3434F4"/>
</svg>
