<svg width="45" height="53" viewBox="0 0 45 53" fill="none" xmlns="http://www.w3.org/2000/svg">
<path d="M18.0511 45.4874C17.6888 43.465 16.2634 41.7732 14.3314 41.0719L12.6899 40.4767V37.8217C12.6993 37.8127 12.709 37.8043 12.7183 37.7952C13.7073 36.8251 14.2745 35.4793 14.2745 34.1029V31.0448C14.2745 30.7084 14.2407 30.3798 14.1774 30.0616C15.6701 29.7053 16.7835 28.3614 16.7835 26.7612C16.7835 24.8906 15.2611 23.3687 13.3897 23.3687C11.753 23.3687 10.3832 24.533 10.0655 26.0765C9.79491 26.0314 9.51765 26.0068 9.23449 26.0068C6.45543 26.0068 4.19455 28.2669 4.19455 31.0448V34.1987C4.19455 35.6294 4.80616 36.9312 5.78086 37.8533V40.5191L4.21842 41.0855C2.3125 41.7772 0.892145 43.4428 0.511691 45.4325L0.0643087 47.7691C-0.13648 48.8158 0.137941 49.8874 0.817191 50.7093C1.49695 51.5314 2.49886 52.0032 3.56598 52.0032H14.9572C16.0156 52.0032 17.0122 51.5376 17.6915 50.7259C18.3704 49.9147 18.653 48.8523 18.4666 47.8113L18.0511 45.4874ZM13.3897 24.8921C14.4211 24.8921 15.2601 25.7306 15.2601 26.7612C15.2601 27.7053 14.5562 28.4862 13.646 28.6117C13.1608 27.7362 12.4224 27.0204 11.5304 26.5621C11.6302 25.6248 12.4258 24.8921 13.3897 24.8921ZM5.71809 31.0448C5.71809 29.1069 7.29556 27.5303 9.23459 27.5303C11.1736 27.5303 12.7511 29.1069 12.7511 31.0448V31.1616C12.5818 31.271 12.4023 31.3655 12.2134 31.441C10.9513 31.9462 9.51886 31.5844 8.64898 30.5406C8.37964 30.2174 7.89925 30.1739 7.57618 30.4431C7.253 30.7123 7.20933 31.1927 7.47868 31.5159C8.38309 32.6012 9.69619 33.1908 11.0459 33.1908C11.6171 33.1908 12.195 33.0844 12.7511 32.866V34.1029C12.7511 35.0728 12.3503 36.0222 11.6515 36.7077C10.9724 37.3737 10.0891 37.733 9.16543 37.7127C7.26458 37.6762 5.71809 36.0996 5.71809 34.1985V31.0448ZM9.13597 39.2361C9.16807 39.2367 9.20006 39.237 9.23215 39.237C9.9049 39.237 10.5595 39.0997 11.1664 38.8393V40.6717L9.23459 42.3572L7.30439 40.6716V38.8473C7.87121 39.0854 8.48902 39.2236 9.13597 39.2361ZM9.24038 48.6805L8.27645 45.799L9.21062 44.6229L10.0727 45.7974L9.24038 48.6805ZM1.99156 49.7385C1.60278 49.2682 1.44576 48.6549 1.56063 48.0557L2.00811 45.7186C2.28822 44.2535 3.33432 43.0268 4.73791 42.5174L6.40841 41.9119L8.18575 43.4638L6.82644 45.1749C6.66608 45.3767 6.61875 45.646 6.7005 45.8903L8.23582 50.4797H3.56598C2.95468 50.4797 2.38085 50.2096 1.99156 49.7385ZM16.5232 49.7482C16.1341 50.2131 15.5634 50.4797 14.9572 50.4797H10.3065L11.6401 45.8601C11.7057 45.6332 11.6621 45.3885 11.5224 45.1981L10.2627 43.4818L12.0964 41.882L13.8117 42.504C15.2348 43.0205 16.2846 44.2666 16.5515 45.756L16.9671 48.0796C17.0738 48.6755 16.912 49.2837 16.5232 49.7482Z" fill="#3434F4"/>
<path d="M44.0859 47.811L43.6694 45.488C43.3081 43.4652 41.8827 41.7731 39.9496 41.072L38.3091 40.4769V37.8216C38.3183 37.8127 38.328 37.8043 38.3371 37.7953C39.3261 36.8252 39.8933 35.4794 39.8933 34.103V31.045C39.8933 28.2669 37.6325 26.0069 34.8534 26.0069C32.0743 26.0069 29.8135 28.267 29.8135 31.045V34.1988C29.8135 35.6296 30.4252 36.9315 31.4001 37.8537V40.5195L29.8376 41.0856C27.9317 41.7773 26.5114 43.4429 26.131 45.4323L25.6824 47.7697C25.4823 48.8166 25.7572 49.8883 26.4367 50.7099C27.1165 51.5319 28.1183 52.0034 29.1851 52.0034H40.5763C41.6347 52.0034 42.6314 51.5378 43.3106 50.7261C43.9899 49.9147 44.2724 48.8523 44.0859 47.811ZM31.3371 31.0449C31.3371 29.1069 32.9146 27.5303 34.8536 27.5303C36.595 27.5303 38.044 28.8023 38.3215 30.4652C38.0863 30.5933 37.8385 30.7107 37.5812 30.8137C36.1254 31.3964 34.8409 31.3609 34.3715 31.0319C34.0271 30.7902 33.5521 30.8736 33.3106 31.2182C33.0691 31.5627 33.1524 32.0376 33.4969 32.2791C33.9836 32.6204 34.667 32.7906 35.4512 32.7906C36.2755 32.7906 37.2112 32.6026 38.1473 32.228C38.2223 32.1979 38.2963 32.1661 38.3701 32.1342V34.1029C38.3701 35.0728 37.9693 36.0222 37.2705 36.7077C36.5915 37.3737 35.7094 37.7331 34.7844 37.7127C32.8836 37.6762 31.3371 36.0996 31.3371 34.1985V31.0449ZM34.755 39.2361C34.7871 39.2367 34.8191 39.237 34.8512 39.237C35.524 39.237 36.1787 39.0996 36.7857 38.8392V40.6498C35.6378 41.4642 34.0724 41.465 32.9237 40.6489V38.8474C33.4904 39.0855 34.1081 39.2236 34.755 39.2361ZM42.1425 49.7482C41.7535 50.2132 41.1827 50.4798 40.5765 50.4798H29.1853C28.5741 50.4798 28.0004 50.2097 27.611 49.7388C27.2219 49.2683 27.0645 48.6548 27.1789 48.056L27.6275 45.7186C27.9076 44.2535 28.9537 43.0268 30.3571 42.5176L32.057 41.9017C32.8905 42.4885 33.8727 42.7815 34.8549 42.7815C35.8532 42.7815 36.8513 42.4787 37.6929 41.8738L39.4303 42.5041C40.8541 43.0204 41.9039 44.2665 42.17 45.7562L42.5865 48.0795C42.6931 48.6755 42.5313 49.2838 42.1425 49.7482Z" fill="#3434F4"/>
<path d="M6.21728 18.7324H8.2984V22.217C8.2984 22.5251 8.48395 22.8028 8.76853 22.9208C9.053 23.0387 9.38075 22.9736 9.5986 22.7558L13.6236 18.7325H30.0799L34.1049 22.7558C34.2507 22.9015 34.4455 22.9787 34.6436 22.9787C34.7417 22.9787 34.8407 22.9598 34.9351 22.9208C35.2197 22.8028 35.4052 22.5251 35.4052 22.217V18.7324H37.4863C40.2687 18.7324 42.5322 16.4698 42.5322 13.6885V5.04717C42.5322 2.26588 40.2687 0.00317383 37.4863 0.00317383H6.21728C3.43497 0.00317383 1.17145 2.26578 1.17145 5.04707V13.6885C1.17145 16.4698 3.43497 18.7324 6.21728 18.7324ZM2.69489 5.04707C2.69489 3.10591 4.275 1.52661 6.21728 1.52661H37.4863C39.4286 1.52661 41.0087 3.10591 41.0087 5.04717V13.6885C41.0087 15.6297 39.4286 17.209 37.4863 17.209H35.1056C34.4308 17.209 33.8818 17.7578 33.8818 18.4326V20.3786L31.0691 17.5672C30.838 17.3362 30.5307 17.209 30.2039 17.209H13.4997C13.1729 17.209 12.8657 17.3362 12.6344 17.5672L9.82183 20.3786V18.4326C9.82183 17.7578 9.27289 17.209 8.598 17.209H6.21728C4.275 17.209 2.69489 15.6297 2.69489 13.6885V5.04707Z" fill="#3434F4"/>
<path d="M11.6423 15.3606C12.063 15.3606 12.404 15.0196 12.404 14.5988V13.9655C12.404 13.6004 12.7013 13.3033 13.0667 13.3033H13.8635C14.4029 13.3033 14.8734 12.9574 15.0343 12.4426C15.1625 12.0327 15.3294 11.6308 15.5306 11.2478C15.782 10.7694 15.6941 10.1914 15.3122 9.80955L14.7479 9.24548C14.6228 9.12045 14.5539 8.9543 14.5539 8.77748C14.5539 8.60076 14.6228 8.4345 14.7479 8.30948L15.6442 7.41369C15.9025 7.15542 16.3231 7.15532 16.5816 7.4138L17.1459 7.97787C17.5276 8.35944 18.1055 8.4474 18.5838 8.19603C18.9667 7.99514 19.3689 7.82827 19.7792 7.6999C20.2942 7.53902 20.6402 7.06848 20.6402 6.52929V5.73284C20.6402 5.36772 20.9375 5.07075 21.3029 5.07075H22.5703C22.9358 5.07075 23.233 5.36772 23.233 5.73284V6.52929C23.233 7.06859 23.579 7.53902 24.094 7.6999C24.5044 7.82827 24.9066 7.99514 25.2892 8.19593C25.7673 8.44709 26.3454 8.35944 26.7273 7.97787L27.2918 7.41369C27.5501 7.15542 27.9707 7.15532 28.2292 7.4138L29.1253 8.30948C29.2504 8.4344 29.3193 8.60065 29.3193 8.77748C29.3193 8.9543 29.2504 9.12055 29.1253 9.24548L28.5609 9.80955C28.1789 10.1914 28.0912 10.7694 28.3424 11.2479C28.5435 11.6308 28.7106 12.0327 28.8387 12.4424C28.9996 12.9573 29.4702 13.3033 30.0096 13.3033H30.8063C31.1718 13.3033 31.469 13.6004 31.469 13.9655V14.5988C31.469 15.0196 31.8101 15.3606 32.2308 15.3606C32.6514 15.3606 32.9925 15.0196 32.9925 14.5988V13.9655C32.9925 12.7604 32.0118 11.7799 30.8063 11.7799H30.2248C30.1033 11.4236 29.9579 11.0734 29.7905 10.7346L30.2022 10.3231C30.6152 9.9103 30.8427 9.36136 30.8427 8.77748C30.8427 8.19359 30.6152 7.64475 30.2022 7.2319L29.3062 6.33622C28.4537 5.48411 27.0669 5.48401 26.2147 6.33622L25.8027 6.74805C25.4635 6.58088 25.1131 6.43534 24.7564 6.31387V5.73284C24.7564 4.5278 23.7757 3.54731 22.5702 3.54731H21.3028C20.0974 3.54731 19.1167 4.5277 19.1167 5.73284V6.31387C18.76 6.43534 18.4097 6.58078 18.0704 6.74805L17.6585 6.33622C16.806 5.48411 15.4192 5.48401 14.567 6.33622L13.6708 7.2319C13.2579 7.64475 13.0304 8.19369 13.0304 8.77748C13.0304 9.36136 13.2578 9.9102 13.6708 10.3231L14.0825 10.7346C13.9153 11.0735 13.7697 11.4236 13.6483 11.7799H13.0667C11.8613 11.7799 10.8806 12.7603 10.8806 13.9655V14.5988C10.8806 15.0196 11.2216 15.3606 11.6423 15.3606Z" fill="#3434F4"/>
<path d="M21.9367 9.49247C19.12 9.49247 16.8284 11.7832 16.8284 14.5988C16.8284 15.0196 17.1695 15.3606 17.5902 15.3606C18.0108 15.3606 18.3519 15.0196 18.3519 14.5988C18.3519 12.6232 19.96 11.0159 21.9367 11.0159C23.9133 11.0159 25.5215 12.6232 25.5215 14.5988C25.5215 15.0196 25.8625 15.3606 26.2832 15.3606C26.7039 15.3606 27.0449 15.0196 27.0449 14.5988C27.0449 11.7831 24.7534 9.49247 21.9367 9.49247Z" fill="#3434F4"/>
</svg>
