<svg width="50" height="47" viewBox="0 0 50 47" fill="none" xmlns="http://www.w3.org/2000/svg">
<path d="M38.1322 46.9909C36.1436 46.9909 33.8406 46.3621 31.1946 45.1065C28.2424 43.7059 26.8193 43.7549 25.8781 43.7998C25.1207 43.8223 24.3305 43.859 23.5506 43.0791C23.277 42.8055 22.0337 41.3151 24.4775 38.8712C25.6964 37.6524 27.3685 37.3012 28.8202 37.2808L20.3554 28.816C19.794 28.2566 19.4836 27.5073 19.4857 26.7131C19.4877 25.9189 19.798 25.1737 20.3615 24.6122C20.925 24.0508 21.6702 23.7384 22.4645 23.7364H22.4685C23.2607 23.7364 24.0059 24.0447 24.5674 24.6082L28.0831 28.1259C28.224 27.8442 28.4118 27.5849 28.6405 27.3583C29.447 26.5498 30.6025 26.3007 31.6254 26.6192C31.7683 26.215 32.0031 25.8332 32.3257 25.5106C33.4343 24.3999 35.2065 24.3509 36.3702 25.3574C36.5091 25.0757 36.6969 24.8144 36.9297 24.5816C38.0914 23.4199 39.9758 23.4179 41.1355 24.5755L46.648 30.088C50.1086 33.5466 49.7227 38.5609 45.7068 42.5789C45.6986 42.5871 45.6905 42.5952 45.6802 42.6054L43.3997 44.8839C41.9787 46.2886 40.231 46.9909 38.1322 46.9909ZM26.4314 41.7459C27.5462 41.7459 29.2591 41.9297 32.0705 43.2608C38.1649 46.1539 40.6353 44.7492 41.9665 43.4364L44.2654 41.1375C44.2715 41.1293 44.2797 41.1232 44.2858 41.1171C46.7195 38.6548 48.3875 34.7124 45.2229 31.5478L39.6941 26.0189C39.3327 25.6576 38.7406 25.6617 38.3752 26.0251C38.0117 26.3885 38.0077 26.9785 38.367 27.3419L39.7472 28.7221C39.9472 28.9222 40.0452 29.1835 40.0452 29.4449C40.0452 29.7062 39.9452 29.9675 39.7472 30.1676C39.349 30.5657 38.7018 30.5657 38.3037 30.1676L35.0881 26.952C34.7267 26.5906 34.1346 26.5927 33.7692 26.9581C33.4037 27.3236 33.4017 27.9136 33.7651 28.277L36.062 30.5739C36.262 30.774 36.36 31.0353 36.36 31.2967C36.36 31.558 36.26 31.8193 36.062 32.0194C35.6638 32.4175 35.0166 32.4175 34.6185 32.0194L31.4029 28.8038C31.0415 28.4424 30.4515 28.4465 30.084 28.8099C29.9063 28.9875 29.8083 29.2244 29.8083 29.4734C29.8083 29.7205 29.9043 29.9532 30.0778 30.1268L32.3747 32.4237C32.5748 32.6237 32.6728 32.8851 32.6728 33.1464C32.6728 33.4077 32.5727 33.6691 32.3747 33.8692C31.9766 34.2673 31.3294 34.2673 30.9312 33.8692L23.1219 26.0618C22.9463 25.8862 22.7135 25.7882 22.4665 25.7882C22.2174 25.7903 21.9826 25.8883 21.805 26.0659C21.6274 26.2435 21.5294 26.4783 21.5273 26.7274C21.5273 26.9745 21.6233 27.2072 21.7989 27.3828L32.3645 37.9484C32.6952 38.2771 32.7585 38.7896 32.5197 39.1897C32.2808 39.5899 31.7969 39.7777 31.3539 39.6491C31.3151 39.6389 27.6585 38.5895 25.919 40.3249C25.1288 41.1171 25.0125 41.603 25.0329 41.7112C25.1186 41.7704 25.139 41.7929 25.7965 41.7663C25.9863 41.7541 26.1966 41.7459 26.4314 41.7459Z" fill="#3434F4"/>
<path d="M37.7708 14.3365H7.14583C3.20542 14.3365 0 11.1311 0 7.19069C0 3.25028 3.20542 0.0448608 7.14583 0.0448608H37.7708C41.7113 0.0448608 44.9167 3.25028 44.9167 7.19069C44.9167 11.1311 41.7113 14.3365 37.7708 14.3365ZM7.14583 2.08653C4.33242 2.08653 2.04167 4.37524 2.04167 7.19069C2.04167 10.0062 4.33242 12.2949 7.14583 12.2949H37.7708C40.5843 12.2949 42.875 10.0062 42.875 7.19069C42.875 4.37524 40.5843 2.08653 37.7708 2.08653H7.14583Z" fill="#3434F4"/>
<path d="M9.1875 10.2532C7.49904 10.2532 6.125 8.87913 6.125 7.19068C6.125 5.50222 7.49904 4.12818 9.1875 4.12818C10.876 4.12818 12.25 5.50222 12.25 7.19068C12.25 8.87913 10.876 10.2532 9.1875 10.2532ZM9.1875 6.16984C8.624 6.16984 8.16667 6.62922 8.16667 7.19068C8.16667 7.75213 8.624 8.21151 9.1875 8.21151C9.751 8.21151 10.2083 7.75213 10.2083 7.19068C10.2083 6.62922 9.751 6.16984 9.1875 6.16984Z" fill="#3434F4"/>
<path d="M19.3958 10.2532C17.7074 10.2532 16.3333 8.87913 16.3333 7.19068C16.3333 5.50222 17.7074 4.12818 19.3958 4.12818C21.0843 4.12818 22.4583 5.50222 22.4583 7.19068C22.4583 8.87913 21.0843 10.2532 19.3958 10.2532ZM19.3958 6.16984C18.8323 6.16984 18.375 6.62922 18.375 7.19068C18.375 7.75213 18.8323 8.21151 19.3958 8.21151C19.9593 8.21151 20.4167 7.75213 20.4167 7.19068C20.4167 6.62922 19.9593 6.16984 19.3958 6.16984Z" fill="#3434F4"/>
<path d="M15.3125 26.5865H7.14583C3.20542 26.5865 0 23.3811 0 19.4407C0 17.5338 0.743167 15.7412 2.09475 14.3896C3.44633 13.038 5.24096 12.2949 7.14583 12.2949H37.7708C41.7113 12.2949 44.9167 15.5003 44.9167 19.4407C44.9167 20.0042 44.4593 20.4615 43.8958 20.4615C43.3323 20.4615 42.875 20.0042 42.875 19.4407C42.875 16.6252 40.5843 14.3365 37.7708 14.3365H7.14583C5.78608 14.3365 4.50596 14.8694 3.53821 15.8331C2.57046 16.7967 2.04167 18.0809 2.04167 19.4407C2.04167 22.2561 4.33242 24.5449 7.14583 24.5449H15.3125C15.876 24.5449 16.3333 25.0022 16.3333 25.5657C16.3333 26.1292 15.876 26.5865 15.3125 26.5865Z" fill="#3434F4"/>
<path d="M9.1875 22.5032C7.49904 22.5032 6.125 21.1291 6.125 19.4407C6.125 17.7522 7.49904 16.3782 9.1875 16.3782C10.876 16.3782 12.25 17.7522 12.25 19.4407C12.25 21.1291 10.876 22.5032 9.1875 22.5032ZM9.1875 18.4198C8.624 18.4198 8.16667 18.8792 8.16667 19.4407C8.16667 20.0021 8.624 20.4615 9.1875 20.4615C9.751 20.4615 10.2083 20.0021 10.2083 19.4407C10.2083 18.8792 9.751 18.4198 9.1875 18.4198Z" fill="#3434F4"/>
<path d="M19.3958 22.5032C17.7074 22.5032 16.3333 21.1291 16.3333 19.4407C16.3333 17.7522 17.7074 16.3782 19.3958 16.3782C21.0843 16.3782 22.4583 17.7522 22.4583 19.4407C22.4583 21.1291 21.0843 22.5032 19.3958 22.5032ZM19.3958 18.4198C18.8323 18.4198 18.375 18.8792 18.375 19.4407C18.375 20.0021 18.8323 20.4615 19.3958 20.4615C19.9593 20.4615 20.4167 20.0021 20.4167 19.4407C20.4167 18.8792 19.9593 18.4198 19.3958 18.4198Z" fill="#3434F4"/>
<path d="M19.3958 38.8365H7.14583C3.20542 38.8365 0 35.6311 0 31.6907C0 29.7837 0.743167 27.9912 2.09475 26.6396C3.44633 25.288 5.24096 24.5449 7.14583 24.5449H15.3125C15.876 24.5449 16.3333 25.0022 16.3333 25.5657C16.3333 26.1292 15.876 26.5865 15.3125 26.5865H7.14583C5.78608 26.5865 4.50596 27.1194 3.53821 28.083C2.57046 29.0467 2.04167 30.3309 2.04167 31.6907C2.04167 34.5061 4.33242 36.7948 7.14583 36.7948H19.3958C19.9593 36.7948 20.4167 37.2522 20.4167 37.8157C20.4167 38.3792 19.9593 38.8365 19.3958 38.8365Z" fill="#3434F4"/>
<path d="M9.1875 34.7532C7.49904 34.7532 6.125 33.3791 6.125 31.6907C6.125 30.0022 7.49904 28.6282 9.1875 28.6282C10.876 28.6282 12.25 30.0022 12.25 31.6907C12.25 33.3791 10.876 34.7532 9.1875 34.7532ZM9.1875 30.6698C8.624 30.6698 8.16667 31.1292 8.16667 31.6907C8.16667 32.2521 8.624 32.7115 9.1875 32.7115C9.751 32.7115 10.2083 32.2521 10.2083 31.6907C10.2083 31.1292 9.751 30.6698 9.1875 30.6698Z" fill="#3434F4"/>
</svg>
