<svg width="55" height="56" viewBox="0 0 55 56" fill="none" xmlns="http://www.w3.org/2000/svg">
<path d="M46.4179 37.8023C47.992 36.5169 49 34.5639 49 32.3782C49 28.5185 45.8596 25.3782 42 25.3782C38.1404 25.3782 35 28.5185 35 32.3782C35 34.4694 35.9266 36.3445 37.3853 37.6282H28.8584C28.8006 37.4925 28.7534 37.356 28.6904 37.2204L29.9968 35.0635L29.0614 34.1282H30.625C32.0723 34.1282 33.25 32.9504 33.25 31.5032V29.7532C33.25 28.3059 32.0723 27.1282 30.625 27.1282H28.875C28.392 27.1282 28 26.7362 28 26.2532V25.3782H36.75V21.0032C36.75 16.923 34.1941 13.437 30.6031 12.0388C32.2 10.9319 33.25 9.0883 33.25 7.00317C33.25 3.62655 30.5016 0.878174 27.125 0.878174C23.7484 0.878174 21 3.62655 21 7.00317C21 9.0883 22.05 10.9319 23.6469 12.0388C21.308 12.9497 19.4145 14.7452 18.375 17.0167C17.3355 14.7452 15.442 12.9488 13.1031 12.0388C14.7 10.9319 15.75 9.0883 15.75 7.00317C15.75 3.62655 13.0016 0.878174 9.625 0.878174C6.24837 0.878174 3.5 3.62655 3.5 7.00317C3.5 9.0883 4.55 10.9319 6.14687 12.0388C2.55587 13.437 0 16.923 0 21.0032V25.3782H8.75V26.2532C8.75 26.7362 8.358 27.1282 7.875 27.1282H6.125C4.67775 27.1282 3.5 28.3059 3.5 29.7532V31.5032C3.5 32.9504 4.67775 34.1282 6.125 34.1282H7.68862L6.75325 35.0635L8.05875 37.2204C7.924 37.51 7.80237 37.8005 7.69475 38.091L5.25 38.6922V45.3142L7.69475 45.9153C7.80237 46.2058 7.924 46.4963 8.05875 46.7859L6.75325 48.9428L11.4362 53.6258L13.5931 52.3203C13.8819 52.455 14.1733 52.5767 14.4638 52.6843L15.064 55.1282H21.686L22.2871 52.6834C22.5776 52.5758 22.8681 52.4542 23.1577 52.3194L25.3146 53.6249L29.9976 48.9419L28.6921 46.785C28.8269 46.4963 28.9485 46.2049 29.0561 45.9144L31.5 45.3142V43.7532H32.8125C33.5361 43.7532 34.125 44.342 34.125 45.0657V55.1282H54.25V47.2532C54.25 42.5588 50.8699 38.6449 46.4179 37.8023ZM36.75 32.3782C36.75 29.4828 39.1046 27.1282 42 27.1282C44.8954 27.1282 47.25 29.4828 47.25 32.3782C47.25 35.2735 44.8954 37.6282 42 37.6282C39.1046 37.6282 36.75 35.2735 36.75 32.3782ZM22.75 7.00317C22.75 4.5908 24.7126 2.62817 27.125 2.62817C29.5374 2.62817 31.5 4.5908 31.5 7.00317C31.5 9.41555 29.5374 11.3782 27.125 11.3782C24.7126 11.3782 22.75 9.41555 22.75 7.00317ZM27.125 13.1282C31.4676 13.1282 35 16.6605 35 21.0032V23.6282H32.375V16.6282H30.625V23.6282H23.625V16.6282H21.875V23.6282H19.25V21.0032C19.25 16.6605 22.7824 13.1282 27.125 13.1282ZM5.25 7.00317C5.25 4.5908 7.21263 2.62817 9.625 2.62817C12.0374 2.62817 14 4.5908 14 7.00317C14 9.41555 12.0374 11.3782 9.625 11.3782C7.21263 11.3782 5.25 9.41555 5.25 7.00317ZM1.75 21.0032C1.75 16.6605 5.28238 13.1282 9.625 13.1282C13.9676 13.1282 17.5 16.6605 17.5 21.0032V23.6282H14.875V16.6282H13.125V23.6282H6.125V16.6282H4.375V23.6282H1.75V21.0032ZM6.125 32.3782C5.642 32.3782 5.25 31.9862 5.25 31.5032V29.7532C5.25 29.2702 5.642 28.8782 6.125 28.8782H7.875C9.32225 28.8782 10.5 27.7004 10.5 26.2532V25.3782H26.25V26.2532C26.25 27.7004 27.4277 28.8782 28.875 28.8782H30.625C31.108 28.8782 31.5 29.2702 31.5 29.7532V31.5032C31.5 31.9862 31.108 32.3782 30.625 32.3782H27.3114L25.3146 30.3814L23.1577 31.6869C22.8681 31.5522 22.5776 31.4305 22.2871 31.3229L21.686 28.8782H15.064L14.4629 31.3229C14.1724 31.4305 13.8819 31.5522 13.5923 31.6869L11.4354 30.3814L9.43862 32.3782H6.125ZM29.75 43.9422L27.6981 44.447L27.5494 44.9143C27.3901 45.4157 27.1775 45.924 26.9167 46.4254L26.6901 46.8612L27.7882 48.6759L25.0469 51.4173L23.2321 50.3192L22.7964 50.5458C22.295 50.8065 21.7866 51.0192 21.287 51.1776L20.818 51.3254L20.314 53.3782H16.436L15.9311 51.3263L15.4639 51.1776C14.9625 51.0183 14.4541 50.8057 13.9527 50.5449L13.517 50.3183L11.7022 51.4164L8.96088 48.675L10.059 46.8603L9.83238 46.4245C9.57163 45.9232 9.359 45.4148 9.20063 44.9152L9.05275 44.4462L7 43.9422V40.0642L9.05363 39.5593L9.2015 39.0903C9.35987 38.5916 9.5725 38.0832 9.83325 37.5809L10.0599 37.1452L8.96175 35.3304L11.7031 32.5891L13.5179 33.6872L13.9536 33.4605C14.455 33.1998 14.9634 32.9872 15.463 32.8288L15.932 32.6809L16.436 30.6282H20.314L20.8189 32.6818L21.2879 32.8297C21.7866 32.988 22.295 33.2007 22.7973 33.4614L23.233 33.688L25.0477 32.5899L27.7891 35.3313L26.691 37.146L26.9176 37.5818C26.9255 37.5975 26.9325 37.6133 26.9404 37.629H24.9025C23.4474 35.4634 21 34.1282 18.375 34.1282C14.0324 34.1282 10.5 37.6605 10.5 42.0032C10.5 46.3458 14.0324 49.8782 18.375 49.8782C22.0771 49.8782 25.2507 47.2943 26.0531 43.7532H29.75V43.9422ZM20.4654 43.5799C19.9806 44.2213 19.2194 44.6282 18.375 44.6282C16.9277 44.6282 15.75 43.4504 15.75 42.0032C15.75 40.5559 16.9277 39.3782 18.375 39.3782C18.4721 39.3782 18.5657 39.4044 18.662 39.4158C18.4817 39.8052 18.375 40.2339 18.375 40.6907C18.375 42.0373 19.2544 43.1713 20.4654 43.5799ZM20.0638 37.9685C19.5309 37.7463 18.956 37.6282 18.375 37.6282C15.9626 37.6282 14 39.5908 14 42.0032C14 44.4156 15.9626 46.3782 18.375 46.3782C20.1364 46.3782 21.6965 45.3264 22.3834 43.7532H24.2428C23.4832 46.3047 21.1181 48.1282 18.375 48.1282C14.9984 48.1282 12.25 45.3798 12.25 42.0032C12.25 38.6265 14.9984 35.8782 18.375 35.8782C19.9902 35.8782 21.5224 36.5257 22.6546 37.6282H21.4375C20.9414 37.6282 20.4785 37.7585 20.0638 37.9685ZM52.5 53.3782H49.875V43.7532H48.125V53.3782H35.875V45.0657C35.875 43.3769 34.5013 42.0032 32.8125 42.0032H21.4375C20.7139 42.0032 20.125 41.4143 20.125 40.6907C20.125 39.967 20.7139 39.3782 21.4375 39.3782H44.625C48.9676 39.3782 52.5 42.9105 52.5 47.2532V53.3782Z" fill="#3434F4"/>
<path d="M54.25 17.5032C54.25 14.1265 51.5016 11.3782 48.125 11.3782H44.625C41.2484 11.3782 38.5 14.1265 38.5 17.5032V23.6282H48.125C51.5016 23.6282 54.25 20.8798 54.25 17.5032ZM40.25 17.5032C40.25 15.0908 42.2126 13.1282 44.625 13.1282H48.125C50.5374 13.1282 52.5 15.0908 52.5 17.5032C52.5 19.9155 50.5374 21.8782 48.125 21.8782H40.25V17.5032Z" fill="#3434F4"/>
<path d="M42 18.3782H43.75V20.1282H42V18.3782Z" fill="#3434F4"/>
<path d="M45.5 18.3782H47.25V20.1282H45.5V18.3782Z" fill="#3434F4"/>
<path d="M49 18.3782H50.75V20.1282H49V18.3782Z" fill="#3434F4"/>
<path d="M42 14.8782H50.75V16.6282H42V14.8782Z" fill="#3434F4"/>
</svg>
