<svg width="47" height="46" viewBox="0 0 47 46" fill="none" xmlns="http://www.w3.org/2000/svg">
<path d="M34.9844 22.5032C35.1874 22.5032 35.3822 22.4225 35.5258 22.2789C35.6693 22.1354 35.75 21.9406 35.75 21.7376V14.3983L36.74 15.3882C36.8843 15.5277 37.0777 15.6049 37.2785 15.6031C37.4792 15.6014 37.6713 15.5209 37.8132 15.3789C37.9552 15.237 38.0357 15.0449 38.0374 14.8442C38.0392 14.6434 37.962 14.45 37.8225 14.3056L35.5257 12.0088C35.4186 11.9017 35.2822 11.8288 35.1337 11.7993C34.9852 11.7698 34.8313 11.7849 34.6914 11.8429C34.5515 11.9008 34.432 11.9989 34.3478 12.1248C34.2637 12.2507 34.2188 12.3987 34.2188 12.5501V21.7376C34.2188 21.9406 34.2994 22.1354 34.443 22.2789C34.5866 22.4225 34.7813 22.5032 34.9844 22.5032Z" fill="#3434F4"/>
<path d="M12.7812 37.8157C13.6269 37.8157 14.3125 37.1301 14.3125 36.2844C14.3125 35.4388 13.6269 34.7532 12.7812 34.7532C11.9356 34.7532 11.25 35.4388 11.25 36.2844C11.25 37.1301 11.9356 37.8157 12.7812 37.8157Z" fill="#3434F4"/>
<path d="M44.2025 18.0319C44.9673 17.5839 45.5856 16.9236 45.9827 16.1311C46.3798 15.3387 46.5385 14.4481 46.4397 13.5673C46.3408 12.6864 45.9886 11.8532 45.4257 11.1685C44.8629 10.4838 44.1135 9.97701 43.2684 9.7096C42.7938 7.34382 41.0098 5.10819 38.2766 5.10819H38.1923C37.6931 4.14703 36.9917 3.30534 36.1364 2.64095C35.281 1.97657 34.2919 1.50524 33.2371 1.25936C32.1823 1.01349 31.0868 0.998884 30.0258 1.21656C28.9648 1.43424 27.9636 1.87903 27.0908 2.52038L25.0389 0.66757C24.6184 0.283432 24.0695 0.0704346 23.5 0.0704346C22.9305 0.0704346 22.3816 0.283432 21.9611 0.66757L13.0645 8.72194H12.0156C10.5947 8.72357 9.23249 9.28873 8.22777 10.2935C7.22304 11.2982 6.65787 12.6604 6.65625 14.0813V14.8469C6.15577 14.8462 5.66891 15.0099 5.27053 15.3128C4.87214 15.6158 4.5843 16.0412 4.45125 16.5237L1.42703 19.2723C1.08386 19.5842 0.843138 19.9927 0.736545 20.444C0.629953 20.8953 0.662478 21.3684 0.829843 21.8009C0.997208 22.2334 1.29157 22.6051 1.67421 22.8671C2.05685 23.1291 2.50984 23.2692 2.97359 23.2688H3.59375C3.79681 23.2688 3.99155 23.3495 4.13513 23.4931C4.27871 23.6367 4.35938 23.8314 4.35938 24.0344V27.1276L2.57547 32.8468C2.40367 33.3921 2.35667 33.969 2.43794 34.5349C2.51921 35.1008 2.72668 35.6412 3.04499 36.1161C3.3633 36.591 3.78431 36.9882 4.27688 37.2785C4.76945 37.5687 5.32096 37.7444 5.89062 37.7927V39.3469H3.59375C2.78152 39.3469 2.00257 39.6696 1.42824 40.2439C0.853905 40.8183 0.53125 41.5972 0.53125 42.4094C0.53125 43.2217 0.853905 44.0006 1.42824 44.575C2.00257 45.1493 2.78152 45.4719 3.59375 45.4719H40.3438C40.9524 45.4701 41.5355 45.2276 41.9659 44.7972C42.3962 44.3668 42.6388 43.7837 42.6406 43.1751V24.0344C42.6406 23.8314 42.7213 23.6367 42.8649 23.4931C43.0085 23.3495 43.2032 23.2688 43.4062 23.2688H44.0264C44.4902 23.2692 44.9431 23.1291 45.3258 22.8671C45.7084 22.6051 46.0028 22.2334 46.1702 21.8009C46.3375 21.3684 46.37 20.8953 46.2635 20.444C46.1569 19.9927 45.9161 19.5842 45.573 19.2723L44.2025 18.0319ZM8.1875 14.0813C8.1875 13.066 8.59082 12.0923 9.30873 11.3744C10.0266 10.6565 11.0003 10.2532 12.0156 10.2532H13.5469C14.5407 10.2542 15.4949 10.6427 16.2069 11.336C16.9188 12.0294 17.3324 12.9731 17.3597 13.9665C16.7727 13.4426 16.1219 12.995 15.4227 12.6343C15.2568 12.5488 15.0652 12.5273 14.8845 12.5739C14.7038 12.6205 14.5465 12.7319 14.4427 12.8869C13.6629 13.9024 12.5172 14.5728 11.25 14.7551V14.089C11.2497 13.9417 11.2069 13.7976 11.1268 13.6741C11.0467 13.5505 10.9326 13.4526 10.7983 13.3923C10.6623 13.3332 10.5124 13.314 10.3659 13.3371C10.2195 13.3601 10.0826 13.4244 9.97141 13.5224C9.40288 14.0385 8.80741 14.5241 8.1875 14.9771V14.0813ZM8.1875 16.8223C8.72087 16.4896 9.23469 16.1266 9.72641 15.7351C9.7583 15.9165 9.85352 16.0807 9.99513 16.1984C10.1367 16.3162 10.3155 16.3799 10.4997 16.3782C12.2933 16.3149 13.9969 15.5766 15.2695 14.311C16.1782 14.8161 16.9124 15.5849 17.375 16.516V17.1438C17.375 17.6465 17.276 18.1443 17.0836 18.6088C16.8912 19.0732 16.6092 19.4952 16.2538 19.8507C15.8983 20.2062 15.4763 20.4882 15.0118 20.6805C14.5474 20.8729 14.0496 20.9719 13.5469 20.9719H12.0156C11.0003 20.9719 10.0266 20.5686 9.30873 19.8507C8.59082 19.1328 8.1875 18.1591 8.1875 17.1438V16.8223ZM17.9722 31.6907L17.352 29.2101C17.3312 29.1092 17.2902 29.0135 17.2315 28.9288C17.1728 28.8441 17.0976 28.7722 17.0104 28.7173C16.9232 28.6623 16.8258 28.6256 16.7241 28.6092C16.6224 28.5928 16.5184 28.5971 16.4184 28.6218C16.3183 28.6466 16.2243 28.6913 16.142 28.7532C16.0597 28.8151 15.9907 28.8931 15.9392 28.9823C15.8876 29.0715 15.8547 29.1703 15.8422 29.2725C15.8298 29.3748 15.8381 29.4786 15.8667 29.5776L16.395 31.6907H9.1675L9.69578 29.5776C9.73584 29.3837 9.69928 29.1819 9.59378 29.0145C9.48827 28.847 9.32202 28.7269 9.12989 28.6794C8.93776 28.6319 8.73469 28.6606 8.56327 28.7595C8.39185 28.8584 8.26541 29.0199 8.21047 29.2101L7.59031 31.6907H4.53547L6.28109 26.1016C6.33237 25.9468 6.43081 25.8118 6.56261 25.7157C6.69441 25.6196 6.85298 25.5672 7.01609 25.5657H9.03734C9.2121 26.4298 9.68039 27.2069 10.3628 27.7651C11.0452 28.3233 11.8996 28.6282 12.7812 28.6282C13.6629 28.6282 14.5173 28.3233 15.1997 27.7651C15.8821 27.2069 16.3504 26.4298 16.5252 25.5657H18.5464C18.7095 25.5672 18.8681 25.6196 18.9999 25.7157C19.1317 25.8118 19.2301 25.9468 19.2814 26.1016L21.027 31.6907H17.9722ZM21.5017 33.2219L21.5323 33.3062C21.6322 33.6221 21.6618 33.9561 21.6192 34.2847C21.5765 34.6133 21.4626 34.9286 21.2855 35.2086C21.1083 35.4886 20.8721 35.7265 20.5934 35.9057C20.3146 36.085 20.0002 36.2011 19.6719 36.2462V33.2219H21.5017ZM18.1406 33.2219V39.3469H7.42188V33.2219H18.1406ZM14.9327 25.5351C14.7691 25.9792 14.4772 26.3648 14.0942 26.6428C13.7112 26.9209 13.2542 27.079 12.7812 27.0969C12.3083 27.079 11.8513 26.9209 11.4683 26.6428C11.0853 26.3648 10.7934 25.9792 10.6298 25.5351C10.8026 25.5039 10.9591 25.4134 11.0723 25.2792C11.1855 25.1451 11.2483 24.9756 11.25 24.8001V22.4419C11.5033 22.4817 11.7592 22.5021 12.0156 22.5032H13.5469C13.8033 22.5021 14.0592 22.4817 14.3125 22.4419V24.8001C14.3142 24.9756 14.377 25.1451 14.4902 25.2792C14.6034 25.4134 14.7599 25.5039 14.9327 25.5351ZM6.12797 16.6002C6.19578 16.5286 6.27778 16.4718 6.36873 16.4336C6.45969 16.3954 6.5576 16.3765 6.65625 16.3782V17.1438C6.65731 17.4002 6.67779 17.6561 6.7175 17.9094H6.65625C6.45319 17.9094 6.25845 17.8288 6.11487 17.6852C5.97129 17.5416 5.89062 17.3469 5.89062 17.1438C5.88973 17.0416 5.9104 16.9404 5.9513 16.8467C5.9922 16.753 6.0524 16.669 6.12797 16.6002ZM3.59375 21.7376H2.97359C2.81857 21.7387 2.66686 21.6928 2.53851 21.6058C2.41016 21.5189 2.31123 21.395 2.25481 21.2507C2.19838 21.1063 2.18711 20.9481 2.2225 20.7972C2.25788 20.6463 2.33825 20.5096 2.45297 20.4054L4.71156 18.3535C4.91684 18.6848 5.20305 18.9585 5.54326 19.1487C5.88347 19.3389 6.26649 19.4394 6.65625 19.4407H7.18453C7.71342 20.5512 8.60822 21.446 9.71875 21.9749V24.0344H7.01609C6.62069 24.0369 6.23277 24.1425 5.89062 24.3407V24.0344C5.88881 23.4258 5.64623 22.8427 5.21588 22.4123C4.78552 21.982 4.20236 21.7394 3.59375 21.7376ZM4.37469 35.3504C4.16103 35.0605 4.01853 34.7245 3.95868 34.3694C3.89883 34.0143 3.92332 33.6501 4.03016 33.3062L4.06078 33.2219H5.89062V36.2462C5.28666 36.16 4.74151 35.8379 4.37469 35.3504ZM3.59375 43.9407C3.18764 43.9407 2.79816 43.7794 2.51099 43.4922C2.22383 43.205 2.0625 42.8156 2.0625 42.4094C2.0625 42.0033 2.22383 41.6139 2.51099 41.3267C2.79816 41.0395 3.18764 40.8782 3.59375 40.8782H15.2236L5.01016 43.9407H3.59375ZM21.9688 43.9407H10.3389L20.5523 40.8782H21.9688C22.3749 40.8782 22.7643 41.0395 23.0515 41.3267C23.3387 41.6139 23.5 42.0033 23.5 42.4094C23.5 42.8156 23.3387 43.205 23.0515 43.4922C22.7643 43.7794 22.3749 43.9407 21.9688 43.9407ZM44.7461 21.2476C44.6912 21.3934 44.5926 21.5188 44.4638 21.6065C44.335 21.6942 44.1822 21.74 44.0264 21.7376H43.4062C42.7976 21.7394 42.2145 21.982 41.7841 22.4123C41.3538 22.8427 41.1112 23.4258 41.1094 24.0344V43.1751C41.1094 43.3781 41.0287 43.5729 40.8851 43.7164C40.7415 43.86 40.5468 43.9407 40.3438 43.9407H24.6025C24.881 43.4783 25.0291 42.9492 25.0312 42.4094C25.0312 41.5972 24.7086 40.8183 24.1343 40.2439C23.5599 39.6696 22.781 39.3469 21.9688 39.3469H19.6719V37.7927C20.2415 37.7444 20.7931 37.5687 21.2856 37.2785C21.7782 36.9882 22.1992 36.591 22.5175 36.1161C22.8358 35.6412 23.0433 35.1008 23.1246 34.5349C23.2058 33.969 23.1588 33.3921 22.987 32.8468L20.7361 25.6423C20.5888 25.1767 20.2973 24.77 19.9037 24.481C19.5101 24.1919 19.0347 24.0356 18.5464 24.0344H15.8438V21.9749C16.9543 21.446 17.8491 20.5512 18.378 19.4407H18.9062C19.5149 19.4389 20.098 19.1963 20.5284 18.7659C20.9587 18.3356 21.2013 17.7524 21.2031 17.1438C21.2031 16.5347 20.9611 15.9504 20.5304 15.5197C20.0996 15.0889 19.5154 14.8469 18.9062 14.8469V14.0813C18.9052 12.9304 18.5339 11.8103 17.8473 10.8866C17.1607 9.96285 16.1952 9.28446 15.0934 8.95163L22.987 1.80069C23.1277 1.67372 23.3105 1.60344 23.5 1.60344C23.6895 1.60344 23.8723 1.67372 24.013 1.80069L25.9423 3.55398C25.0177 4.56843 24.3922 5.81931 24.1355 7.16773C23.9245 8.18064 23.8985 9.22338 24.0589 10.2455C23.2287 10.784 22.595 11.5767 22.2526 12.5051C21.9102 13.4335 21.8774 14.4478 22.1591 15.3963C22.4408 16.3449 23.022 17.1769 23.8157 17.7678C24.6093 18.3588 25.573 18.6771 26.5625 18.6751H28.8594C29.0624 18.6751 29.2572 18.5944 29.4008 18.4508C29.5443 18.3072 29.625 18.1125 29.625 17.9094C29.625 17.7064 29.5443 17.5117 29.4008 17.3681C29.2572 17.2245 29.0624 17.1438 28.8594 17.1438H26.5625C25.8674 17.1457 25.1925 16.9104 24.6492 16.477C24.1059 16.0435 23.7266 15.4377 23.574 14.7596C23.4215 14.0815 23.5047 13.3716 23.81 12.7472C24.1153 12.1227 24.6244 11.6211 25.2533 11.3251C25.4167 11.2485 25.5479 11.1166 25.6235 10.9527C25.6992 10.7887 25.7145 10.6034 25.6667 10.4293C25.4323 9.4541 25.4218 8.43847 25.6361 7.45866C25.8784 6.20111 26.5171 5.05422 27.4586 4.18612C28.4002 3.31801 29.5951 2.77434 30.8681 2.63479C32.1412 2.49524 33.4255 2.76716 34.5327 3.41068C35.64 4.0542 36.512 5.03548 37.0209 6.21069C37.0839 6.36308 37.1952 6.49056 37.3377 6.57355C37.4801 6.65654 37.6459 6.69045 37.8095 6.67007C37.9646 6.65199 38.1205 6.64177 38.2766 6.63944C40.3131 6.63944 41.6147 8.53819 41.8367 10.414C41.8534 10.5762 41.922 10.7287 42.0324 10.8487C42.1428 10.9687 42.289 11.0499 42.4492 11.0801C43.1905 11.2303 43.8499 11.6496 44.3005 12.2571C44.751 12.8645 44.9609 13.6173 44.8896 14.3702C44.8183 15.1232 44.4709 15.8231 43.9143 16.3352C43.3577 16.8473 42.6313 17.1354 41.875 17.1438H38.0469C37.8438 17.1438 37.6491 17.2245 37.5055 17.3681C37.3619 17.5117 37.2812 17.7064 37.2812 17.9094C37.2812 18.1125 37.3619 18.3072 37.5055 18.4508C37.6491 18.5944 37.8438 18.6751 38.0469 18.6751H41.875C42.1085 18.674 42.3416 18.6535 42.5717 18.6138L44.547 20.4054C44.6619 20.5089 44.7425 20.6449 44.7781 20.7954C44.8136 20.9459 44.8025 21.1036 44.7461 21.2476ZM18.845 17.9094C18.8847 17.6561 18.9052 17.4002 18.9062 17.1438V16.3782C19.0085 16.3773 19.1097 16.398 19.2034 16.4389C19.297 16.4798 19.381 16.54 19.4498 16.6155C19.5215 16.6834 19.5783 16.7653 19.6165 16.8563C19.6547 16.9473 19.6736 17.0452 19.6719 17.1438C19.6719 17.3469 19.5912 17.5416 19.4476 17.6852C19.304 17.8288 19.1093 17.9094 18.9062 17.9094H18.845Z" fill="#3434F4"/>
<path d="M32.6875 12.5501V21.7376C32.6875 21.9406 32.6068 22.1354 32.4632 22.279C32.3197 22.4225 32.1249 22.5032 31.9219 22.5032C31.7188 22.5032 31.5241 22.4225 31.3805 22.279C31.2369 22.1354 31.1562 21.9406 31.1562 21.7376V14.3952L30.1686 15.3905C30.0244 15.5347 29.8289 15.6157 29.625 15.6157C29.4211 15.6157 29.2256 15.5347 29.0814 15.3905C28.9372 15.2464 28.8562 15.0508 28.8562 14.8469C28.8562 14.6431 28.9372 14.4475 29.0814 14.3034L31.3783 12.0065C31.4859 11.9002 31.6227 11.8283 31.7712 11.7997C31.9197 11.771 32.0734 11.7871 32.2128 11.8457C32.3534 11.902 32.4738 11.9993 32.5585 12.1249C32.6431 12.2505 32.6881 12.3986 32.6875 12.5501Z" fill="#3434F4"/>
<path d="M38.0469 27.0969H33.767L32.4655 25.7877C32.3195 25.6467 32.1249 25.5672 31.9219 25.5657H27.3281C26.9265 25.5798 26.5452 25.7456 26.261 26.0298C25.9768 26.314 25.811 26.6953 25.7969 27.0969V34.7532C25.811 35.1548 25.9768 35.5362 26.261 35.8203C26.5452 36.1045 26.9265 36.2704 27.3281 36.2844H38.0469C38.4485 36.2704 38.8298 36.1045 39.114 35.8203C39.3982 35.5362 39.564 35.1548 39.5781 34.7532V28.6282C39.564 28.2266 39.3982 27.8452 39.114 27.5611C38.8298 27.2769 38.4485 27.111 38.0469 27.0969ZM38.0469 34.7532L27.3281 34.7149V31.6907H38.0469V34.7532ZM38.0469 30.1594H27.3281V27.0969H31.608L32.9095 28.4062C33.0555 28.5472 33.2501 28.6267 33.4531 28.6282H38.0469V30.1594Z" fill="#3434F4"/>
</svg>
