<svg width="49" height="50" viewBox="0 0 49 50" fill="none" xmlns="http://www.w3.org/2000/svg">
<path d="M48.0429 33.4988H47.0858V2.87426C47.0858 1.29105 45.7976 0.00317383 44.2148 0.00317383H4.78515C3.20194 0.00317383 1.91406 1.29105 1.91406 2.87426V33.4988H0.957029C0.42842 33.4988 0 33.9276 0 34.4559V37.3269C0 38.9102 1.28788 40.198 2.87109 40.198H26.0933V46.132C26.0933 47.7152 27.3811 49.0031 28.9643 49.0031H40.3863C41.9695 49.0031 43.2574 47.7152 43.2574 46.132V40.198H46.1288C47.712 40.198 48.9999 38.9102 48.9999 37.3269V34.4559C48.9999 33.9276 48.5715 33.4988 48.0429 33.4988ZM43.2574 33.4988V31.5848H45.1718V33.4988H43.2574ZM4.78515 1.91723H44.2148C44.7422 1.91723 45.1718 2.3464 45.1718 2.87426V3.83129H3.82812V2.87426C3.82812 2.3464 4.25729 1.91723 4.78515 1.91723ZM3.82812 31.5848H4.78515C5.31376 31.5848 5.74218 31.1563 5.74218 30.6277C5.74218 30.0991 5.31376 29.6707 4.78515 29.6707H3.82812V5.74535H45.1718V29.6707H43.2574V23.1633C43.2574 21.5801 41.9695 20.2922 40.3863 20.2922H28.9643C28.5217 20.2922 28.1019 20.3931 27.7273 20.5729L23.6184 16.4641H25.1359C25.6645 16.4641 26.0929 16.0357 26.0929 15.507C26.0929 14.9784 25.6645 14.55 25.1359 14.55H21.3081C20.7795 14.55 20.3511 14.9784 20.3511 15.507V19.3352C20.3511 19.8634 20.7795 20.2922 21.3081 20.2922C21.8363 20.2922 22.2651 19.8634 22.2651 19.3352V17.8174L26.374 21.9262C26.1942 22.3012 26.0933 22.7207 26.0933 23.1633V29.6707H13.3984C12.8698 29.6707 12.4414 30.0991 12.4414 30.6277C12.4414 31.1563 12.8698 31.5848 13.3984 31.5848H26.0933V34.4559H19.7148C19.7148 33.9276 19.2864 33.4988 18.7578 33.4988H3.82812V31.5848ZM2.87109 38.284C2.34323 38.284 1.91406 37.8548 1.91406 37.3269V35.4129H18.0576C18.3892 35.9849 19.0079 36.3699 19.7148 36.3699H26.0933V38.284H2.87109ZM41.3433 46.132C41.3433 46.6599 40.9141 47.089 40.3863 47.089H28.9643C28.4365 47.089 28.0073 46.6599 28.0073 46.132V23.5596L32.3962 27.9484H30.8784C30.3502 27.9484 29.9214 28.3769 29.9214 28.9055C29.9214 29.4341 30.3502 29.8625 30.8784 29.8625H34.7065C35.2351 29.8625 35.6635 29.4341 35.6635 28.9055V25.0777C35.6635 24.5491 35.2351 24.1207 34.7065 24.1207C34.1779 24.1207 33.7495 24.5491 33.7495 25.0777V26.5951L29.3606 22.2063H40.3863C40.9141 22.2063 41.3433 22.6358 41.3433 23.1633V46.132ZM47.0858 37.3269C47.0858 37.8548 46.6563 38.284 46.1288 38.284H43.2574V35.4129H47.0858V37.3269Z" fill="#3434F4"/>
<path d="M34.676 44.218C34.1474 44.218 33.7186 44.6464 33.7186 45.175C33.7186 45.7033 34.1474 46.1321 34.676 46.1321C35.2046 46.1321 35.633 45.7033 35.633 45.175C35.633 44.6464 35.2046 44.218 34.676 44.218Z" fill="#3434F4"/>
<path d="M37.0371 9.57387H42.3004C42.829 9.57387 43.2574 9.14544 43.2574 8.61683C43.2574 8.08822 42.829 7.6598 42.3004 7.6598H37.0375C36.5088 7.6598 36.0804 8.08822 36.0804 8.61683C36.08 9.14544 36.5085 9.57387 37.0371 9.57387Z" fill="#3434F4"/>
<path d="M32.7308 9.57387C33.2595 9.57387 33.6879 9.14544 33.6879 8.61683C33.6879 8.08822 33.2595 7.6598 32.7308 7.6598C32.2022 7.6598 31.7734 8.08822 31.7734 8.61683C31.7734 9.14544 32.2022 9.57387 32.7308 9.57387Z" fill="#3434F4"/>
<path d="M9.09217 29.6708C8.56356 29.6708 8.13477 30.0992 8.13477 30.6278C8.13477 31.1564 8.56356 31.5848 9.09217 31.5848C9.62078 31.5848 10.0492 31.1564 10.0492 30.6278C10.0492 30.0992 9.62078 29.6708 9.09217 29.6708Z" fill="#3434F4"/>
</svg>
