<svg width="36" height="59" viewBox="0 0 36 59" fill="none" xmlns="http://www.w3.org/2000/svg">
<path d="M33.6054 34.05C33.3547 33.6534 32.8297 33.5354 32.4334 33.7865C32.037 34.0374 31.919 34.5621 32.17 34.9585C33.1967 36.5808 33.7394 38.4578 33.7394 40.3861V56.2931H30.6884L32.5663 46.219C32.7084 45.4561 32.5056 44.6762 32.0096 44.0792C31.5136 43.4823 30.7843 43.14 30.0082 43.14H29.9113V42.1439C29.9113 41.1278 29.0845 40.3011 28.0684 40.3011H24.2507C23.2344 40.3011 22.4077 41.1279 22.4077 42.1439V43.14H5.99043C5.21437 43.14 4.48487 43.4823 3.98891 44.0793C3.49294 44.6763 3.2901 45.4561 3.43235 46.219L4.2468 50.5881C4.33287 51.0494 4.77731 51.3541 5.23748 51.2675C5.69867 51.1816 6.00288 50.7379 5.91692 50.2768L5.10247 45.9078C5.05309 45.643 5.12354 45.3722 5.29569 45.165C5.46785 44.9577 5.72109 44.8389 5.99043 44.8389H30.0083C30.2776 44.8389 30.5308 44.9577 30.7029 45.1649C30.8752 45.3722 30.9457 45.643 30.8963 45.9078L28.9603 56.2931H7.03841L6.54993 53.6732C6.46385 53.212 6.01942 52.9079 5.55925 52.9937C5.09806 53.0797 4.79384 53.5233 4.8798 53.9844L5.31019 56.2931H2.25921V40.3861C2.25921 38.0593 3.0655 35.7854 4.52949 33.9834C5.87388 32.3284 7.71695 31.1315 9.75788 30.577C9.86174 30.6824 9.96753 30.7859 10.0753 30.8874L13.3197 40.1464C13.6244 41.0169 14.6878 41.3473 15.4326 40.8039L17.9993 38.9308L20.566 40.8038C21.3086 41.346 22.3727 41.0212 22.6791 40.1465L25.9232 30.8875C26.0308 30.7863 26.1364 30.6829 26.2402 30.5776C27.6498 30.9607 28.9764 31.6516 30.1004 32.5938C30.2595 32.7272 30.4531 32.7922 30.6456 32.7922C30.8882 32.7922 31.1291 32.6889 31.2971 32.4884C31.5984 32.1288 31.5512 31.5931 31.1918 31.2917C30.0788 30.3589 28.7954 29.6371 27.4268 29.1661C27.7787 28.6726 28.0922 28.1503 28.3645 27.6037H29.2882C30.5624 27.6037 31.599 26.5671 31.599 25.293V23.1076C33.2544 22.7218 34.4918 21.2351 34.4918 19.4637V19.1399C34.4918 17.6652 33.6342 16.3875 32.3917 15.778V8.74883C32.3917 3.92648 28.4684 0.00317383 23.6461 0.00317383H13.2468C12.7776 0.00317383 12.3974 0.383385 12.3974 0.852619C12.3974 1.32185 12.7776 1.70206 13.2468 1.70206H23.6461C27.5317 1.70206 30.6929 4.86325 30.6929 8.74883V15.3975H29.5694C29.509 12.2898 26.41 10.2926 23.544 11.2504C20.0751 12.4108 16.877 11.818 13.767 9.4396C10.8024 7.17192 6.42715 9.15204 6.42715 13.177V16.2927H5.55721C5.5469 16.2927 5.53671 16.2934 5.52652 16.2935C5.39208 11.417 5.87977 10.1555 4.94991 8.32083L3.93035 6.30968C3.88256 6.21511 3.94779 6.10525 4.05369 6.10185L6.62456 6.02347C7.21329 6.00558 7.72477 5.63669 7.9275 5.08353C8.13023 4.53049 7.97847 3.91832 7.54061 3.52384L5.90333 2.04988C5.76561 1.92598 5.85168 1.70206 6.03697 1.70206H9.85053C10.3198 1.70206 10.7 1.32185 10.7 0.852619C10.7 0.383385 10.3198 0.00317383 9.85053 0.00317383H6.03697C5.24427 0.00317383 4.54852 0.481355 4.26458 1.2215C3.98053 1.96143 4.1776 2.78222 4.76677 3.31261L5.91409 4.34542L4.00204 4.40387C3.36859 4.42312 2.79742 4.76007 2.47406 5.30496C2.15071 5.84985 2.12862 6.51264 2.41517 7.07792L3.43462 9.08895C3.69183 9.59624 3.82774 10.165 3.82774 10.7336V16.8417C3.05463 17.3868 2.54825 18.2859 2.54825 19.3017C2.54825 20.9608 3.89819 22.3107 5.55732 22.3107H6.42727C6.4472 22.435 6.17243 25.8018 8.57262 29.1667C6.4865 29.885 4.615 31.1837 3.21116 32.9118C1.50185 35.0158 0.560547 37.6703 0.560547 40.3859V56.3112C0.560547 57.2379 1.3144 57.9917 2.24109 57.9917C3.95901 57.9926 30.549 58.0164 33.758 57.9917C34.6847 57.9917 35.4385 57.2379 35.4385 56.3112V40.3861C35.4384 38.1356 34.8046 35.9446 33.6054 34.05ZM24.1066 43.14V42.1439C24.1066 42.0645 24.1713 42 24.2507 42H28.0684C28.1478 42 28.2124 42.0645 28.2124 42.1439V43.14H24.1066ZM14.78 39.1769L12.4881 32.6356C13.1199 32.9792 13.7874 33.2651 14.483 33.4874L16.8821 37.6429L14.78 39.1769ZM17.9993 36.1802L16.7193 33.963C17.1398 34.0095 17.5667 34.0341 17.9993 34.0341C18.432 34.0341 18.859 34.0094 19.2794 33.963L17.9993 36.1802ZM21.2187 39.1769L19.1165 37.6429L21.5157 33.4874C22.2112 33.2651 22.8788 32.9792 23.5105 32.6356L21.2187 39.1769ZM29.2882 25.9047H29.0487C29.3175 25.0437 29.4874 24.1395 29.5469 23.2059H29.9V25.2929C29.9002 25.6303 29.6256 25.9047 29.2882 25.9047ZM32.7929 19.4636C32.7929 20.5903 31.8763 21.507 30.7496 21.507H29.5716V17.0964H30.7496C31.8763 17.0964 32.7929 18.0131 32.7929 19.1398V19.4636ZM5.55721 20.612C4.83473 20.612 4.24703 20.0243 4.24703 19.3018C4.24703 18.5793 4.83473 17.9916 5.55721 17.9916H6.42715V20.6121L5.55721 20.612ZM8.12604 13.1769C8.12604 10.5978 10.8558 9.3516 12.7348 10.7889C16.2769 13.4979 20.0945 14.1951 24.0828 12.8615C25.9084 12.2515 27.8726 13.5209 27.8726 15.4916V22.4619C27.8726 23.6723 27.6532 24.8322 27.2528 25.9047H24.9615C24.6989 25.1762 24.0027 24.6529 23.1849 24.6529H20.9612C20.0294 24.6529 19.2548 25.3316 19.101 26.2201C18.2493 26.6354 17.4383 26.577 16.5749 26.0424C16.1761 25.7954 15.6524 25.9186 15.4054 26.3175C15.1584 26.7164 15.2817 27.24 15.6806 27.4869C16.4391 27.9565 17.2192 28.1913 17.9993 28.1913C18.4431 28.1913 18.8867 28.1126 19.3265 27.9607C19.6537 28.5252 20.2631 28.9066 20.9612 28.9066H23.1849C24.022 28.9066 24.7327 28.359 24.9803 27.6036H26.4251C24.6883 30.4392 21.5612 32.3352 17.9993 32.3352C12.5553 32.3352 8.12604 27.9061 8.12604 22.4618V13.1769ZM23.3758 27.0168C23.3758 27.1221 23.2902 27.2078 23.1849 27.2078H20.9612C20.8558 27.2078 20.7702 27.1221 20.7702 27.0168V26.5428C20.7702 26.4375 20.8558 26.3518 20.9612 26.3518H23.1849C23.2902 26.3518 23.3758 26.4375 23.3758 26.5428V27.0168Z" fill="#3434F4"/>
<path d="M13.0812 19.9316C13.5505 19.9316 13.9307 19.5514 13.9307 19.0822V17.8994C13.9307 17.4302 13.5505 17.0499 13.0812 17.0499C12.612 17.0499 12.2318 17.4302 12.2318 17.8994V19.0822C12.2318 19.5514 12.612 19.9316 13.0812 19.9316Z" fill="#3434F4"/>
<path d="M22.9175 19.9316C23.3867 19.9316 23.7669 19.5514 23.7669 19.0822V17.8994C23.7669 17.4302 23.3867 17.0499 22.9175 17.0499C22.4482 17.0499 22.068 17.4302 22.068 17.8994V19.0822C22.068 19.5514 22.4482 19.9316 22.9175 19.9316Z" fill="#3434F4"/>
<path d="M21.2623 52.7243C21.2623 50.925 19.7985 49.4613 17.9993 49.4613C16.2001 49.4613 14.7363 50.925 14.7363 52.7243C14.7363 54.5235 16.2001 55.9873 17.9993 55.9873C19.7985 55.9873 21.2623 54.5235 21.2623 52.7243ZM16.4353 52.7243C16.4353 51.8619 17.1369 51.1602 17.9994 51.1602C18.8618 51.1602 19.5635 51.8618 19.5635 52.7243C19.5635 53.5867 18.8619 54.2884 17.9994 54.2884C17.137 54.2884 16.4353 53.5866 16.4353 52.7243Z" fill="#3434F4"/>
</svg>
