<svg width="15" height="25" viewBox="0 0 15 25" fill="none" xmlns="http://www.w3.org/2000/svg">
<path d="M3.60946 23.9177C2.78365 24.7436 1.44474 24.7436 0.61893 23.9177C-0.206883 23.0919 -0.206883 21.753 0.61893 20.9272L10.4212 11.1249C11.247 10.2991 12.586 10.2991 13.4118 11.1249C14.2376 11.9507 14.2376 13.2896 13.4118 14.1154L3.60946 23.9177Z" fill="#3434F4"/>
<path d="M0.785072 4.147C-0.0407401 3.32119 -0.0407409 1.98228 0.785072 1.15647C1.61088 0.330655 2.94979 0.330655 3.77561 1.15647L13.5779 10.9588C14.4037 11.7846 14.4037 13.1235 13.5779 13.9493C12.7521 14.7751 11.4132 14.7751 10.5874 13.9493L0.785072 4.147Z" fill="#3434F4"/>
</svg>
