<svg width="25" height="28" viewBox="0 0 25 28" fill="none" xmlns="http://www.w3.org/2000/svg">
<path d="M22.8932 2.03975C20.1736 -0.679916 15.7488 -0.679916 13.0292 2.03975L2.6434 12.4254C2.32288 12.746 2.32288 13.2652 2.6434 13.5857C2.96392 13.9063 3.48318 13.9063 3.8037 13.5857L14.1894 3.20005C16.2055 1.18558 19.7168 1.18558 21.7329 3.20005C23.8123 5.27943 23.8123 8.66338 21.7329 10.7428L7.23064 25.4083C5.99022 26.6487 3.82908 26.6487 2.58871 25.4083C1.30903 24.1286 1.30903 22.0468 2.58871 20.7671L16.5108 6.68091C16.9756 6.21618 17.7865 6.21618 18.2513 6.68091C18.7312 7.16085 18.7312 7.94217 18.2513 8.42216L4.91009 21.9274C4.63337 22.2041 4.63337 22.8109 4.91009 23.0877C5.23061 23.4082 5.74987 23.4082 6.07039 23.0877L19.4115 9.58241C20.5318 8.46213 20.5318 6.64082 19.4115 5.52061C18.3266 4.43566 16.4338 4.43725 15.3505 5.52061L1.42841 19.6068C-0.476136 21.5113 -0.476136 24.664 1.42841 26.5686C2.35875 27.4989 3.59513 28 4.91003 28C6.22494 28 7.46142 27.4989 8.39094 26.5686L22.8932 11.903C25.6129 9.18335 25.6129 4.75936 22.8932 2.03975Z" fill="#3E3B3B"/>
</svg>
