<svg width="728" height="753" viewBox="0 0 728 753" fill="none" xmlns="http://www.w3.org/2000/svg">
<path d="M573.5 43.5L575.889 44.7991C591.982 53.5515 602 70.404 602 88.7233V278.15C602 297.062 591.33 314.355 574.428 322.838L359.511 430.702C345.351 437.809 328.661 437.784 314.522 430.635L159 352" stroke="#3434F4" stroke-width="4"/>
<path d="M623 22.5L638.725 31.9349C653.785 40.971 663 57.2464 663 74.8095V323.14C663 342.057 652.324 359.354 635.415 367.834L1 686" stroke="#FE8B15" stroke-width="4"/>
<path d="M663 2L694.159 14.146C713.358 21.6299 726 40.1257 726 60.7318V379.359C726 398.161 715.452 415.374 698.698 423.91L378.029 587.286C368.372 592.206 367.275 605.571 376 612V612L571.121 735.372C581.196 741.743 593.891 732.565 591 721V721" stroke="#00D287" stroke-width="4"/>
</svg>
