<svg width="46" height="58" viewBox="0 0 46 58" fill="none" xmlns="http://www.w3.org/2000/svg">
<path d="M22.9995 5.55393C23.4722 5.55393 23.8555 5.17067 23.8555 4.69793V0.855996C23.8555 0.383258 23.4722 0 22.9995 0C22.5266 0 22.1435 0.383258 22.1435 0.855996V4.69793C22.1435 5.17067 22.5266 5.55393 22.9995 5.55393Z" fill="#3434F4"/>
<path d="M37.9111 6.67806L35.1944 9.39477C34.8601 9.72906 34.8601 10.2711 35.1944 10.6053C35.3616 10.7723 35.5808 10.856 35.7998 10.856C36.0188 10.856 36.2379 10.7725 36.4052 10.6053L39.1219 7.88856C39.4561 7.55426 39.4561 7.01224 39.1219 6.67806C38.7874 6.34388 38.2455 6.34388 37.9111 6.67806Z" fill="#3434F4"/>
<path d="M9.59398 34.9952L6.87727 37.7119C6.54298 38.0462 6.54298 38.5882 6.87727 38.9224C7.04436 39.0895 7.2635 39.1731 7.48252 39.1731C7.70154 39.1731 7.92068 39.0896 8.08777 38.9224L10.8045 36.2057C11.1388 35.8714 11.1388 35.3294 10.8045 34.9952C10.4703 34.6609 9.92827 34.6609 9.59398 34.9952Z" fill="#3434F4"/>
<path d="M9.59398 10.6052C9.76107 10.7723 9.9802 10.856 10.1992 10.856C10.4182 10.856 10.6374 10.7724 10.8045 10.6052C11.1388 10.2709 11.1388 9.72893 10.8045 9.39475L8.08777 6.67805C7.75347 6.34375 7.21146 6.34375 6.87727 6.67805C6.54298 7.01234 6.54298 7.55436 6.87727 7.88854L9.59398 10.6052Z" fill="#3434F4"/>
<path d="M36.4051 34.9952C36.0707 34.6609 35.5288 34.6609 35.1945 34.9952C34.8602 35.3295 34.8602 35.8715 35.1945 36.2057L37.9112 38.9224C38.0784 39.0895 38.2975 39.1731 38.5165 39.1731C38.7356 39.1731 38.9547 39.0896 39.1219 38.9224C39.4562 38.5881 39.4562 38.0461 39.1219 37.7119L36.4051 34.9952Z" fill="#3434F4"/>
<path d="M4.89727 21.9442H1.05521C0.582477 21.9442 0.199219 22.3275 0.199219 22.8002C0.199219 23.2729 0.582477 23.6562 1.05521 23.6562H4.89715C5.36989 23.6562 5.75315 23.2729 5.75315 22.8002C5.75326 22.3275 5.37 21.9442 4.89727 21.9442Z" fill="#3434F4"/>
<path d="M44.9438 21.9442H41.1018C40.629 21.9442 40.2458 22.3275 40.2458 22.8002C40.2458 23.2729 40.629 23.6562 41.1018 23.6562H44.9438C45.4166 23.6562 45.7998 23.2729 45.7998 22.8002C45.7998 22.3275 45.4166 21.9442 44.9438 21.9442Z" fill="#3434F4"/>
<path d="M29.8811 46.2466C30.354 46.2466 30.7371 45.8634 30.7371 45.3906C30.7371 44.9179 30.354 44.5346 29.8811 44.5346H29.5718V41.6414L29.5881 41.544C29.7629 40.499 30.0766 39.4763 30.5207 38.5043C30.7171 38.0743 30.5277 37.5665 30.0977 37.3701C29.6677 37.1735 29.1598 37.363 28.9635 37.793C28.5349 38.7313 28.214 39.7118 28.0041 40.7144H17.9685C17.368 37.7963 15.8614 35.1406 13.6874 33.1911C11.1192 30.8881 9.50019 27.7405 9.1288 24.3281C9.07767 23.8581 8.65549 23.5188 8.18515 23.5697C7.71515 23.6208 7.37561 24.0434 7.42685 24.5134C7.84401 28.3459 9.66146 31.8804 12.5445 34.4656C14.5582 36.2714 15.9195 38.7745 16.3776 41.5134L16.3991 41.6415V44.5346H16.1183C15.6456 44.5346 15.2623 44.9179 15.2623 45.3906C15.2623 45.8634 15.6456 46.2466 16.1183 46.2466H16.3991V48.355H16.1183C15.6456 48.355 15.2623 48.7383 15.2623 49.211C15.2623 49.6837 15.6456 50.067 16.1183 50.067H16.3991V51.5347C16.3991 52.5478 17.0439 53.4107 17.9436 53.7414C18.0681 55.528 19.1153 57.1037 20.7392 57.9105C20.8615 57.9714 20.9914 58.0001 21.1194 58.0001C21.4341 58.0001 21.7371 57.8258 21.8867 57.5248C22.097 57.1013 21.9243 56.5876 21.5009 56.3773C20.5086 55.8842 19.8428 54.9571 19.6817 53.8874H26.2894C26.1284 54.9571 25.4626 55.8842 24.4703 56.3772C24.0469 56.5875 23.8742 57.1013 24.0845 57.5247C24.234 57.8256 24.5371 57.9999 24.8518 57.9999C24.9798 57.9999 25.1098 57.9711 25.232 57.9103C26.8559 57.1035 27.903 55.5278 28.0275 53.7413C28.9273 53.4106 29.572 52.5477 29.572 51.5346V50.0669H29.8813C30.3542 50.0669 30.7373 49.6836 30.7373 49.2109C30.7373 48.7381 30.3542 48.3549 29.8813 48.3549H29.572V46.2466H29.8811ZM18.1107 42.4263H27.8597V44.5346H18.1107V42.4263ZM27.8598 51.5346C27.8598 51.8879 27.5724 52.1752 27.2192 52.1752H18.7515C18.3982 52.1752 18.1108 51.8879 18.1108 51.5346V50.0669H27.8598V51.5346ZM27.8598 48.3549H18.1108V46.2466H27.8598V48.3549Z" fill="#3434F4"/>
<path d="M22.9995 27.1908C25.4205 27.1908 27.3901 25.2212 27.3901 22.8002C27.3901 20.3792 25.4205 18.4096 22.9995 18.4096C20.5785 18.4096 18.6089 20.3792 18.6089 22.8002C18.6089 25.2212 20.5785 27.1908 22.9995 27.1908ZM22.9995 20.1216C24.4764 20.1216 25.6781 21.3232 25.6781 22.8002C25.6781 24.2772 24.4765 25.4788 22.9995 25.4788C21.5225 25.4788 20.3209 24.2772 20.3209 22.8002C20.3209 21.3232 21.5225 20.1216 22.9995 20.1216Z" fill="#3434F4"/>
<path d="M13.5665 20.1306C12.7798 20.1306 12.1399 20.7706 12.1399 21.5573V24.0431C12.1399 24.8298 12.7798 25.4698 13.5665 25.4698H15.2751C15.3818 25.7783 15.507 26.0802 15.6503 26.3741L14.4417 27.5827C13.8854 28.139 13.8854 29.044 14.4417 29.6002L16.1994 31.3579C16.7556 31.9141 17.6607 31.9141 18.217 31.3579L19.4256 30.1494C19.7194 30.2927 20.0214 30.4179 20.3299 30.5246V32.2331C20.3299 33.0199 20.9699 33.6598 21.7566 33.6598H24.2423C25.029 33.6598 25.669 33.0199 25.669 32.2331V30.5246C25.9775 30.4179 26.2795 30.2927 26.5734 30.1494L27.7819 31.3579C28.0513 31.6273 28.4096 31.7758 28.7907 31.7758C29.1718 31.7758 29.5301 31.6274 29.7997 31.358L31.5573 29.6002C32.1134 29.0439 32.1134 28.139 31.5573 27.5827L30.3488 26.3741C30.492 26.0802 30.6173 25.7783 30.7238 25.4698H32.4325C33.2192 25.4698 33.8591 24.8298 33.8591 24.0431V21.5573C33.8591 20.7706 33.2192 20.1306 32.4325 20.1306H30.7238C30.6172 19.8221 30.492 19.5202 30.3488 19.2262L31.5573 18.0177C32.1134 17.4614 32.1134 16.5564 31.5573 16.0002L29.7995 14.2424C29.5301 13.973 29.1718 13.8247 28.7907 13.8247C28.4096 13.8247 28.0514 13.973 27.7819 14.2425L26.5734 15.4511C26.2795 15.3078 25.9775 15.1825 25.669 15.0759V13.3673C25.669 12.5806 25.029 11.9407 24.2423 11.9407H21.7566C20.9699 11.9407 20.3299 12.5806 20.3299 13.3673V15.0759C20.0214 15.1825 19.7194 15.3078 19.4256 15.4511L18.217 14.2425C17.6607 13.6862 16.7556 13.6862 16.1994 14.2425L14.4417 16.0002C13.8854 16.5564 13.8854 17.4615 14.4417 18.0178L15.6503 19.2263C15.507 19.5202 15.3817 19.8222 15.275 20.1307L13.5665 20.1306ZM17.311 18.4659L15.854 17.009L17.2082 15.6548L18.6651 17.1118C18.942 17.3885 19.3708 17.4423 19.7075 17.2425C20.2364 16.9285 20.805 16.6926 21.3975 16.5415C21.7767 16.4448 22.0419 16.1033 22.0419 15.712V13.6526H23.957V15.712C23.957 16.1032 24.2222 16.4447 24.6015 16.5415C25.1939 16.6926 25.7627 16.9284 26.2916 17.2425C26.6281 17.4425 27.0572 17.3884 27.3339 17.1118L28.7908 15.6548L30.145 17.009L28.688 18.466C28.4113 18.7427 28.3575 19.1719 28.5573 19.5084C28.8713 20.0371 29.1071 20.6058 29.2582 21.1982C29.3549 21.5774 29.6964 21.8427 30.0877 21.8427H32.1473V23.7579H30.0877C29.6964 23.7579 29.355 24.0232 29.2582 24.4024C29.1071 24.995 28.8713 25.5635 28.5573 26.0922C28.3575 26.4287 28.4113 26.8578 28.688 27.1346L30.145 28.5916L28.7908 29.9458L27.3339 28.4889C27.057 28.2121 26.628 28.1581 26.2916 28.3581C25.7628 28.6721 25.1942 28.9079 24.6015 29.0591C24.2223 29.1558 23.957 29.4973 23.957 29.8885V31.9479H22.0419V29.8885C22.0419 29.4973 21.7767 29.1558 21.3975 29.0591C20.805 28.9079 20.2362 28.672 19.7075 28.3581C19.3709 28.1583 18.942 28.2122 18.6651 28.4889L17.2082 29.9458L15.854 28.5916L17.3109 27.1346C17.5877 26.858 17.6414 26.4287 17.4417 26.0922C17.1277 25.5636 16.8919 24.995 16.7406 24.4023C16.6439 24.0231 16.3024 23.7579 15.9112 23.7579H13.8518V21.8427H15.9112C16.3024 21.8427 16.6439 21.5775 16.7406 21.1983C16.8918 20.6058 17.1277 20.037 17.4417 19.5083C17.6415 19.1717 17.5877 18.7425 17.311 18.4659Z" fill="#3434F4"/>
<path d="M34.1419 11.7886C31.2275 8.83994 27.3411 7.18752 23.1984 7.13593C19.3592 7.08982 15.6364 8.47642 12.7102 11.045C9.81039 13.5904 7.94603 17.0638 7.46051 20.8254C7.40002 21.2942 7.73112 21.7234 8.19997 21.7838C8.66849 21.8443 9.09797 21.5132 9.15846 21.0444C9.59057 17.6962 11.253 14.6019 13.8395 12.3316C16.4473 10.0424 19.7672 8.80341 23.1769 8.8477C26.8666 8.89369 30.3283 10.3654 32.9241 12.9919C35.5222 15.6206 36.953 19.1039 36.953 22.8001C36.953 26.7215 35.2878 30.4848 32.3846 33.1249C31.9375 33.5315 31.5123 33.969 31.1207 34.4254C30.8129 34.7843 30.8541 35.3246 31.2129 35.6325C31.3743 35.771 31.5725 35.839 31.7699 35.839C32.0109 35.839 32.2506 35.7377 32.4199 35.5404C32.7657 35.1374 33.1414 34.7508 33.5364 34.3915C36.7958 31.4275 38.6651 27.2026 38.6651 22.8001C38.665 18.6504 37.0587 14.7398 34.1419 11.7886Z" fill="#3434F4"/>
</svg>
