<svg width="722" height="394" viewBox="0 0 722 394" fill="none" xmlns="http://www.w3.org/2000/svg">
<path fill-rule="evenodd" clip-rule="evenodd" d="M619.349 336.44C678.688 318.728 721.959 263.599 721.959 198.333C721.959 118.764 657.643 54.2598 578.305 54.2598C499.568 54.2598 435.626 117.79 434.661 196.528H436.822C437.786 118.987 500.761 56.4263 578.305 56.4263C656.45 56.4263 719.799 119.96 719.799 198.333C719.799 262.391 677.479 316.535 619.349 334.177V336.44Z" fill="#FE8B15"/>
<path fill-rule="evenodd" clip-rule="evenodd" d="M230.689 56.4721C170.444 42.1412 105.405 68.2494 72.7726 124.771C32.9878 193.68 56.4355 281.7 125.144 321.369C193.333 360.738 280.473 337.69 320.677 269.984L318.806 268.903C279.201 335.574 193.383 358.265 126.228 319.493C58.5519 280.421 35.4569 193.724 74.6434 125.851C106.672 70.3756 170.395 44.6455 229.558 58.4315L230.689 56.4721Z" fill="#FE8B15"/>
<path d="M320.677 269.984C320.984 269.467 321.288 268.947 321.589 268.426C333.174 248.36 339.397 226.675 340.703 205.035L338.537 205.035C337.234 226.307 331.106 247.621 319.719 267.345C319.417 267.867 319.113 268.387 318.806 268.903L320.677 269.984Z" fill="#FE8B15"/>
<path d="M229.558 58.4315C242.779 61.5124 255.773 66.5666 268.134 73.7035C285.974 84.0032 300.716 97.6123 312.036 113.313L313.8 112.057C302.306 96.1098 287.335 82.2875 269.218 71.8272C256.866 64.6961 243.893 59.6129 230.689 56.4721L229.558 58.4315Z" fill="#FE8B15"/>
<rect x="350.051" y="193.308" width="85.4388" height="2.51291" fill="#FE8B15"/>
</svg>
