<svg width="53" height="52" viewBox="0 0 53 52" fill="none" xmlns="http://www.w3.org/2000/svg">
<path d="M39.3906 25.4999C39.6185 25.4999 39.8371 25.4094 39.9983 25.2482C40.1595 25.0871 40.25 24.8685 40.25 24.6406V16.4026L41.3612 17.5138C41.5232 17.6703 41.7403 17.7569 41.9657 17.755C42.191 17.753 42.4065 17.6626 42.5659 17.5033C42.7252 17.344 42.8156 17.1284 42.8175 16.9031C42.8195 16.6778 42.7329 16.4607 42.5763 16.2986L39.9982 13.7205C39.878 13.6003 39.7249 13.5185 39.5582 13.4854C39.3915 13.4522 39.2188 13.4693 39.0618 13.5343C38.9048 13.5993 38.7706 13.7094 38.6761 13.8507C38.5817 13.992 38.5313 14.1581 38.5312 14.3281V24.6406C38.5312 24.8685 38.6218 25.0871 38.783 25.2482C38.9441 25.4094 39.1627 25.4999 39.3906 25.4999Z" fill="#3434F4"/>
<path d="M14.4688 42.6874C15.418 42.6874 16.1875 41.9179 16.1875 40.9687C16.1875 40.0194 15.418 39.2499 14.4688 39.2499C13.5195 39.2499 12.75 40.0194 12.75 40.9687C12.75 41.9179 13.5195 42.6874 14.4688 42.6874Z" fill="#3434F4"/>
<path d="M49.7375 20.4812C50.5959 19.9782 51.29 19.2371 51.7357 18.3476C52.1814 17.4582 52.3596 16.4585 52.2486 15.4698C52.1376 14.4811 51.7423 13.5458 51.1105 12.7773C50.4787 12.0088 49.6376 11.4399 48.6891 11.1398C48.1562 8.48432 46.1539 5.97494 43.0859 5.97494H42.9914C42.4311 4.89608 41.6438 3.95132 40.6837 3.20559C39.7236 2.45985 38.6134 1.93081 37.4294 1.65482C36.2455 1.37884 35.0158 1.36245 33.8249 1.60678C32.634 1.85111 31.5101 2.35037 30.5305 3.07025L28.2273 0.990566C27.7554 0.559391 27.1393 0.320313 26.5 0.320312C25.8607 0.320312 25.2446 0.559391 24.7727 0.990566L14.7867 10.0312H13.6094C12.0145 10.033 10.4854 10.6674 9.3577 11.7951C8.22994 12.9229 7.59557 14.4519 7.59375 16.0468V16.9062C7.03199 16.9054 6.48551 17.0891 6.03834 17.4291C5.59118 17.7692 5.26809 18.2467 5.11875 18.7882L1.72422 21.8734C1.33902 22.2235 1.06883 22.682 0.949183 23.1886C0.829539 23.6952 0.866047 24.2262 1.05391 24.7116C1.24176 25.1971 1.57217 25.6143 2.00167 25.9084C2.43116 26.2025 2.93962 26.3597 3.46016 26.3593H4.15625C4.38417 26.3593 4.60276 26.4499 4.76392 26.611C4.92508 26.7722 5.01562 26.9908 5.01562 27.2187V30.6906L3.01328 37.1101C2.82045 37.7221 2.76769 38.3697 2.85891 39.0049C2.95013 39.6401 3.183 40.2467 3.54029 40.7797C3.89758 41.3128 4.37015 41.7587 4.92303 42.0844C5.47591 42.4102 6.09496 42.6075 6.73438 42.6617V44.4062H4.15625C3.24457 44.4062 2.37023 44.7684 1.72557 45.413C1.08091 46.0577 0.71875 46.932 0.71875 47.8437C0.71875 48.7554 1.08091 49.6297 1.72557 50.2744C2.37023 50.919 3.24457 51.2812 4.15625 51.2812H45.4062C46.0894 51.2792 46.744 51.0069 47.227 50.5238C47.7101 50.0408 47.9823 49.3862 47.9844 48.7031V27.2187C47.9844 26.9908 48.0749 26.7722 48.2361 26.611C48.3972 26.4499 48.6158 26.3593 48.8438 26.3593H49.5398C50.0604 26.3597 50.5688 26.2025 50.9983 25.9084C51.4278 25.6143 51.7582 25.1971 51.9461 24.7116C52.134 24.2262 52.1705 23.6952 52.0508 23.1886C51.9312 22.682 51.661 22.2235 51.2758 21.8734L49.7375 20.4812ZM9.3125 16.0468C9.3125 14.9072 9.76521 13.8143 10.571 13.0085C11.3768 12.2026 12.4698 11.7499 13.6094 11.7499H15.3281C16.4436 11.7511 17.5147 12.1871 18.3138 12.9654C19.113 13.7437 19.5772 14.8028 19.6078 15.9179C18.949 15.3299 18.2184 14.8274 17.4336 14.4226C17.2474 14.3266 17.0324 14.3025 16.8295 14.3548C16.6267 14.4071 16.4502 14.5321 16.3336 14.7062C15.4584 15.8459 14.1724 16.5984 12.75 16.8031V16.0554C12.7497 15.8901 12.7016 15.7284 12.6117 15.5897C12.5218 15.451 12.3937 15.3412 12.243 15.2734C12.0904 15.207 11.922 15.1855 11.7577 15.2114C11.5933 15.2373 11.4397 15.3095 11.3148 15.4195C10.6767 15.9987 10.0083 16.5438 9.3125 17.0523V16.0468ZM9.3125 19.1234C9.91118 18.75 10.4879 18.3426 11.0398 17.9031C11.0756 18.1067 11.1825 18.291 11.3415 18.4232C11.5004 18.5553 11.7011 18.6268 11.9078 18.6249C13.9211 18.5539 15.8333 17.7252 17.2617 16.3046C18.2817 16.8716 19.1057 17.7346 19.625 18.7796V19.4843C19.625 20.0486 19.5139 20.6073 19.2979 21.1287C19.082 21.65 18.7655 22.1237 18.3665 22.5227C17.9675 22.9217 17.4938 23.2382 16.9725 23.4541C16.4511 23.6701 15.8924 23.7812 15.3281 23.7812H13.6094C12.4698 23.7812 11.3768 23.3285 10.571 22.5227C9.76521 21.7168 9.3125 20.6239 9.3125 19.4843V19.1234ZM20.2953 35.8124L19.5992 33.0281C19.5758 32.9148 19.5298 32.8074 19.4639 32.7124C19.398 32.6173 19.3136 32.5366 19.2157 32.4749C19.1179 32.4133 19.0086 32.372 18.8944 32.3536C18.7802 32.3352 18.6635 32.34 18.5512 32.3678C18.439 32.3956 18.3334 32.4457 18.241 32.5152C18.1486 32.5848 18.0712 32.6722 18.0133 32.7724C17.9555 32.8726 17.9185 32.9834 17.9045 33.0982C17.8906 33.213 17.8999 33.3295 17.932 33.4406L18.525 35.8124H10.4125L11.0055 33.4406C11.0504 33.223 11.0094 32.9965 10.891 32.8085C10.7726 32.6206 10.5859 32.4858 10.3703 32.4324C10.1546 32.3791 9.92669 32.4113 9.73428 32.5223C9.54188 32.6334 9.39995 32.8146 9.33828 33.0281L8.64219 35.8124H5.21328L7.17266 29.539C7.23021 29.3652 7.3407 29.2137 7.48865 29.1059C7.63659 28.998 7.81457 28.9391 7.99766 28.9374H10.2664C10.4626 29.9074 10.9882 30.7796 11.7541 31.4061C12.5201 32.0327 13.4792 32.375 14.4688 32.375C15.4583 32.375 16.4174 32.0327 17.1834 31.4061C17.9493 30.7796 18.4749 29.9074 18.6711 28.9374H20.9398C21.1229 28.9391 21.3009 28.998 21.4489 29.1059C21.5968 29.2137 21.7073 29.3652 21.7648 29.539L23.7242 35.8124H20.2953ZM24.257 37.5312L24.2914 37.6257C24.4035 37.9804 24.4367 38.3552 24.3889 38.724C24.341 39.0929 24.2132 39.4468 24.0143 39.7611C23.8154 40.0754 23.5503 40.3425 23.2374 40.5436C22.9246 40.7448 22.5716 40.8752 22.2031 40.9257V37.5312H24.257ZM20.4844 37.5312V44.4062H8.45312V37.5312H20.4844ZM16.8836 28.9031C16.7 29.4016 16.3724 29.8344 15.9425 30.1465C15.5126 30.4586 14.9996 30.636 14.4688 30.6562C13.9379 30.636 13.4249 30.4586 12.995 30.1465C12.5651 29.8344 12.2375 29.4016 12.0539 28.9031C12.2478 28.8681 12.4234 28.7665 12.5505 28.6159C12.6776 28.4653 12.7481 28.2751 12.75 28.0781V25.4312C13.0343 25.4758 13.3216 25.4987 13.6094 25.4999H15.3281C15.6159 25.4987 15.9032 25.4758 16.1875 25.4312V28.0781C16.1894 28.2751 16.2599 28.4653 16.387 28.6159C16.5141 28.7665 16.6897 28.8681 16.8836 28.9031ZM7.00078 18.8742C7.0769 18.7937 7.16894 18.73 7.27103 18.6871C7.37312 18.6442 7.48303 18.623 7.59375 18.6249V19.4843C7.59494 19.7721 7.61793 20.0594 7.6625 20.3437H7.59375C7.36583 20.3437 7.14724 20.2532 6.98608 20.092C6.82492 19.9308 6.73438 19.7122 6.73438 19.4843C6.73337 19.3696 6.75657 19.256 6.80248 19.1508C6.84839 19.0457 6.91596 18.9514 7.00078 18.8742ZM4.15625 24.6406H3.46016C3.28616 24.6419 3.11586 24.5903 2.9718 24.4927C2.82774 24.3951 2.71669 24.2561 2.65335 24.094C2.59002 23.932 2.57737 23.7545 2.61709 23.5851C2.6568 23.4157 2.74701 23.2623 2.87578 23.1453L5.41094 20.8421C5.64135 21.214 5.96261 21.5212 6.34448 21.7347C6.72635 21.9482 7.15626 22.061 7.59375 22.0624H8.18672C8.78037 23.309 9.78474 24.3133 11.0312 24.907V27.2187H7.99766C7.55384 27.2215 7.11842 27.34 6.73438 27.5624V27.2187C6.73233 26.5356 6.46006 25.881 5.97701 25.3979C5.49396 24.9149 4.83938 24.6426 4.15625 24.6406ZM5.03281 39.9203C4.79299 39.5949 4.63304 39.2177 4.56587 38.8191C4.49869 38.4205 4.52617 38.0117 4.64609 37.6257L4.68047 37.5312H6.73438V40.9257C6.05646 40.829 5.44455 40.4674 5.03281 39.9203ZM4.15625 49.5624C3.70041 49.5624 3.26324 49.3814 2.94091 49.059C2.61858 48.7367 2.4375 48.2995 2.4375 47.8437C2.4375 47.3879 2.61858 46.9507 2.94091 46.6284C3.26324 46.306 3.70041 46.1249 4.15625 46.1249H17.2102L5.74609 49.5624H4.15625ZM24.7812 49.5624H11.7273L23.1914 46.1249H24.7812C25.2371 46.1249 25.6743 46.306 25.9966 46.6284C26.3189 46.9507 26.5 47.3879 26.5 47.8437C26.5 48.2995 26.3189 48.7367 25.9966 49.059C25.6743 49.3814 25.2371 49.5624 24.7812 49.5624ZM50.3477 24.0906C50.2861 24.2543 50.1754 24.395 50.0308 24.4934C49.8862 24.5919 49.7147 24.6433 49.5398 24.6406H48.8438C48.1606 24.6426 47.506 24.9149 47.023 25.3979C46.5399 25.881 46.2677 26.5356 46.2656 27.2187V48.7031C46.2656 48.931 46.1751 49.1496 46.0139 49.3107C45.8528 49.4719 45.6342 49.5624 45.4062 49.5624H27.7375C28.0501 49.0435 28.2164 48.4495 28.2188 47.8437C28.2188 46.932 27.8566 46.0577 27.2119 45.413C26.5673 44.7684 25.6929 44.4062 24.7812 44.4062H22.2031V42.6617C22.8425 42.6075 23.4616 42.4102 24.0145 42.0844C24.5674 41.7587 25.0399 41.3128 25.3972 40.7797C25.7545 40.2467 25.9874 39.6401 26.0786 39.0049C26.1698 38.3697 26.1171 37.7221 25.9242 37.1101L23.3977 29.0234C23.2323 28.5008 22.9051 28.0443 22.4633 27.7199C22.0215 27.3955 21.488 27.22 20.9398 27.2187H17.9062V24.907C19.1528 24.3133 20.1571 23.309 20.7508 22.0624H21.3438C22.0269 22.0604 22.6815 21.7881 23.1645 21.3051C23.6476 20.822 23.9198 20.1675 23.9219 19.4843C23.9219 18.8006 23.6503 18.1448 23.1668 17.6613C22.6833 17.1778 22.0275 16.9062 21.3438 16.9062V16.0468C21.3425 14.7549 20.9258 13.4977 20.1551 12.4609C19.3845 11.424 18.3007 10.6626 17.0641 10.289L25.9242 2.26244C26.0821 2.11992 26.2873 2.04103 26.5 2.04103C26.7127 2.04103 26.9179 2.11992 27.0758 2.26244L29.2414 4.23041C28.2035 5.36908 27.5015 6.77313 27.2133 8.28666C26.9765 9.42361 26.9473 10.594 27.1273 11.7413C26.1955 12.3457 25.4842 13.2355 25.0999 14.2776C24.7155 15.3196 24.6787 16.4581 24.9949 17.5229C25.3111 18.5876 25.9634 19.5214 26.8543 20.1848C27.7452 20.8481 28.8268 21.2053 29.9375 21.2031H32.5156C32.7435 21.2031 32.9621 21.1125 33.1233 20.9514C33.2845 20.7902 33.375 20.5716 33.375 20.3437C33.375 20.1158 33.2845 19.8972 33.1233 19.736C32.9621 19.5749 32.7435 19.4843 32.5156 19.4843H29.9375C29.1573 19.4864 28.3998 19.2224 27.7899 18.7358C27.1801 18.2492 26.7544 17.5693 26.5831 16.8081C26.4118 16.047 26.5053 15.2502 26.848 14.5493C27.1906 13.8484 27.7621 13.2853 28.468 12.9531C28.6514 12.8671 28.7986 12.719 28.8835 12.535C28.9685 12.3511 28.9856 12.143 28.932 11.9476C28.6689 10.853 28.6571 9.71301 28.8977 8.61322C29.1696 7.20168 29.8865 5.91436 30.9434 4.93996C32.0002 3.96555 33.3414 3.35531 34.7704 3.19867C36.1993 3.04204 37.6408 3.34725 38.8837 4.06957C40.1265 4.79189 41.1053 5.89333 41.6766 7.21244C41.7472 7.38348 41.8722 7.52657 42.0321 7.61973C42.192 7.71288 42.3781 7.75095 42.5617 7.72807C42.7358 7.70778 42.9107 7.6963 43.0859 7.69369C45.3719 7.69369 46.8328 9.82494 47.082 11.9304C47.1007 12.1125 47.1778 12.2836 47.3017 12.4184C47.4255 12.5531 47.5897 12.6442 47.7695 12.6781C48.6016 12.8467 49.3417 13.3173 49.8475 13.9992C50.3532 14.6811 50.5888 15.5259 50.5087 16.3711C50.4287 17.2163 50.0387 18.0019 49.414 18.5767C48.7892 19.1515 47.9739 19.4748 47.125 19.4843H42.8281C42.6002 19.4843 42.3816 19.5749 42.2205 19.736C42.0593 19.8972 41.9688 20.1158 41.9688 20.3437C41.9688 20.5716 42.0593 20.7902 42.2205 20.9514C42.3816 21.1125 42.6002 21.2031 42.8281 21.2031H47.125C47.3871 21.2019 47.6487 21.1789 47.907 21.1343L50.1242 23.1453C50.2532 23.2614 50.3436 23.4141 50.3836 23.583C50.4235 23.7519 50.411 23.929 50.3477 24.0906ZM21.275 20.3437C21.3196 20.0594 21.3426 19.7721 21.3438 19.4843V18.6249C21.4585 18.6239 21.5721 18.6471 21.6773 18.693C21.7824 18.739 21.8767 18.8065 21.9539 18.8913C22.0343 18.9675 22.098 19.0595 22.1409 19.1616C22.1839 19.2637 22.205 19.3736 22.2031 19.4843C22.2031 19.7122 22.1126 19.9308 21.9514 20.092C21.7903 20.2532 21.5717 20.3437 21.3438 20.3437H21.275Z" fill="#3434F4"/>
<path d="M36.8125 14.3281V24.6406C36.8125 24.8685 36.7219 25.0871 36.5608 25.2483C36.3996 25.4094 36.181 25.5 35.9531 25.5C35.7252 25.5 35.5066 25.4094 35.3454 25.2483C35.1842 25.0871 35.0937 24.8685 35.0937 24.6406V16.3992L33.9851 17.5164C33.8233 17.6782 33.6038 17.7691 33.375 17.7691C33.1461 17.7691 32.9266 17.6782 32.7648 17.5164C32.603 17.3545 32.5121 17.1351 32.5121 16.9062C32.5121 16.6774 32.603 16.4579 32.7648 16.2961L35.3429 13.7179C35.4638 13.5987 35.6172 13.5179 35.7839 13.4858C35.9507 13.4537 36.1231 13.4717 36.2796 13.5375C36.4375 13.6007 36.5726 13.7099 36.6676 13.8508C36.7627 13.9918 36.8131 14.1581 36.8125 14.3281Z" fill="#3434F4"/>
<path d="M42.8281 30.6562H38.0242L36.5633 29.1867C36.3994 29.0284 36.181 28.9391 35.9531 28.9374H30.7969C30.3461 28.9533 29.918 29.1394 29.5991 29.4584C29.2801 29.7773 29.0939 30.2054 29.0781 30.6562V39.2499C29.0939 39.7007 29.2801 40.1288 29.5991 40.4477C29.918 40.7667 30.3461 40.9529 30.7969 40.9687H42.8281C43.2789 40.9529 43.707 40.7667 44.0259 40.4477C44.3449 40.1288 44.5311 39.7007 44.5469 39.2499V32.3749C44.5311 31.9241 44.3449 31.4961 44.0259 31.1771C43.707 30.8582 43.2789 30.672 42.8281 30.6562ZM42.8281 39.2499L30.7969 39.207V35.8124H42.8281V39.2499ZM42.8281 34.0937H30.7969V30.6562H35.6008L37.0617 32.1257C37.2256 32.284 37.444 32.3732 37.6719 32.3749H42.8281V34.0937Z" fill="#3434F4"/>
</svg>
