<svg width="48" height="48" viewBox="0 0 48 48" fill="none" xmlns="http://www.w3.org/2000/svg">
<path d="M6.03122 7.27035L5.02106 6.26019L3.91638 7.36488L5.47888 8.92738C5.63122 9.07972 5.83122 9.15628 6.03122 9.15628C6.23122 9.15628 6.43122 9.07972 6.58356 8.92738L10.4898 5.02113L9.38513 3.91644L6.03122 7.27035Z" fill="#3434F4"/>
<path d="M21.6562 7.27035L20.6461 6.26019L19.5414 7.36488L21.1039 8.92738C21.2562 9.07972 21.4562 9.15628 21.6562 9.15628C21.8562 9.15628 22.0562 9.07972 22.2086 8.92738L26.1148 5.02113L25.0101 3.91644L21.6562 7.27035Z" fill="#3434F4"/>
<path d="M37.2812 7.27035L36.2711 6.26019L35.1664 7.36488L36.7289 8.92738C36.8812 9.07972 37.0812 9.15628 37.2812 9.15628C37.4812 9.15628 37.6812 9.07972 37.8336 8.92738L41.7398 5.02113L40.6351 3.91644L37.2812 7.27035Z" fill="#3434F4"/>
<path d="M9.15622 43.5313C9.35622 43.5313 9.55622 43.4547 9.70856 43.3024L13.6148 39.3961L12.5101 38.2914L9.15622 41.6453L8.14606 40.6352L7.04138 41.7399L8.60388 43.3024C8.75622 43.4547 8.95622 43.5313 9.15622 43.5313Z" fill="#3434F4"/>
<path d="M24.7812 43.5313C24.9812 43.5313 25.1812 43.4547 25.3336 43.3024L29.2398 39.3961L28.1351 38.2914L24.7812 41.6453L23.7711 40.6352L22.6664 41.7399L24.2289 43.3024C24.3812 43.4547 24.5812 43.5313 24.7812 43.5313Z" fill="#3434F4"/>
<path d="M40.4062 43.5313C40.6062 43.5313 40.8062 43.4547 40.9586 43.3024L44.8648 39.3961L43.7601 38.2914L40.4062 41.6453L39.3961 40.6352L38.2914 41.7399L39.8539 43.3024C40.0062 43.4547 40.2062 43.5313 40.4062 43.5313Z" fill="#3434F4"/>
<path d="M47.4375 20.875V9.9375C47.4375 8.03672 46.0711 6.45234 44.2695 6.10625C43.9172 2.99141 41.2695 0.5625 38.0625 0.5625C34.8812 0.5625 32.2531 2.95312 31.8664 6.03125H28.6328C28.2469 2.95312 25.6187 0.5625 22.4375 0.5625C19.2563 0.5625 16.6281 2.95312 16.2414 6.03125H13.0078C12.6219 2.95312 9.99375 0.5625 6.8125 0.5625C3.36641 0.5625 0.5625 3.36641 0.5625 6.8125C0.5625 10.2586 3.36641 13.0625 6.8125 13.0625C9.99375 13.0625 12.6219 10.6719 13.0086 7.59375H16.2422C16.6289 10.6719 19.257 13.0625 22.4383 13.0625C25.6195 13.0625 28.2477 10.6719 28.6344 7.59375H31.868C32.2547 10.6719 34.8828 13.0625 38.0641 13.0625C41.2031 13.0625 43.8016 10.7336 44.2414 7.71484C45.1844 8.01719 45.875 8.89375 45.875 9.9375V20.875C45.875 22.1672 44.8234 23.2188 43.5312 23.2188H30.5734L32.3648 21.4273L31.2602 20.3227L28.3641 23.2188H24.3234L26.1148 21.4273L25.0102 20.3227L22.1141 23.2188H18.0734L19.8648 21.4273L18.7602 20.3227L15.8641 23.2188H4.46875C2.31484 23.2188 0.5625 24.9711 0.5625 27.125V38.0625C0.5625 39.9633 1.92891 41.5477 3.73047 41.8937C4.08281 45.0086 6.73047 47.4375 9.9375 47.4375C13.1187 47.4375 15.7469 45.0469 16.1336 41.9688H19.3672C19.7539 45.0469 22.382 47.4375 25.5633 47.4375C28.7445 47.4375 31.3727 45.0469 31.7594 41.9688H34.993C35.3797 45.0469 38.0078 47.4375 41.1891 47.4375C44.6352 47.4375 47.4391 44.6336 47.4391 41.1875C47.4391 37.7414 44.6352 34.9375 41.1891 34.9375C38.0078 34.9375 35.3797 37.3281 34.993 40.4062H31.7594C31.3727 37.3281 28.7445 34.9375 25.5633 34.9375C22.382 34.9375 19.7539 37.3281 19.3672 40.4062H16.1336C15.7469 37.3281 13.1187 34.9375 9.9375 34.9375C6.79844 34.9375 4.2 37.2664 3.76016 40.2852C2.81562 39.9828 2.125 39.1063 2.125 38.0625V27.125C2.125 25.8328 3.17656 24.7812 4.46875 24.7812H15.8641L18.7602 27.6773L19.8648 26.5727L18.0734 24.7812H22.1141L25.0102 27.6773L26.1148 26.5727L24.3234 24.7812H28.3641L31.2602 27.6773L32.3648 26.5727L30.5734 24.7812H43.5312C45.6852 24.7812 47.4375 23.0289 47.4375 20.875ZM6.8125 11.5C4.22734 11.5 2.125 9.39766 2.125 6.8125C2.125 4.22734 4.22734 2.125 6.8125 2.125C9.39766 2.125 11.5 4.22734 11.5 6.8125C11.5 9.39766 9.39766 11.5 6.8125 11.5ZM22.4375 11.5C19.8523 11.5 17.75 9.39766 17.75 6.8125C17.75 4.22734 19.8523 2.125 22.4375 2.125C25.0227 2.125 27.125 4.22734 27.125 6.8125C27.125 9.39766 25.0227 11.5 22.4375 11.5ZM38.0625 11.5C35.4773 11.5 33.375 9.39766 33.375 6.8125C33.375 4.22734 35.4773 2.125 38.0625 2.125C40.6477 2.125 42.75 4.22734 42.75 6.8125C42.75 9.39766 40.6477 11.5 38.0625 11.5ZM41.1875 36.5C43.7727 36.5 45.875 38.6023 45.875 41.1875C45.875 43.7727 43.7727 45.875 41.1875 45.875C38.6023 45.875 36.5 43.7727 36.5 41.1875C36.5 38.6023 38.6023 36.5 41.1875 36.5ZM25.5625 36.5C28.1477 36.5 30.25 38.6023 30.25 41.1875C30.25 43.7727 28.1477 45.875 25.5625 45.875C22.9773 45.875 20.875 43.7727 20.875 41.1875C20.875 38.6023 22.9773 36.5 25.5625 36.5ZM9.9375 36.5C12.5227 36.5 14.625 38.6023 14.625 41.1875C14.625 43.7727 12.5227 45.875 9.9375 45.875C7.35234 45.875 5.25 43.7727 5.25 41.1875C5.25 38.6023 7.35234 36.5 9.9375 36.5Z" fill="#3434F4"/>
</svg>
