<svg width="67" height="22" viewBox="0 0 67 22" fill="none" xmlns="http://www.w3.org/2000/svg">
<path d="M66.299 20.5806H59.982L61.2731 15.3523C61.4724 14.7466 61.245 14.0764 60.7207 13.7223L57.5441 11.5787L59.7951 7.02192C60.2597 6.08287 59.5741 4.96773 58.5409 4.96773H57.6245L52.4917 2.88927C52.1344 2.74303 51.7243 2.92045 51.5805 3.28499C51.4368 3.64882 51.612 4.0619 51.9714 4.20743L54.0291 5.04064C53.9207 5.06586 53.8066 5.06732 53.7076 5.11738L51.1024 6.43606L49.9895 4.12629C49.8204 3.77424 49.4042 3.628 49.0523 3.79989L44.0116 6.28868C43.6652 6.45971 43.5188 6.88391 43.6891 7.23747L46.7623 13.6156C46.9313 13.9673 47.3525 14.114 47.6996 13.942L52.7403 11.4532C53.0867 11.2822 53.233 10.858 53.0627 10.5044L52.332 8.98782L54.6653 7.80644H56.2721L54.4826 11.4297C54.167 12.068 54.3723 12.849 54.959 13.2455L58.2739 15.4826L57.2107 20.1322C57.1618 20.2807 57.1556 20.4314 57.1555 20.5806H43.7725C43.385 20.5806 43.0714 20.8981 43.0714 21.2903C43.0714 21.6826 43.385 22 43.7725 22H66.299C66.6864 22 67 21.6826 67 21.2903C67 20.8981 66.6864 20.5806 66.299 20.5806Z" fill="#3434F4"/>
<path d="M54.1811 14.4264C53.8596 14.2093 53.6014 13.9313 53.4003 13.6206L53.2467 13.9316L47.9485 16.561C47.3079 16.9929 47.1278 17.8727 47.5597 18.5293C47.9718 19.1546 48.8191 19.374 49.5032 18.9229L55.1122 16.0842C55.3141 15.9476 55.4792 15.7584 55.5887 15.5381L55.6486 15.4167L54.1811 14.4264Z" fill="#3434F4"/>
<path d="M64.1494 7.80646H61.9258L61.2384 7.11055C61.1895 7.29601 61.136 7.48115 61.0488 7.65743L59.9702 9.84087L60.3539 10.2293C60.6189 10.4976 60.9707 10.6452 61.3452 10.6452H64.1494C64.9223 10.6452 65.5514 10.0083 65.5514 9.22582C65.5514 8.44337 64.9223 7.80646 64.1494 7.80646Z" fill="#3434F4"/>
<path d="M61.345 0C60.1853 0 59.2419 0.955037 59.2419 2.12903C59.2419 3.30303 60.1853 4.25807 61.345 4.25807C62.5047 4.25807 63.4481 3.30303 63.4481 2.12903C63.4481 0.955037 62.5047 0 61.345 0Z" fill="#3434F4"/>
<path d="M44.7633 20.5806H38.4463L39.7374 15.3523C39.9366 14.7466 39.7093 14.0764 39.185 13.7223L36.0084 11.5787L38.2594 7.02192C38.724 6.08287 38.0384 4.96773 37.0052 4.96773H36.0888L30.956 2.88927C30.5987 2.74303 30.1886 2.92045 30.0448 3.28499C29.901 3.64882 30.0763 4.0619 30.4357 4.20743L32.4934 5.04064C32.385 5.06586 32.2709 5.06732 32.1719 5.11738L29.5667 6.43606L28.4538 4.12629C28.2847 3.77424 27.8685 3.628 27.5165 3.79989L22.4758 6.28868C22.1294 6.45971 21.9831 6.88391 22.1534 7.23747L25.2266 13.6156C25.3956 13.9673 25.8168 14.114 26.1638 13.942L31.2045 11.4532C31.5509 11.2822 31.6973 10.858 31.527 10.5044L30.7963 8.98782L33.1296 7.80644H34.7364L32.9468 11.4297C32.6312 12.068 32.8366 12.849 33.4233 13.2455L36.7382 15.4826L35.675 20.1322C35.6261 20.2807 35.6199 20.4314 35.6198 20.5806H22.2367C21.8493 20.5806 21.5357 20.8981 21.5357 21.2903C21.5357 21.6826 21.8493 22 22.2367 22H44.7633C45.1507 22 45.4643 21.6826 45.4643 21.2903C45.4643 20.8981 45.1507 20.5806 44.7633 20.5806Z" fill="#3434F4"/>
<path d="M32.6454 14.4264C32.3239 14.2093 32.0657 13.9313 31.8646 13.6206L31.7109 13.9316L26.4128 16.561C25.7722 16.9929 25.592 17.8727 26.024 18.5293C26.4361 19.1546 27.2834 19.374 27.9675 18.9229L33.5765 16.0842C33.7784 15.9476 33.9434 15.7584 34.0529 15.5381L34.1129 15.4167L32.6454 14.4264Z" fill="#3434F4"/>
<path d="M42.6137 7.80646H40.3901L39.7026 7.11055C39.6538 7.29601 39.6003 7.48115 39.5131 7.65743L38.4345 9.84087L38.8182 10.2293C39.0832 10.4976 39.435 10.6452 39.8095 10.6452H42.6137C43.3866 10.6452 44.0157 10.0083 44.0157 9.22582C44.0157 8.44337 43.3866 7.80646 42.6137 7.80646Z" fill="#3434F4"/>
<path d="M39.8093 0C38.6496 0 37.7062 0.955037 37.7062 2.12903C37.7062 3.30303 38.6496 4.25807 39.8093 4.25807C40.969 4.25807 41.9124 3.30303 41.9124 2.12903C41.9124 0.955037 40.969 0 39.8093 0Z" fill="#3434F4"/>
<path d="M23.2275 20.5806H16.9105L18.2017 15.3523C18.4009 14.7466 18.1736 14.0764 17.6492 13.7223L14.4727 11.5787L16.7236 7.02192C17.1882 6.08287 16.5027 4.96773 15.4694 4.96773H14.5531L9.42029 2.88927C9.06295 2.74303 8.65284 2.92045 8.50908 3.28499C8.36533 3.64882 8.54058 4.0619 8.89998 4.20743L10.9577 5.04064C10.8493 5.06586 10.7351 5.06732 10.6362 5.11738L8.03098 6.43606L6.91807 4.12629C6.74898 3.77424 6.33275 3.628 5.98083 3.79989L0.940131 6.28868C0.593728 6.45971 0.447399 6.88391 0.617703 7.23747L3.69089 13.6156C3.85984 13.9673 4.28111 14.114 4.62812 13.942L9.66882 11.4532C10.0152 11.2822 10.1616 10.858 9.99125 10.5044L9.26054 8.98782L11.5939 7.80644H13.2007L11.4111 11.4297C11.0955 12.068 11.3009 12.849 11.8876 13.2455L15.2024 15.4826L14.1393 20.1322C14.0904 20.2807 14.0842 20.4314 14.0841 20.5806H0.701032C0.313548 20.5806 0 20.8981 0 21.2903C0 21.6826 0.313548 22 0.701032 22H23.2275C23.615 22 23.9286 21.6826 23.9286 21.2903C23.9286 20.8981 23.615 20.5806 23.2275 20.5806Z" fill="#3434F4"/>
<path d="M11.1097 14.4264C10.7882 14.2093 10.53 13.9313 10.3288 13.6206L10.1752 13.9316L4.8771 16.561C4.23645 16.9929 4.05633 17.8727 4.48826 18.5293C4.90037 19.1546 5.74764 19.374 6.4318 18.9229L12.0408 16.0842C12.2427 15.9476 12.4077 15.7584 12.5172 15.5381L12.5771 15.4167L11.1097 14.4264Z" fill="#3434F4"/>
<path d="M21.0779 7.80646H18.8544L18.1669 7.11055C18.118 7.29601 18.0646 7.48115 17.9774 7.65743L16.8988 9.84087L17.2825 10.2293C17.5474 10.4976 17.8993 10.6452 18.2738 10.6452H21.0779C21.8508 10.6452 22.48 10.0083 22.48 9.22582C22.48 8.44337 21.8508 7.80646 21.0779 7.80646Z" fill="#3434F4"/>
<path d="M18.2736 0C17.1139 0 16.1705 0.955037 16.1705 2.12903C16.1705 3.30303 17.1139 4.25807 18.2736 4.25807C19.4333 4.25807 20.3767 3.30303 20.3767 2.12903C20.3767 0.955037 19.4333 0 18.2736 0Z" fill="#3434F4"/>
</svg>
