<svg width="50" height="50" viewBox="0 0 50 50" fill="none" xmlns="http://www.w3.org/2000/svg">
<path d="M47.7051 14.4075H16.8555C15.59 14.4075 14.5605 13.378 14.5605 12.1126V2.29492C14.5605 1.02949 15.59 0 16.8555 0H47.7051C48.9705 0 50 1.02949 50 2.29492V12.1126C50 13.378 48.9705 14.4075 47.7051 14.4075ZM48.5352 2.29492C48.5352 1.83721 48.1628 1.46484 47.7051 1.46484H16.8555C16.3978 1.46484 16.0254 1.83721 16.0254 2.29492V12.1126C16.0254 12.5703 16.3978 12.9427 16.8555 12.9427H47.7051C48.1628 12.9427 48.5352 12.5703 48.5352 12.1126V2.29492Z" fill="#3434F4"/>
<path d="M45.2507 9.55408H41.9597C41.125 9.55408 40.446 8.87508 40.446 8.04041V4.7494C40.446 3.91473 41.125 3.23572 41.9597 3.23572H45.2507C46.0854 3.23572 46.7644 3.91473 46.7644 4.7494V8.04041C46.7644 8.87498 46.0854 9.55408 45.2507 9.55408ZM45.2995 4.7493C45.2995 4.72234 45.2777 4.70047 45.2507 4.70047H41.9597C41.9327 4.70047 41.9109 4.72234 41.9109 4.7493V8.04031C41.9109 8.06727 41.9327 8.08914 41.9597 8.08914H45.2507C45.2777 8.08914 45.2995 8.06727 45.2995 8.04031V4.7493Z" fill="#3434F4"/>
<path d="M37.1614 7.93621H32.2525C31.4178 7.93621 30.7388 7.2572 30.7388 6.42253V4.74929C30.7388 3.91463 31.4178 3.23562 32.2525 3.23562H37.1614C37.9961 3.23562 38.6751 3.91463 38.6751 4.74929V6.42244C38.6751 7.25711 37.9961 7.93621 37.1614 7.93621ZM37.2102 4.74929C37.2102 4.72234 37.1884 4.70047 37.1614 4.70047H32.2525C32.2256 4.70047 32.2037 4.72234 32.2037 4.74929V6.42244C32.2037 6.44939 32.2256 6.47127 32.2525 6.47127H37.1614C37.1884 6.47127 37.2102 6.44939 37.2102 6.42244V4.74929Z" fill="#3434F4"/>
<path d="M37.9426 11.1718H26.6178C26.2134 11.1718 25.8854 10.8439 25.8854 10.4394C25.8854 10.0349 26.2134 9.707 26.6178 9.707H37.9426C38.3471 9.707 38.6751 10.0349 38.6751 10.4394C38.6751 10.8439 38.3471 11.1718 37.9426 11.1718Z" fill="#3434F4"/>
<path d="M23.3821 11.1718H18.5285C18.124 11.1718 17.7961 10.8439 17.7961 10.4394C17.7961 10.0349 18.124 9.707 18.5285 9.707H23.3821C23.7865 9.707 24.1145 10.0349 24.1145 10.4394C24.1145 10.8439 23.7865 11.1718 23.3821 11.1718Z" fill="#3434F4"/>
<path d="M4.64463 36.3858C4.65508 36.3816 4.66504 36.3768 4.67568 36.373C4.69365 36.3666 4.71172 36.3618 4.72979 36.3569C5.42949 36.1152 6.17851 35.9806 6.95791 35.9746C5.27705 34.6686 4.1873 32.6125 4.1873 30.3211V26.9696H3.87285C2.8918 26.9696 2.09355 26.1714 2.09355 25.1904V24.1435C2.09355 21.2801 3.81924 18.8136 6.28437 17.7252C6.35752 15.0758 8.53399 12.9427 11.2007 12.9427C13.4075 12.9427 15.2794 14.4033 15.901 16.4084C16.2104 16.2608 16.5536 16.1784 16.9106 16.1784H47.6497C48.9457 16.1785 50 17.2328 50 18.5287V28.2357C50 29.5317 48.9457 30.586 47.6497 30.586H42.6433C42.2388 30.586 41.9108 30.2581 41.9108 29.8536C41.9108 29.4491 42.2388 29.1211 42.6433 29.1211H47.6497C48.138 29.1211 48.5352 28.724 48.5352 28.2357V18.5287C48.5352 18.0405 48.138 17.6432 47.6497 17.6432H16.9107C16.7062 17.6432 16.5146 17.7159 16.3612 17.8375C18.6956 18.9775 20.3078 21.3755 20.3078 24.1435V25.1904C20.3078 25.4369 20.2572 25.6718 20.1662 25.8855H23.382C23.7865 25.8855 24.1145 26.2134 24.1145 26.6179C24.1145 27.0224 23.7865 27.3503 23.382 27.3503H18.5285C18.4158 27.3503 18.3095 27.3242 18.2141 27.2787V29.1211H39.7136C40.1181 29.1211 40.446 29.4491 40.446 29.8536C40.446 30.2581 40.1181 30.586 39.7136 30.586H18.2103C18.1691 32.4206 17.4312 34.1339 16.1183 35.4252C15.9171 35.623 15.7053 35.8054 15.4858 35.9756C19.308 36.0283 22.4017 39.1521 22.4017 42.9866V48.2207C22.4017 49.2018 21.6035 50 20.6224 50H18.6621C18.2576 50 17.9297 49.6721 17.9297 49.2676C17.9297 48.8631 18.2576 48.5352 18.6621 48.5352H20.6223C20.7956 48.5352 20.9367 48.3942 20.9367 48.2207V42.9866C20.9367 40.8353 19.7052 38.9674 17.9109 38.0472L16.776 41.2579C16.55 41.8972 15.9915 42.3465 15.3187 42.4304C15.2435 42.4398 15.1687 42.4444 15.0944 42.4444C14.9263 42.4444 14.7615 42.42 14.6038 42.3747L14.0904 48.5352H15.7324C16.1369 48.5352 16.4648 48.8631 16.4648 49.2676C16.4648 49.6721 16.1369 50 15.7324 50H1.7793C0.798242 50 0 49.2019 0 48.2207V42.9866C0 39.9504 1.93965 37.3595 4.64463 36.3858ZM9.83223 37.438H7.01338C6.62178 37.438 6.23975 37.4793 5.8709 37.5569L7.00654 40.7698C7.06289 40.9291 7.19209 40.968 7.26406 40.977C7.33623 40.9859 7.4708 40.98 7.56455 40.8394L9.83223 37.438ZM11.2008 14.4076C9.50342 14.4076 8.08896 15.6382 7.80058 17.254C8.22422 17.1738 8.66055 17.13 9.10713 17.13H13.2945C13.7411 17.13 14.1774 17.1738 14.6011 17.254C14.3125 15.6383 12.8981 14.4076 11.2008 14.4076ZM18.8431 24.1436C18.8431 21.084 16.354 18.595 13.2944 18.595H9.10703C6.04746 18.595 3.5584 21.084 3.5584 24.1436V25.1905C3.5584 25.3638 3.69941 25.5048 3.87285 25.5048H7.01338C8.91846 25.5048 10.4684 23.9549 10.4684 22.0499C10.4684 21.6455 10.7963 21.3175 11.2008 21.3175C11.6053 21.3175 11.9332 21.6455 11.9332 22.0499C11.9332 23.955 13.4831 25.5048 15.3881 25.5048H18.5286C18.702 25.5048 18.8431 25.3638 18.8431 25.1905V24.1436ZM16.7494 30.4246V26.9697H15.3882C13.621 26.9697 12.0685 26.0332 11.2009 24.6303C10.3332 26.0332 8.78066 26.9697 7.01348 26.9697H5.65225V30.3212C5.65225 33.3872 8.09863 35.9222 11.1057 35.9724C12.6066 35.9966 14.0221 35.4323 15.0911 34.3809C16.1604 33.3291 16.7494 31.9242 16.7494 30.4246ZM15.1374 40.9769C15.2094 40.9679 15.3387 40.9291 15.3949 40.7697L16.5306 37.5568C16.1617 37.4792 15.7797 37.4379 15.3881 37.4379H12.5692L14.8368 40.8393C14.9308 40.98 15.0656 40.9859 15.1374 40.9769ZM12.6205 48.5352L13.2412 41.0866L11.2008 38.0259L9.16025 41.0867L9.78105 48.5352H12.6205ZM1.46484 48.2207C1.46484 48.3941 1.60586 48.5352 1.7793 48.5352H8.31113L7.79775 42.3748C7.64004 42.4201 7.47529 42.4445 7.30713 42.4445C7.23291 42.4445 7.15801 42.4399 7.08291 42.4305C6.40996 42.3466 5.85156 41.8973 5.62558 41.258L4.49072 38.0473C2.69639 38.9675 1.46494 40.8354 1.46494 42.9867L1.46484 48.2207Z" fill="#3434F4"/>
<path d="M13.2944 29.5867C12.8899 29.5867 12.562 29.2588 12.562 28.8543V28.3309C12.562 27.9264 12.8899 27.5984 13.2944 27.5984C13.6989 27.5984 14.0269 27.9264 14.0269 28.3309V28.8543C14.0269 29.2588 13.6989 29.5867 13.2944 29.5867Z" fill="#3434F4"/>
<path d="M9.10709 29.5867C8.7026 29.5867 8.37467 29.2588 8.37467 28.8543V28.3309C8.37467 27.9264 8.7026 27.5984 9.10709 27.5984C9.51158 27.5984 9.83951 27.9264 9.83951 28.3309V28.8543C9.83951 29.2588 9.51158 29.5867 9.10709 29.5867Z" fill="#3434F4"/>
<path d="M40.4459 20.9277C40.4459 20.0931 41.1249 19.4141 41.9596 19.4141H45.2506C46.0853 19.4141 46.7643 20.0931 46.7643 20.9277V24.2188C46.7643 25.0534 46.0853 25.7324 45.2506 25.7324H41.9596C41.1249 25.7324 40.4459 25.0534 40.4459 24.2188V20.9277ZM41.9108 24.2188C41.9108 24.2457 41.9326 24.2676 41.9596 24.2676H45.2506C45.2776 24.2676 45.2994 24.2457 45.2994 24.2188V20.9277C45.2994 20.9008 45.2776 20.8789 45.2506 20.8789H41.9596C41.9326 20.8789 41.9108 20.9008 41.9108 20.9277V24.2188Z" fill="#3434F4"/>
<path d="M37.1614 24.1146H32.2525C31.4178 24.1146 30.7388 23.4356 30.7388 22.6009V20.9277C30.7388 20.0931 31.4178 19.4141 32.2525 19.4141H37.1614C37.9961 19.4141 38.6751 20.0931 38.6751 20.9277V22.6009C38.6751 23.4356 37.9961 24.1146 37.1614 24.1146ZM37.2102 20.9277C37.2102 20.9008 37.1884 20.8789 37.1614 20.8789H32.2525C32.2256 20.8789 32.2037 20.9008 32.2037 20.9277V22.6009C32.2037 22.6278 32.2256 22.6497 32.2525 22.6497H37.1614C37.1884 22.6497 37.2102 22.6278 37.2102 22.6009V20.9277Z" fill="#3434F4"/>
<path d="M37.9426 27.3503H26.6178C26.2134 27.3503 25.8854 27.0223 25.8854 26.6178C25.8854 26.2134 26.2134 25.8854 26.6178 25.8854H37.9426C38.3471 25.8854 38.6751 26.2134 38.6751 26.6178C38.6751 27.0223 38.3471 27.3503 37.9426 27.3503Z" fill="#3434F4"/>
</svg>
