<svg width="52" height="52" viewBox="0 0 52 52" fill="none" xmlns="http://www.w3.org/2000/svg">
<path d="M47.6667 0H4.33333C1.94133 0.00281667 0.00281667 1.94133 0 4.33333V38.1333C0.00281667 40.5253 1.94133 42.4639 4.33333 42.4667H19.76L18.3413 50.2667H15.6V52H36.4V50.2667H33.657L32.24 42.4667H47.6667C50.0587 42.4639 51.9972 40.5253 52 38.1333V4.33333C51.9972 1.94133 50.0587 0.00281667 47.6667 0ZM20.1067 50.2667L21.5245 42.4667H30.4772L31.8933 50.2667H20.1067ZM50.2667 38.1333C50.2667 39.5693 49.1026 40.7333 47.6667 40.7333H4.33333C2.89738 40.7333 1.73333 39.5693 1.73333 38.1333V36.4H50.2667V38.1333ZM50.2667 34.6667H1.73333V4.33333C1.73333 2.89738 2.89738 1.73333 4.33333 1.73333H47.6667C49.1026 1.73333 50.2667 2.89738 50.2667 4.33333V34.6667Z" fill="#3434F4"/>
<path d="M23.4 4.33336C22.9214 4.33336 22.5333 4.72141 22.5333 5.20003V8.40063C22.4276 8.43789 22.3236 8.47689 22.2204 8.51676C21.983 8.60863 21.749 8.70916 21.521 8.81836L19.259 6.55636C18.9206 6.21804 18.372 6.21804 18.0336 6.55636L14.3563 10.2336C14.018 10.5721 14.018 11.1207 14.3563 11.4591L16.6183 13.7211C16.4613 14.051 16.3219 14.3889 16.2006 14.7334H13C12.5214 14.7334 12.1333 15.1214 12.1333 15.6V19.9334H13.8666V16.4667H16.835C17.2225 16.4667 17.5629 16.2094 17.6687 15.8366C17.8508 15.1892 18.108 14.5653 18.4348 13.9776C18.6236 13.6393 18.5648 13.2168 18.291 12.9428L16.1945 10.8464L18.6463 8.39456L20.7428 10.491C21.0176 10.7674 21.4433 10.8262 21.7828 10.6349C22.1266 10.4427 22.4834 10.2748 22.8505 10.1322C23.1088 10.0322 23.3722 9.94557 23.6409 9.87223C24.0133 9.76444 24.2687 9.42264 24.2666 9.03503V6.0667H27.7333V4.33336H23.4Z" fill="#3434F4"/>
<path d="M38.1333 16.4667V19.9333H35.165C34.7775 19.9333 34.4371 20.1906 34.3312 20.5634C34.1491 21.2108 33.8919 21.8347 33.5651 22.4224C33.3764 22.7607 33.4351 23.1832 33.709 23.4572L35.8054 25.5537L33.3536 28.0055L31.2572 25.9133C30.9832 25.6395 30.5607 25.5808 30.2224 25.7695C29.6347 26.0963 29.0108 26.3535 28.3634 26.5356C27.9906 26.6415 27.7333 26.9818 27.7333 27.3693V30.3333H24.2666V32.0667H28.6C29.0786 32.0667 29.4666 31.6786 29.4666 31.2V27.9994C29.8111 27.8781 30.149 27.7387 30.4789 27.5817L32.7409 29.8437C33.0793 30.182 33.6279 30.182 33.9664 29.8437L37.6436 26.1664C37.9819 25.828 37.9819 25.2794 37.6436 24.9409L35.3816 22.6789C35.5386 22.3491 35.678 22.0112 35.7994 21.6667H39C39.4786 21.6667 39.8666 21.2786 39.8666 20.8V16.4667H38.1333Z" fill="#3434F4"/>
<path d="M39.3267 7.90576C39.1293 7.46972 38.6159 7.27613 38.1798 7.47351C38.0847 7.51652 37.9982 7.57632 37.9244 7.65009L35.5333 10.0412L34.1588 8.6667L36.5499 6.27556C36.8876 5.93626 36.8862 5.38755 36.5469 5.04988C36.4725 4.976 36.3855 4.91609 36.2899 4.8733C35.5081 4.51742 34.6591 4.33336 33.8 4.33336C30.4511 4.33715 27.7371 7.05112 27.7333 10.4C27.734 10.7575 27.7668 11.1144 27.8312 11.466L27.0556 12.2417C26.7076 12.1742 26.3543 12.1379 26 12.1334C22.6511 12.1372 19.9371 14.8511 19.9333 18.2C19.9379 18.5544 19.9741 18.9077 20.0416 19.2556L19.266 20.0313C15.9613 19.4478 12.8093 21.6538 12.2258 24.9585C12.1652 25.3024 12.1342 25.6509 12.1333 26.0001C12.1327 26.8606 12.3168 27.7113 12.6732 28.4944C12.8689 28.9312 13.3816 29.1267 13.8184 28.931C13.9141 28.8881 14.0012 28.8283 14.0754 28.7544L16.4666 26.3588L17.8412 27.7334L15.45 30.1245C15.1117 30.463 15.1118 31.0117 15.4504 31.3502C15.5241 31.424 15.6107 31.4838 15.7057 31.5268C16.4888 31.8832 17.3395 32.0673 18.2 32.0667C21.5489 32.0629 24.2628 29.3489 24.2666 26C24.266 25.6425 24.2332 25.2857 24.1687 24.934L24.9444 24.1584C25.2923 24.2259 25.6456 24.2621 26 24.2667C29.3489 24.2629 32.0628 21.5489 32.0666 18.2C32.0621 17.8457 32.0258 17.4924 31.9583 17.1444L32.7383 16.3688C36.0405 16.9522 39.1905 14.7482 39.774 11.446C39.835 11.1006 39.866 10.7507 39.8666 10.4C39.8673 9.53954 39.6831 8.6889 39.3267 7.90576ZM25.3872 13.91L21.71 17.5873C21.9852 15.682 23.482 14.1853 25.3872 13.91ZM26.6127 22.49L30.29 18.8128C30.0147 20.718 28.518 22.2148 26.6127 22.49ZM33.8172 14.7315C33.4335 14.7322 33.0515 14.6818 32.6811 14.5817C32.3825 14.5023 32.0643 14.5878 31.8456 14.8062L24.0456 22.6062L22.6061 24.05C22.3877 24.2686 22.3022 24.5869 22.3816 24.8855C23.0059 27.1869 21.6461 29.5587 19.3446 30.1829C18.9715 30.2841 18.5866 30.3347 18.2 30.3334C18.0392 30.3336 17.8787 30.3246 17.719 30.3065L19.6794 28.3461C20.0177 28.0077 20.0177 27.4591 19.6794 27.1206L17.0794 24.5206C16.7409 24.1823 16.1923 24.1823 15.8539 24.5206L13.8935 26.481C13.8754 26.3213 13.8664 26.1608 13.8666 26C13.8611 23.613 15.7917 21.6735 18.1787 21.668C18.5638 21.6671 18.9473 21.7177 19.3188 21.8184C19.6174 21.8978 19.9358 21.8123 20.1543 21.5939L29.3938 12.3544C29.6122 12.1357 29.6977 11.8175 29.6183 11.5189C28.9917 9.21811 30.349 6.84496 32.6498 6.21836C33.0246 6.11631 33.4115 6.06529 33.8 6.0667C33.9607 6.06648 34.1213 6.07547 34.281 6.09356L32.3206 8.05396C31.9822 8.3924 31.9822 8.941 32.3206 9.27943L34.9206 11.8794C35.259 12.2178 35.8076 12.2178 36.146 11.8794L38.1064 9.91903C38.1245 10.0787 38.1335 10.2393 38.1333 10.4C38.1375 12.788 36.2052 14.7273 33.8172 14.7315Z" fill="#3434F4"/>
<path d="M11.8794 6.32061C11.7169 6.15811 11.4965 6.06668 11.2666 6.06668H8.50717C8.02856 4.71284 6.54298 4.00336 5.18925 4.48209C3.83552 4.96081 3.12593 6.44617 3.60455 7.80001C4.08317 9.15385 5.56874 9.86333 6.92247 9.3846C7.66293 9.12287 8.24544 8.54047 8.50717 7.80001H10.9078L12.3872 9.27941L13.6127 8.05395L11.8794 6.32061ZM6.06664 7.80001C5.58802 7.80001 5.19997 7.41196 5.19997 6.93335C5.19997 6.45473 5.58802 6.06668 6.06664 6.06668C6.54526 6.06668 6.93331 6.45473 6.93331 6.93335C6.93331 7.41196 6.54526 7.80001 6.06664 7.80001Z" fill="#3434F4"/>
<path d="M8.50715 14.7334C8.1412 13.6982 7.16447 13.0046 6.06662 13C4.63066 12.9941 3.46185 14.1534 3.45589 15.5892C3.44993 17.0251 4.60921 18.194 6.04506 18.1999C7.15082 18.2045 8.13849 17.5092 8.50715 16.4666H10.4V14.7333L8.50715 14.7334ZM6.06662 16.4667C5.588 16.4667 5.19995 16.0787 5.19995 15.6C5.19995 15.1214 5.588 14.7334 6.06662 14.7334C6.54523 14.7334 6.93328 15.1214 6.93328 15.6C6.93328 16.0787 6.54523 16.4667 6.06662 16.4667Z" fill="#3434F4"/>
<path d="M8.66659 21.6666V25.6412L7.18026 27.1266C6.83338 26.957 6.45269 26.8682 6.06659 26.8666C4.63063 26.8666 3.46659 28.0307 3.46659 29.4666C3.46659 30.9026 4.63063 32.0666 6.06659 32.0666C7.50255 32.0666 8.66659 30.9026 8.66659 29.4666C8.66508 29.0805 8.57624 28.6999 8.40659 28.353L10.1469 26.6127C10.309 26.4501 10.4001 26.2296 10.3999 26V21.6666H8.66659ZM6.06659 30.3333C5.58798 30.3333 5.19993 29.9453 5.19993 29.4666C5.19993 28.988 5.58798 28.6 6.06659 28.6C6.54521 28.6 6.93326 28.988 6.93326 29.4666C6.93326 29.9453 6.54521 30.3333 6.06659 30.3333Z" fill="#3434F4"/>
<path d="M48.3849 5.19878C48.0187 4.15921 47.0356 3.46458 45.9334 3.46664C44.5008 3.46393 43.3373 4.62309 43.3346 6.05569C43.3325 7.15788 44.0272 8.141 45.0667 8.50717V10.4H41.6001V12.1333H45.9334C46.412 12.1333 46.8001 11.7453 46.8001 11.2666V8.50717C48.1513 8.03126 48.8609 6.55002 48.3849 5.19878ZM45.9334 6.9333C45.4548 6.9333 45.0667 6.54525 45.0667 6.06664C45.0667 5.58802 45.4548 5.19997 45.9334 5.19997C46.412 5.19997 46.8001 5.58802 46.8001 6.06664C46.8001 6.54525 46.412 6.9333 45.9334 6.9333Z" fill="#3434F4"/>
<path d="M48.3832 28.5913C48.0142 27.5557 47.0328 26.8647 45.9334 26.8667C44.8355 26.8712 43.8588 27.5649 43.4928 28.6H41.0922L39.1794 26.6873L37.954 27.9127L40.1206 30.0794C40.2831 30.2419 40.5035 30.3333 40.7334 30.3333H43.4928C43.9738 31.6837 45.4585 32.3885 46.809 31.9075C48.1594 31.4264 48.8642 29.9417 48.3832 28.5913ZM45.9334 30.3333C45.4548 30.3333 45.0667 29.9453 45.0667 29.4667C45.0667 28.988 45.4548 28.6 45.9334 28.6C46.412 28.6 46.8 28.988 46.8 29.4667C46.8 29.9453 46.412 30.3333 45.9334 30.3333Z" fill="#3434F4"/>
<path d="M48.3848 17.3322C48.0187 16.2926 47.0355 15.5979 45.9333 15.6C44.5008 15.5973 43.3372 16.7565 43.3345 18.1891C43.3325 19.2913 44.0271 20.2744 45.0667 20.6406V22.1746L43.1539 24.0873L44.3794 25.3128L46.5461 23.1461C46.7086 22.9836 46.8 22.7632 46.8 22.5334V20.6406C48.1513 20.1647 48.8608 18.6834 48.3848 17.3322ZM45.9333 19.0667C45.4547 19.0667 45.0667 18.6786 45.0667 18.2C45.0667 17.7214 45.4547 17.3334 45.9333 17.3334C46.412 17.3334 46.8 17.7214 46.8 18.2C46.8 18.6786 46.412 19.0667 45.9333 19.0667Z" fill="#3434F4"/>
</svg>
