<svg width="38" height="28" viewBox="0 0 38 28" fill="none" xmlns="http://www.w3.org/2000/svg">
<g clip-path="url(#clip0)">
<path fill-rule="evenodd" clip-rule="evenodd" d="M0 0H54.15V2.15469H0V0ZM0 4.30938H54.15V6.46406H0V4.30938ZM0 8.61328H54.15V10.7734H0V8.61328ZM0 12.9227H54.15V15.0773H0V12.9227ZM0 17.232H54.15V19.3867H0V17.232ZM0 21.5359H54.15V23.6906H0V21.5359ZM0 25.8453H54.15V28H0V25.8453Z" fill="#BD3D44"/>
<path fill-rule="evenodd" clip-rule="evenodd" d="M0 2.15479H54.15V4.30947H0V2.15479ZM0 6.46416H54.15V8.61338H0V6.46416ZM0 10.7681H54.15V12.9228H0V10.7681ZM0 15.0774H54.15V17.2321H0V15.0774ZM0 19.3868H54.15V21.5415H0V19.3868ZM0 23.6907H54.15V25.8454H0V23.6907Z" fill="white"/>
<path fill-rule="evenodd" clip-rule="evenodd" d="M0 0H21.6589V15.0773H0V0Z" fill="#192F5D"/>
<path fill-rule="evenodd" clip-rule="evenodd" d="M1.80371 0.645508L2.0041 1.2416H2.63867L2.12656 1.60801L2.32139 2.20957L1.80371 1.83769L1.2916 2.2041L1.48643 1.60801L0.96875 1.2416H1.61445L1.80371 0.645508ZM5.41631 0.645508L5.61113 1.2416H6.25127L5.73359 1.60801L5.92842 2.20957L5.41631 1.83769L4.89863 2.2041L5.09346 1.60801L4.58135 1.2416H5.21592L5.41631 0.645508ZM9.02334 0.645508L9.22373 1.2416H9.85273L9.34062 1.60801L9.53545 2.20957L9.01777 1.83769L8.50566 2.2041L8.70049 1.60801L8.18281 1.2416H8.82295L9.02334 0.645508ZM12.6359 0.645508L12.8308 1.2416H13.4709L12.9532 1.60801L13.1536 2.20957L12.6359 1.83769L12.1183 2.2041L12.3187 1.60801L11.801 1.2416H12.4355L12.6359 0.645508ZM16.243 0.645508L16.4434 1.2416H17.0779L16.5658 1.60801L16.7606 2.20957L16.243 1.83769L15.7309 2.2041L15.9257 1.60801L15.4136 1.2416H16.0481L16.243 0.645508ZM19.8556 0.645508L20.0504 1.2416H20.6905L20.1728 1.60801L20.3732 2.20957L19.8556 1.83769L19.3379 2.2041L19.5383 1.60801L19.0206 1.2416H19.6607L19.8556 0.645508ZM3.61279 2.15488L3.80762 2.75098H4.44775L3.93008 3.11738L4.11934 3.71347L3.61836 3.34707L3.10068 3.71347L3.28437 3.11738L2.7834 2.75098H3.41797L3.61279 2.15488ZM7.21982 2.15488L7.42021 2.75098H8.05478L7.53711 3.11738L7.7375 3.71347L7.21982 3.34707L6.70215 3.71347L6.90254 3.11738L6.38486 2.75098H7.025L7.21982 2.15488ZM10.8324 2.15488L11.0272 2.75098H11.6674L11.1497 3.11738L11.3445 3.71347L10.8324 3.34707L10.3147 3.71347L10.5096 3.11738L9.99746 2.75098H10.632L10.8324 2.15488ZM14.4395 2.15488L14.6398 2.75098H15.2744L14.7567 3.11738L14.9571 3.71347L14.4395 3.34707L13.9273 3.71347L14.1222 3.11738L13.6045 2.75098H14.2502L14.4395 2.15488ZM18.052 2.15488L18.2469 2.75098H18.887L18.3693 3.11738L18.5642 3.71347L18.052 3.34707L17.5344 3.71347L17.7292 3.11738L17.2171 2.75098H17.8517L18.052 2.15488ZM1.80371 3.65879L2.0041 4.26582H2.63867L2.12656 4.63222L2.32139 5.22832L1.80371 4.85644L1.2916 5.22832L1.48643 4.62676L0.96875 4.26035H1.61445L1.80371 3.65879ZM5.41631 3.65879L5.61113 4.26035H6.25127L5.73359 4.62676L5.92842 5.22285L5.41631 4.85097L4.89863 5.22285L5.09346 4.62129L4.58135 4.25488H5.21592L5.41631 3.65879ZM9.02334 3.65879L9.22373 4.26035H9.85273L9.34062 4.62676L9.53545 5.22285L9.01777 4.85097L8.50566 5.22285L8.70049 4.62129L8.18281 4.25488H8.82295L9.02334 3.65879ZM12.6359 3.65879L12.8308 4.26035H13.4709L12.9532 4.62676L13.1536 5.22285L12.6359 4.85097L12.1183 5.22285L12.3187 4.62129L11.801 4.25488H12.4355L12.6359 3.65879ZM16.243 3.65879L16.4434 4.26035H17.0779L16.5658 4.62676L16.7606 5.22285L16.243 4.85097L15.7309 5.22285L15.9257 4.62129L15.4136 4.25488H16.0481L16.243 3.65879ZM19.8556 3.65879L20.0504 4.26035H20.6905L20.1728 4.62676L20.3732 5.22285L19.8556 4.85097L19.3379 5.22285L19.5383 4.62129L19.0206 4.25488H19.6607L19.8556 3.65879ZM3.61279 5.16816L3.80762 5.76426H4.44775L3.93008 6.13066L4.1249 6.73222L3.61279 6.36035L3.09512 6.72675L3.28994 6.13066L2.77783 5.76426H3.4124L3.61279 5.16816ZM7.21982 5.16816L7.42021 5.76426H8.05478L7.53711 6.13066L7.7375 6.73222L7.21982 6.36035L6.70215 6.72675L6.90254 6.13066L6.38486 5.76426H7.025L7.21982 5.16816ZM10.8324 5.16816L11.0272 5.76426H11.6674L11.1497 6.13066L11.3445 6.73222L10.8324 6.36035L10.3147 6.72675L10.5096 6.13066L9.99746 5.76426H10.632L10.8324 5.16816ZM14.4395 5.16816L14.6398 5.76426H15.2744L14.7623 6.13066L14.9571 6.73222L14.4395 6.36035L13.9273 6.72675L14.1222 6.13066L13.6045 5.76426H14.2502L14.4395 5.16816ZM18.052 5.16816L18.2469 5.76426H18.887L18.3693 6.13066L18.5642 6.73222L18.052 6.36035L17.5344 6.72675L17.7292 6.13066L17.2171 5.76426H17.8517L18.052 5.16816ZM1.80371 6.67754L2.0041 7.27363H2.63867L2.12656 7.64004L2.32139 8.2416L1.80371 7.86972L1.2916 8.23613L1.48643 7.64004L0.96875 7.27363H1.61445L1.80371 6.67754ZM5.41631 6.67754L5.61113 7.27363H6.25127L5.73359 7.64004L5.92842 8.23613L5.41631 7.86972L4.89863 8.23613L5.09346 7.64004L4.58135 7.27363H5.21592L5.41631 6.67754ZM9.02334 6.67754L9.22373 7.27363H9.85273L9.34062 7.64004L9.53545 8.2416L9.01777 7.86972L8.50566 8.23613L8.70049 7.64004L8.18281 7.27363H8.82295L9.02334 6.67754ZM12.6359 6.67754L12.8308 7.27363H13.4709L12.9532 7.64004L13.1536 8.2416L12.6359 7.86972L12.1183 8.23613L12.3187 7.64004L11.801 7.27363H12.4355L12.6359 6.67754ZM16.243 6.67754L16.4434 7.27363H17.0779L16.5658 7.64004L16.7606 8.2416L16.243 7.86972L15.7309 8.23613L15.9257 7.64004L15.4136 7.27363H16.0481L16.243 6.67754ZM19.8556 6.67754L20.0504 7.27363H20.6905L20.1728 7.64004L20.3732 8.2416L19.8556 7.86972L19.3379 8.23613L19.5383 7.64004L19.0206 7.27363H19.6607L19.8556 6.67754ZM3.61279 8.18691L3.80762 8.783H4.44775L3.93008 9.14941L4.1249 9.7455L3.61279 9.37363L3.09512 9.7455L3.28994 9.14394L2.77783 8.77753H3.4124L3.61279 8.18691ZM7.21982 8.18691L7.42021 8.783H8.05478L7.53711 9.14941L7.7375 9.7455L7.21982 9.37363L6.70215 9.7455L6.90254 9.14394L6.38486 8.77753H7.025L7.21982 8.18691ZM10.8324 8.18691L11.0272 8.783H11.6674L11.1497 9.14941L11.3445 9.7455L10.8324 9.37363L10.3147 9.7455L10.5096 9.14394L9.99746 8.77753H10.632L10.8324 8.18691ZM14.4395 8.18691L14.6398 8.783H15.2744L14.7623 9.14941L14.9571 9.7455L14.4395 9.37363L13.9273 9.7455L14.1222 9.14394L13.6045 8.77753H14.2502L14.4395 8.18691ZM18.052 8.18691L18.2469 8.783H18.887L18.3693 9.14941L18.5642 9.7455L18.052 9.37363L17.5344 9.7455L17.7292 9.14394L17.2171 8.77753H17.8517L18.052 8.18691ZM1.80371 9.69081L2.0041 10.2924H2.63867L2.12656 10.6588L2.32139 11.2494L1.80371 10.883L1.2916 11.2494L1.48643 10.6533L0.96875 10.2869H1.61445L1.80371 9.69081ZM5.41631 9.69081L5.61113 10.2924H6.25127L5.73359 10.6588L5.93398 11.2494L5.41631 10.883L4.89863 11.2494L5.09902 10.6533L4.58135 10.2869H5.21592L5.41631 9.69081ZM9.02334 9.69081L9.22373 10.2924H9.85273L9.34062 10.6588L9.53545 11.2494L9.01777 10.883L8.50566 11.2494L8.70049 10.6533L8.18281 10.2869H8.82295L9.02334 9.69081ZM12.6359 9.69081L12.8308 10.2924H13.4709L12.9532 10.6588L13.1536 11.2494L12.6359 10.883L12.1183 11.2494L12.3187 10.6533L11.801 10.2869H12.4355L12.6359 9.69081ZM16.243 9.69081L16.4434 10.2924H17.0779L16.5658 10.6588L16.7606 11.2494L16.243 10.883L15.7309 11.2494L15.9257 10.6533L15.4136 10.2869H16.0481L16.243 9.69081ZM19.8556 9.69081L20.0504 10.2924H20.6905L20.1728 10.6588L20.3732 11.2494L19.8556 10.883L19.3379 11.2494L19.5383 10.6533L19.0206 10.2869H19.6607L19.8556 9.69081ZM3.61279 11.2002L3.80762 11.7963H4.44775L3.93008 12.1627L4.1249 12.7643L3.61279 12.3924L3.09512 12.7588L3.28994 12.1627L2.77783 11.7963H3.4124L3.61279 11.2002ZM7.21982 11.2002L7.42021 11.7963H8.05478L7.53711 12.1627L7.7375 12.7643L7.21982 12.3924L6.70215 12.7588L6.90254 12.1627L6.38486 11.7963H7.025L7.21982 11.2002ZM10.8324 11.2002L11.0272 11.7963H11.6674L11.1497 12.1627L11.3445 12.7643L10.8324 12.3924L10.3147 12.7588L10.5096 12.1627L9.99746 11.7963H10.632L10.8324 11.2002ZM14.4395 11.2002L14.6398 11.7963H15.2744L14.7623 12.1627L14.9571 12.7643L14.4395 12.3924L13.9273 12.7588L14.1222 12.1627L13.6045 11.7963H14.2502L14.4395 11.2002ZM18.052 11.2002L18.2469 11.7963H18.887L18.3693 12.1627L18.5642 12.7643L18.052 12.3924L17.5344 12.7588L17.7292 12.1627L17.2171 11.7963H17.8517L18.052 11.2002ZM1.80371 12.7096L2.0041 13.3057H2.63867L2.12656 13.6721L2.32139 14.2682L1.80371 13.9018L1.2916 14.2682L1.48643 13.6666L0.96875 13.3002H1.61445L1.80371 12.7096ZM5.41631 12.7096L5.61113 13.3057H6.25127L5.73359 13.6721L5.93398 14.2682L5.41631 13.9018L4.89863 14.2682L5.09902 13.6666L4.58135 13.3002H5.21592L5.41631 12.7096ZM9.02334 12.7096L9.22373 13.3057H9.85273L9.35176 13.6721L9.54658 14.2682L9.02891 13.9018L8.5168 14.2682L8.71162 13.6666L8.19394 13.3002H8.83408L9.02334 12.7096ZM12.6359 12.7096L12.8308 13.3057H13.4709L12.9532 13.6721L13.1536 14.2682L12.6359 13.9018L12.1183 14.2682L12.3187 13.6666L11.801 13.3002H12.4355L12.6359 12.7096ZM16.243 12.7096L16.4434 13.3057H17.0779L16.5658 13.6721L16.7606 14.2682L16.243 13.9018L15.7309 14.2682L15.9257 13.6666L15.4136 13.3002H16.0481L16.243 12.7096ZM19.8556 12.7096L20.0504 13.3057H20.6905L20.1728 13.6721L20.3732 14.2682L19.8556 13.9018L19.3379 14.2682L19.5383 13.6666L19.0206 13.3002H19.6607L19.8556 12.7096Z" fill="white"/>
</g>
<defs>
<clipPath id="clip0">
<rect width="38" height="28" fill="white"/>
</clipPath>
</defs>
</svg>
